{"glyphs":{"0":{"ha":1153,"x_min":93,"x_max":1060,"o":"m 576 1060 q 780 1021 690 1060 q 932 911 869 982 q 1027 741 994 840 q 1060 521 1060 642 q 1026 301 1060 400 q 931 131 993 201 q 778 21 868 60 q 576 -18 689 -18 q 373 20 463 -18 q 221 129 283 58 q 126 299 158 200 q 93 521 93 399 q 126 741 93 642 q 222 911 160 840 q 374 1021 285 982 q 576 1060 464 1060 m 576 801 q 439 732 489 801 q 389 521 389 663 q 439 309 389 378 q 576 240 489 240 q 714 309 664 240 q 764 521 764 378 q 714 732 764 663 q 576 801 664 801 z "},"1":{"ha":754,"x_min":82,"x_max":624,"o":"m 624 1042 l 624 0 l 325 0 l 325 550 l 82 550 l 82 790 l 135 790 q 285 847 232 790 q 339 1003 339 903 l 339 1042 l 624 1042 z "},"2":{"ha":1065,"x_min":110,"x_max":954,"o":"m 954 0 l 117 0 l 117 232 l 532 524 q 625 610 594 568 q 656 699 656 651 q 626 774 656 747 q 540 801 596 801 q 444 762 478 801 q 410 656 410 722 l 110 656 q 142 816 113 742 q 227 944 172 890 q 363 1029 282 999 q 547 1060 443 1060 q 719 1034 644 1060 q 846 963 794 1008 q 924 852 897 917 q 951 711 951 788 q 895 519 951 601 q 738 375 839 438 l 554 258 l 954 258 l 954 0 z "},"3":{"ha":1024,"x_min":89,"x_max":928,"o":"m 892 1042 l 892 817 l 679 660 q 783 619 738 647 q 862 550 829 592 q 911 456 894 508 q 928 342 928 403 q 899 198 928 264 q 817 84 871 132 q 687 9 764 36 q 514 -18 610 -18 q 216 78 325 -18 q 89 349 107 175 l 386 349 q 424 265 393 296 q 513 233 454 233 q 597 264 565 233 q 629 350 629 294 q 594 435 629 406 q 501 464 560 464 q 433 458 465 464 q 368 442 400 451 l 300 622 l 514 783 l 150 783 l 150 1042 l 892 1042 z "},"4":{"ha":1101,"x_min":89,"x_max":1032,"o":"m 897 1042 l 897 414 l 1032 414 l 1032 156 l 897 156 l 897 0 l 603 0 l 603 156 l 89 156 l 89 392 l 644 1042 l 897 1042 m 428 414 l 603 414 l 603 643 l 428 414 z "},"5":{"ha":1029,"x_min":97,"x_max":938,"o":"m 897 1042 l 897 783 l 453 783 l 440 658 q 586 683 500 683 q 848 594 758 683 q 938 342 938 504 q 910 196 938 263 q 830 82 882 129 q 701 8 778 35 q 526 -18 624 -18 q 234 72 346 -18 q 97 325 122 161 l 399 325 q 440 261 410 283 q 515 239 471 239 q 606 268 572 239 q 640 353 640 297 q 610 433 640 404 q 519 463 581 463 q 447 450 481 463 q 390 417 414 438 l 154 474 l 207 1042 l 897 1042 z "},"6":{"ha":1038,"x_min":93,"x_max":940,"o":"m 650 725 q 614 783 643 763 q 536 804 585 804 q 428 758 465 804 q 388 625 390 713 q 471 665 424 651 q 571 678 518 678 q 729 654 660 678 q 845 587 799 631 q 916 481 892 543 q 940 343 940 419 q 911 199 940 265 q 829 84 882 132 q 701 9 776 36 q 532 -18 625 -18 q 208 116 324 -18 q 93 517 93 250 q 123 742 93 642 q 210 914 153 843 q 351 1022 267 985 q 542 1060 435 1060 q 703 1035 633 1060 q 823 965 774 1010 q 900 860 872 921 q 935 725 928 799 l 650 725 m 401 354 q 436 269 401 301 q 526 238 471 238 q 620 267 588 238 q 653 351 653 297 q 619 436 653 407 q 528 465 586 465 q 436 435 471 465 q 401 354 401 406 z "},"7":{"ha":964,"x_min":83,"x_max":885,"o":"m 885 1042 l 885 836 l 546 0 l 226 0 l 567 783 l 83 783 l 83 1042 l 885 1042 z "},"8":{"ha":1033,"x_min":96,"x_max":938,"o":"m 96 310 q 128 454 96 389 q 222 556 160 519 q 160 642 182 590 q 139 754 139 693 q 164 877 139 821 q 237 974 189 933 q 355 1038 285 1015 q 517 1060 425 1060 q 678 1038 608 1060 q 797 974 749 1015 q 869 877 844 933 q 893 754 893 821 q 872 643 893 694 q 810 557 850 592 q 904 456 871 521 q 938 310 938 392 q 911 180 938 240 q 832 76 885 119 q 700 7 779 32 q 517 -18 621 -18 q 331 7 410 -18 q 200 76 253 32 q 122 179 147 119 q 96 310 96 239 m 517 426 q 414 400 447 426 q 381 328 381 374 q 415 256 381 283 q 517 228 450 228 q 619 256 585 228 q 653 328 653 283 q 618 400 653 374 q 517 426 583 426 m 517 813 q 439 790 464 813 q 414 731 414 767 q 439 671 414 693 q 517 649 464 649 q 594 671 568 649 q 619 731 619 693 q 594 790 619 767 q 517 813 569 813 z "},"9":{"ha":1038,"x_min":97,"x_max":944,"o":"m 385 317 q 422 258 392 279 q 501 236 451 236 q 610 281 572 236 q 649 414 647 326 q 564 375 613 388 q 461 363 515 363 q 190 453 283 363 q 97 699 97 544 q 126 842 97 776 q 209 957 156 908 q 338 1033 263 1006 q 506 1060 413 1060 q 829 926 714 1060 q 944 525 944 792 q 915 298 944 399 q 827 127 885 197 q 686 19 769 57 q 494 -18 603 -18 q 332 6 403 -18 q 212 75 261 31 q 134 181 163 119 q 99 317 106 243 l 385 317 m 636 686 q 602 772 636 740 q 510 803 568 803 q 418 773 451 803 q 385 690 385 743 q 418 604 385 633 q 510 575 451 575 q 602 606 568 575 q 636 686 636 636 z "}," ":{"ha":375,"x_min":0,"x_max":0,"o":""},"!":{"ha":431,"x_min":51,"x_max":379,"o":"m 350 1075 l 350 364 l 81 364 l 81 1075 l 350 1075 m 215 292 q 338 249 296 292 q 379 140 379 206 q 338 32 379 75 q 215 -11 296 -11 q 92 32 133 -11 q 51 140 51 75 q 93 249 51 206 q 215 292 135 292 z "},"\"":{"ha":692,"x_min":58,"x_max":633,"o":"m 633 1042 l 633 919 l 606 649 l 379 649 l 379 1042 l 633 1042 m 311 1042 l 311 919 l 283 649 l 58 649 l 58 1042 l 311 1042 z "},"#":{"ha":956,"x_min":68,"x_max":886,"o":"m 260 740 l 283 881 l 488 881 l 464 740 l 575 740 l 599 881 l 803 881 l 779 740 l 886 740 l 886 543 l 746 543 l 728 436 l 851 436 l 851 239 l 694 239 l 671 99 l 467 99 l 490 239 l 379 239 l 356 99 l 151 99 l 175 239 l 68 239 l 68 436 l 208 436 l 226 543 l 103 543 l 103 740 l 260 740 m 413 436 l 524 436 l 542 543 l 431 543 l 413 436 z "},"$":{"ha":1038,"x_min":79,"x_max":958,"o":"m 640 728 q 602 797 635 771 q 513 824 569 824 q 427 801 454 824 q 400 743 400 778 q 431 683 400 704 q 536 656 461 663 q 735 619 654 646 q 865 551 815 593 q 937 452 915 510 q 958 322 958 394 q 887 114 958 200 q 676 -3 815 28 l 676 -169 l 386 -169 l 386 -3 q 172 113 249 28 q 79 333 94 199 l 386 333 q 435 249 394 279 q 543 218 475 218 q 679 304 679 218 q 644 367 679 343 q 521 400 608 392 q 213 503 310 417 q 117 732 117 590 q 187 934 117 850 q 386 1046 257 1018 l 386 1189 l 676 1189 l 676 1036 q 853 922 788 1001 q 929 728 918 842 l 640 728 z "},"%":{"ha":1296,"x_min":61,"x_max":1233,"o":"m 1178 997 l 368 0 l 81 0 l 889 997 l 1178 997 m 975 500 q 1079 481 1032 500 q 1161 426 1126 461 q 1215 344 1196 392 q 1233 240 1233 296 q 1215 138 1233 185 q 1161 56 1196 90 q 1079 1 1126 21 q 975 -18 1032 -18 q 871 1 918 -18 q 789 56 824 21 q 735 138 754 90 q 717 240 717 185 q 735 344 717 296 q 789 426 754 392 q 871 481 824 461 q 975 500 918 500 m 975 307 q 934 290 951 307 q 917 240 917 272 q 934 191 917 208 q 975 174 951 174 q 1017 191 999 174 q 1035 240 1035 208 q 1017 290 1035 272 q 975 307 999 307 m 319 1060 q 424 1040 376 1060 q 506 986 472 1021 q 560 903 540 951 q 579 800 579 856 q 560 697 579 744 q 506 615 540 650 q 424 561 472 581 q 319 542 376 542 q 215 561 263 542 q 134 615 168 581 q 81 697 100 650 q 61 800 61 744 q 81 903 61 856 q 134 986 100 951 q 215 1040 168 1021 q 319 1060 263 1060 m 319 867 q 278 849 296 867 q 261 800 261 832 q 278 751 261 768 q 319 733 296 733 q 361 751 343 733 q 379 800 379 768 q 361 849 379 832 q 319 867 343 867 z "},"&":{"ha":1097,"x_min":74,"x_max":1042,"o":"m 1015 594 q 1019 538 1018 565 q 1021 479 1021 510 q 950 225 1021 340 l 1042 140 l 856 -57 l 757 43 q 635 -2 700 14 q 496 -18 569 -18 q 317 9 396 -18 q 185 85 239 36 q 102 205 131 135 q 74 361 74 275 q 108 526 74 453 q 208 650 143 600 q 193 754 193 700 q 216 876 193 821 q 284 973 239 932 q 394 1037 329 1014 q 544 1060 460 1060 q 699 1035 632 1060 q 811 967 765 1011 q 882 863 857 924 q 910 732 907 803 l 640 732 q 613 801 638 776 q 542 826 588 826 q 474 803 497 826 q 450 740 450 779 q 496 642 450 685 l 754 404 q 760 479 760 436 q 756 594 760 533 l 1015 594 m 506 215 q 545 217 526 215 q 581 222 564 218 l 351 456 q 332 374 332 419 q 378 260 332 304 q 506 215 424 215 z "},"'":{"ha":381,"x_min":58,"x_max":322,"o":"m 322 1042 l 322 919 l 294 649 l 58 649 l 58 1042 l 322 1042 z "},"(":{"ha":553,"x_min":82,"x_max":543,"o":"m 543 1042 q 404 708 449 878 q 360 347 360 538 q 404 -22 360 149 q 543 -347 449 -192 l 282 -347 q 133 -32 185 -204 q 82 347 82 140 q 133 726 82 554 q 282 1042 185 899 l 543 1042 z "},")":{"ha":553,"x_min":10,"x_max":471,"o":"m 10 -347 q 149 -14 104 -183 q 193 347 193 156 q 149 716 193 546 q 10 1042 104 886 l 271 1042 q 419 726 368 899 q 471 347 471 554 q 419 -32 471 140 q 271 -347 368 -204 l 10 -347 z "},"*":{"ha":669,"x_min":26,"x_max":642,"o":"m 440 1072 l 433 921 l 572 981 l 642 783 l 490 736 l 590 610 l 418 486 l 335 621 l 250 486 l 79 610 l 179 736 l 26 783 l 96 981 l 236 921 l 229 1072 l 440 1072 z "},"+":{"ha":860,"x_min":79,"x_max":781,"o":"m 551 890 l 551 656 l 781 656 l 781 403 l 551 403 l 551 168 l 307 168 l 307 403 l 79 403 l 79 656 l 307 656 l 307 890 l 551 890 z "},",":{"ha":431,"x_min":57,"x_max":374,"o":"m 60 -78 q 134 -53 107 -74 q 164 0 161 -32 q 85 49 114 11 q 57 146 57 88 q 99 258 57 213 q 213 304 140 304 q 330 255 286 304 q 374 126 374 206 q 355 -5 374 56 q 298 -112 336 -65 q 200 -188 260 -158 q 60 -225 140 -218 l 60 -78 z "},"-":{"ha":731,"x_min":107,"x_max":624,"o":"m 624 482 l 624 242 l 107 242 l 107 482 l 624 482 z "},".":{"ha":431,"x_min":57,"x_max":372,"o":"m 215 304 q 330 259 288 304 q 372 147 372 214 q 331 35 372 81 q 215 -11 289 -11 q 99 35 140 -11 q 57 147 57 81 q 99 259 57 214 q 215 304 142 304 z "},"/":{"ha":631,"x_min":-81,"x_max":651,"o":"m 651 1085 l 169 -376 l -81 -376 l 401 1085 l 651 1085 z "},":":{"ha":431,"x_min":57,"x_max":372,"o":"m 215 304 q 330 259 288 304 q 372 147 372 214 q 331 35 372 81 q 215 -11 289 -11 q 99 35 140 -11 q 57 147 57 81 q 99 259 57 214 q 215 304 142 304 m 215 739 q 330 694 288 739 q 372 582 372 649 q 331 469 372 515 q 215 424 289 424 q 99 469 140 424 q 57 582 57 515 q 99 694 57 649 q 215 739 142 739 z "},";":{"ha":431,"x_min":57,"x_max":374,"o":"m 60 -78 q 134 -53 107 -74 q 164 0 161 -32 q 85 49 114 11 q 57 146 57 88 q 99 258 57 213 q 213 304 140 304 q 330 255 286 304 q 374 126 374 206 q 355 -5 374 56 q 298 -112 336 -65 q 200 -188 260 -158 q 60 -225 140 -218 l 60 -78 m 215 739 q 330 694 288 739 q 372 582 372 649 q 331 469 372 515 q 215 424 289 424 q 99 469 140 424 q 57 582 57 515 q 99 694 57 649 q 215 739 142 739 z "},"<":{"ha":615,"x_min":51,"x_max":571,"o":"m 288 868 l 571 868 l 346 529 l 571 190 l 288 190 l 51 485 l 51 574 l 288 868 z "},"=":{"ha":717,"x_min":82,"x_max":633,"o":"m 633 825 l 633 589 l 82 589 l 82 825 l 633 825 m 633 474 l 633 238 l 82 238 l 82 474 l 633 474 z "},">":{"ha":615,"x_min":44,"x_max":564,"o":"m 328 190 l 44 190 l 269 529 l 44 868 l 328 868 l 564 574 l 564 485 l 328 190 z "},"?":{"ha":893,"x_min":35,"x_max":844,"o":"m 306 364 l 306 440 q 345 585 306 525 q 464 668 385 644 q 531 706 513 683 q 550 765 550 729 q 523 824 550 801 q 443 847 496 847 q 353 814 389 847 q 311 725 317 781 l 35 725 q 69 873 39 806 q 153 988 100 940 q 283 1063 207 1036 q 457 1089 360 1089 q 623 1065 550 1089 q 744 1000 696 1042 q 819 901 793 958 q 844 775 844 843 q 792 597 844 665 q 644 500 740 528 q 592 462 608 489 q 575 399 575 435 l 575 364 l 306 364 m 440 292 q 563 249 521 292 q 604 140 604 206 q 563 32 604 75 q 440 -11 522 -11 q 317 32 358 -11 q 276 140 276 75 q 318 249 276 206 q 440 292 360 292 z "},"@":{"ha":1358,"x_min":63,"x_max":1296,"o":"m 960 338 q 975 282 960 300 q 1015 264 990 264 q 1063 305 1046 264 q 1081 408 1081 346 q 1058 547 1081 483 q 990 657 1036 611 q 874 728 944 703 q 707 754 803 754 q 528 722 606 754 q 398 635 450 690 q 319 506 346 579 q 292 347 292 432 q 318 179 292 254 q 397 51 344 104 q 528 -32 450 -3 q 711 -61 607 -61 q 938 -42 832 -61 q 1147 15 1043 -22 l 1147 -187 q 944 -244 1054 -224 q 711 -264 835 -264 q 427 -219 549 -264 q 224 -92 306 -174 q 103 101 143 -11 q 63 347 63 213 q 108 588 63 476 q 239 782 154 700 q 442 910 324 864 q 707 957 561 957 q 952 916 843 957 q 1138 802 1061 875 q 1255 629 1214 729 q 1296 411 1296 529 q 1272 260 1296 325 q 1208 149 1249 194 q 1115 81 1168 104 q 1001 58 1061 58 q 877 85 924 58 q 806 163 831 113 q 733 83 781 111 q 622 54 686 54 q 528 75 571 54 q 456 134 486 96 q 410 226 426 172 q 393 347 393 281 q 411 467 393 413 q 461 559 429 521 q 538 619 493 597 q 635 640 582 640 q 715 622 679 640 q 772 572 751 604 l 772 626 l 960 626 l 960 338 m 739 347 q 723 424 739 400 q 682 447 707 447 q 642 424 658 447 q 625 347 625 400 q 642 272 625 299 q 682 246 658 246 q 724 272 708 246 q 739 347 739 299 z "},"A":{"ha":1147,"x_min":32,"x_max":1115,"o":"m 736 1044 l 1115 0 l 796 0 l 744 178 l 406 178 l 353 0 l 32 0 l 425 1044 l 736 1044 m 475 411 l 678 411 l 579 758 l 475 411 z "},"B":{"ha":1053,"x_min":117,"x_max":982,"o":"m 571 1042 q 736 1020 667 1042 q 851 960 806 999 q 919 868 897 922 q 942 749 942 814 q 915 627 942 679 q 838 547 889 575 q 943 462 904 519 q 982 315 982 404 q 960 188 982 246 q 891 88 939 129 q 767 23 843 46 q 585 0 692 0 l 117 0 l 117 1042 l 571 1042 m 411 244 l 579 244 q 663 267 639 244 q 686 331 686 290 q 662 394 686 372 q 579 417 638 417 l 411 417 l 411 244 m 411 636 l 561 636 q 627 658 606 636 q 649 717 649 681 q 628 774 649 753 q 558 796 607 796 l 411 796 l 411 636 z "},"C":{"ha":1113,"x_min":68,"x_max":1042,"o":"m 726 638 q 678 756 719 713 q 563 800 636 800 q 426 732 475 800 q 376 521 376 664 q 427 308 376 376 q 563 240 478 240 q 679 285 636 240 q 729 414 722 331 l 1042 414 q 997 233 1033 313 q 899 97 960 153 q 753 12 838 42 q 567 -18 669 -18 q 354 19 447 -18 q 198 127 261 57 q 101 297 135 197 q 68 521 68 396 q 102 744 68 644 q 200 915 136 844 q 356 1022 264 985 q 567 1060 449 1060 q 751 1031 668 1060 q 896 947 835 1001 q 993 815 957 893 q 1038 638 1029 736 l 726 638 z "},"D":{"ha":1106,"x_min":117,"x_max":1038,"o":"m 531 1042 q 748 1006 653 1042 q 907 903 843 971 q 1004 740 971 836 q 1038 521 1038 643 q 1002 303 1038 400 q 901 140 967 207 q 742 36 836 72 q 531 0 649 0 l 117 0 l 117 1042 l 531 1042 m 415 251 l 510 251 q 678 317 617 251 q 739 521 739 382 q 679 726 739 663 q 510 789 619 789 l 415 789 l 415 251 z "},"E":{"ha":1006,"x_min":117,"x_max":913,"o":"m 889 1042 l 889 796 l 415 796 l 415 636 l 846 636 l 846 411 l 415 411 l 415 246 l 913 246 l 913 0 l 117 0 l 117 1042 l 889 1042 z "},"F":{"ha":968,"x_min":117,"x_max":893,"o":"m 893 1042 l 893 789 l 415 789 l 415 610 l 826 610 l 826 360 l 415 360 l 415 0 l 117 0 l 117 1042 l 893 1042 z "},"G":{"ha":1136,"x_min":68,"x_max":1050,"o":"m 1050 586 l 1050 0 l 817 0 l 817 99 q 543 -18 729 -18 q 345 17 433 -18 q 196 122 257 53 q 101 291 135 190 q 68 521 68 392 q 102 741 68 642 q 200 911 136 840 q 357 1021 264 982 q 569 1060 450 1060 q 754 1033 672 1060 q 896 958 836 1007 q 992 839 956 908 q 1039 685 1028 769 l 726 685 q 674 769 713 738 q 565 800 635 800 q 427 732 478 800 q 376 521 376 664 q 431 308 376 376 q 569 240 486 240 q 690 279 646 240 q 733 368 733 318 l 733 392 l 578 392 l 578 586 l 1050 586 z "},"H":{"ha":1164,"x_min":117,"x_max":1046,"o":"m 415 1042 l 415 650 l 749 650 l 749 1042 l 1046 1042 l 1046 0 l 749 0 l 749 393 l 415 393 l 415 0 l 117 0 l 117 1042 l 415 1042 z "},"I":{"ha":532,"x_min":117,"x_max":415,"o":"m 415 1042 l 415 0 l 117 0 l 117 1042 l 415 1042 z "},"J":{"ha":714,"x_min":58,"x_max":604,"o":"m 604 1042 l 604 410 q 500 91 604 200 q 182 -18 396 -18 q 119 -16 150 -18 q 58 -11 88 -14 l 68 238 q 108 235 88 236 q 151 235 129 235 q 263 278 219 235 q 307 410 307 321 l 307 1042 l 604 1042 z "},"K":{"ha":1144,"x_min":117,"x_max":1108,"o":"m 415 1042 l 415 626 l 717 1042 l 1075 1042 l 714 597 l 1108 0 l 749 0 l 521 388 l 415 286 l 415 0 l 117 0 l 117 1042 l 415 1042 z "},"L":{"ha":953,"x_min":117,"x_max":896,"o":"m 415 1042 l 415 258 l 896 258 l 896 0 l 117 0 l 117 1042 l 415 1042 z "},"M":{"ha":1406,"x_min":117,"x_max":1288,"o":"m 471 1042 l 703 403 l 928 1042 l 1288 1042 l 1288 0 l 996 0 l 996 581 l 797 0 l 597 0 l 399 581 l 399 0 l 117 0 l 117 1042 l 471 1042 z "},"N":{"ha":1168,"x_min":117,"x_max":1051,"o":"m 1051 1042 l 1051 0 l 754 0 l 407 575 l 407 0 l 117 0 l 117 1042 l 411 1042 l 761 461 l 761 1042 l 1051 1042 z "},"O":{"ha":1138,"x_min":68,"x_max":1069,"o":"m 568 1060 q 774 1022 682 1060 q 933 915 867 985 q 1034 745 999 844 q 1069 521 1069 646 q 1033 297 1069 396 q 932 127 997 197 q 774 19 867 57 q 568 -18 682 -18 q 362 19 454 -18 q 204 126 269 57 q 103 296 139 196 q 68 521 68 396 q 103 745 68 646 q 205 915 139 844 q 363 1022 271 985 q 568 1060 456 1060 m 568 801 q 422 732 478 801 q 367 521 367 663 q 424 309 367 378 q 568 240 481 240 q 715 309 660 240 q 771 521 771 378 q 756 644 771 592 q 715 732 742 697 q 650 784 688 767 q 568 801 613 801 z "},"P":{"ha":1046,"x_min":117,"x_max":988,"o":"m 558 1042 q 739 1015 660 1042 q 874 940 818 989 q 958 819 929 890 q 988 657 988 747 q 873 371 988 469 q 558 272 758 272 l 415 272 l 415 0 l 117 0 l 117 1042 l 558 1042 m 415 524 l 538 524 q 651 558 613 524 q 689 657 689 592 q 538 789 689 789 l 415 789 l 415 524 z "},"Q":{"ha":1138,"x_min":68,"x_max":1108,"o":"m 568 1060 q 774 1022 682 1060 q 933 915 867 985 q 1034 745 999 844 q 1069 521 1069 646 q 1047 339 1069 421 q 982 190 1025 257 l 1108 72 l 935 -103 l 806 33 q 568 -18 700 -18 q 362 19 454 -18 q 204 126 269 57 q 103 296 139 196 q 68 521 68 396 q 103 745 68 646 q 205 915 139 844 q 363 1022 271 985 q 568 1060 456 1060 m 654 501 l 757 403 q 767 458 764 429 q 771 521 771 488 q 756 644 771 592 q 715 732 742 697 q 650 784 688 767 q 568 801 613 801 q 422 732 478 801 q 367 521 367 663 q 424 309 367 378 q 568 240 481 240 q 588 241 579 240 q 607 243 597 242 l 507 350 l 654 501 z "},"R":{"ha":1085,"x_min":117,"x_max":1035,"o":"m 567 1042 q 877 941 774 1042 q 981 667 981 840 q 932 484 981 560 q 799 369 883 408 l 1035 0 l 689 0 l 529 300 l 415 300 l 415 0 l 117 0 l 117 1042 l 567 1042 m 415 542 l 539 542 q 683 667 683 542 q 539 789 683 789 l 415 789 l 415 542 z "},"S":{"ha":1047,"x_min":79,"x_max":968,"o":"m 649 728 q 608 797 643 771 q 515 824 574 824 q 428 801 457 824 q 400 743 400 779 q 431 683 400 704 q 540 656 463 663 q 742 619 660 646 q 874 551 824 593 q 946 453 924 510 q 968 325 968 396 q 941 187 968 250 q 860 78 914 124 q 726 7 806 32 q 542 -18 646 -18 q 216 75 333 -18 q 79 332 99 168 l 386 332 q 437 249 393 279 q 550 218 481 218 q 688 307 688 218 q 652 367 688 344 q 525 397 617 389 q 341 433 418 406 q 214 504 264 461 q 140 605 164 547 q 117 732 117 663 q 144 866 117 806 q 222 969 171 926 q 347 1036 274 1013 q 514 1060 421 1060 q 813 970 703 1060 q 938 728 924 881 l 649 728 z "},"T":{"ha":994,"x_min":51,"x_max":943,"o":"m 943 1042 l 943 788 l 646 788 l 646 0 l 347 0 l 347 788 l 51 788 l 51 1042 l 943 1042 z "},"U":{"ha":1126,"x_min":110,"x_max":1015,"o":"m 408 1042 l 408 431 q 447 286 408 339 q 563 233 485 233 q 680 286 642 233 q 718 431 718 339 l 718 1042 l 1015 1042 l 1015 451 q 987 258 1015 344 q 902 110 958 171 q 760 15 846 49 q 563 -18 675 -18 q 365 15 450 -18 q 223 108 279 47 q 138 256 167 168 q 110 451 110 343 l 110 1042 l 408 1042 z "},"V":{"ha":1122,"x_min":31,"x_max":1092,"o":"m 361 1042 l 556 306 l 758 1042 l 1092 1042 l 713 -3 l 392 -3 l 31 1042 l 361 1042 z "},"W":{"ha":1522,"x_min":32,"x_max":1490,"o":"m 347 1042 l 492 361 l 646 1042 l 890 1042 l 1047 361 l 1189 1042 l 1490 1042 l 1208 -3 l 888 -3 l 760 574 l 632 -3 l 310 -3 l 32 1042 l 347 1042 z "},"X":{"ha":1144,"x_min":49,"x_max":1094,"o":"m 408 1042 l 574 692 l 735 1042 l 1074 1042 l 789 522 l 1094 0 l 747 0 l 568 365 l 392 0 l 49 0 l 357 533 l 68 1042 l 408 1042 z "},"Y":{"ha":1094,"x_min":31,"x_max":1064,"o":"m 367 1042 l 550 592 l 738 1042 l 1064 1042 l 699 319 l 699 0 l 400 0 l 400 319 l 31 1042 l 367 1042 z "},"Z":{"ha":996,"x_min":79,"x_max":917,"o":"m 901 1042 l 901 828 l 440 251 l 917 251 l 917 0 l 79 0 l 79 213 l 539 789 l 96 789 l 96 1042 l 901 1042 z "},"[":{"ha":496,"x_min":82,"x_max":500,"o":"m 500 1042 l 500 806 l 343 806 l 343 -111 l 500 -111 l 500 -347 l 82 -347 l 82 1042 l 500 1042 z "},"\\":{"ha":625,"x_min":-25,"x_max":707,"o":"m 225 1085 l 707 -376 l 457 -376 l -25 1085 l 225 1085 z "},"]":{"ha":496,"x_min":-4,"x_max":414,"o":"m -4 -347 l -4 -111 l 153 -111 l 153 806 l -4 806 l -4 1042 l 414 1042 l 414 -347 l -4 -347 z "},"^":{"ha":731,"x_min":31,"x_max":700,"o":"m 383 1090 l 700 724 l 700 700 l 456 700 l 365 808 l 274 700 l 31 700 l 31 724 l 347 1090 l 383 1090 z "},"_":{"ha":624,"x_min":19,"x_max":603,"o":"m 603 -44 l 603 -281 l 19 -281 l 19 -44 l 603 -44 z "},"`":{"ha":361,"x_min":-26,"x_max":364,"o":"m 251 1042 l 364 806 l 90 806 l -26 1042 l 251 1042 z "},"a":{"ha":838,"x_min":50,"x_max":810,"o":"m 78 456 q 179 643 90 578 q 406 708 268 708 q 642 635 564 708 q 721 424 721 563 l 721 256 q 769 201 721 201 l 804 201 l 810 0 q 758 -9 786 -6 q 703 -12 731 -12 q 595 11 639 -12 q 532 88 551 35 q 444 13 500 39 q 296 -14 388 -14 q 116 40 182 -14 q 50 190 50 93 q 121 346 50 288 q 358 414 192 404 q 446 428 419 418 q 472 460 472 439 q 455 494 472 481 q 401 507 438 507 q 349 492 369 507 q 321 453 328 478 l 78 456 m 469 296 q 382 275 442 279 q 322 258 340 272 q 304 224 304 244 q 374 175 304 175 q 444 198 418 175 q 469 257 469 221 l 469 296 z "},"b":{"ha":860,"x_min":85,"x_max":810,"o":"m 354 1042 l 354 646 q 425 691 382 674 q 521 708 468 708 q 638 685 585 708 q 730 615 692 661 q 789 502 768 569 q 810 347 810 435 q 786 192 810 260 q 723 79 763 125 q 631 10 683 33 q 521 -14 579 -14 q 329 71 390 -14 l 329 0 l 85 0 l 85 1042 l 354 1042 m 350 347 q 376 251 350 285 q 447 218 403 218 q 518 251 492 218 q 544 347 544 283 q 519 444 544 413 q 449 476 493 476 q 377 445 404 476 q 350 347 350 414 z "},"c":{"ha":790,"x_min":50,"x_max":744,"o":"m 488 401 q 465 454 485 433 q 408 475 444 475 q 339 442 363 475 q 315 347 315 408 q 341 250 315 282 q 407 218 367 218 q 465 237 443 218 q 489 292 486 256 l 744 292 q 649 68 736 150 q 403 -14 561 -14 q 253 11 318 -14 q 142 83 188 36 q 74 197 97 131 q 50 347 50 264 q 75 493 50 426 q 146 608 100 560 q 257 682 192 656 q 404 708 322 708 q 542 685 481 708 q 645 622 603 663 q 713 524 688 581 q 742 401 738 468 l 488 401 z "},"d":{"ha":865,"x_min":50,"x_max":781,"o":"m 535 0 l 535 93 q 338 -14 474 -14 q 224 7 276 -14 q 133 72 171 28 q 72 185 94 117 q 50 347 50 253 q 72 505 50 438 q 134 617 94 572 q 228 685 174 663 q 347 708 282 708 q 510 639 450 708 l 510 1042 l 781 1042 l 781 0 l 535 0 m 515 347 q 488 444 515 413 q 415 476 460 476 q 343 445 371 476 q 315 347 315 414 q 341 251 315 285 q 414 218 367 218 q 487 251 458 218 q 515 347 515 285 z "},"e":{"ha":821,"x_min":50,"x_max":760,"o":"m 318 281 q 345 211 319 236 q 413 186 371 186 q 466 199 446 186 q 494 233 486 213 l 754 210 q 632 40 722 94 q 407 -14 542 -14 q 145 81 240 -14 q 50 347 50 175 q 75 494 50 428 q 147 608 100 560 q 261 682 194 656 q 410 708 328 708 q 558 683 493 708 q 669 610 624 657 q 737 499 714 564 q 760 354 760 433 l 760 281 l 318 281 m 492 424 q 469 483 490 460 q 410 507 449 507 q 347 483 369 507 q 321 424 324 460 l 492 424 z "},"f":{"ha":581,"x_min":36,"x_max":547,"o":"m 143 694 l 143 756 q 227 977 143 899 q 458 1056 311 1056 l 547 1056 l 547 818 l 493 818 q 433 796 453 818 q 413 738 413 774 l 413 694 l 547 694 l 547 481 l 413 481 l 413 0 l 143 0 l 143 481 l 36 481 l 36 694 l 143 694 z "},"g":{"ha":890,"x_min":47,"x_max":831,"o":"m 831 503 l 718 503 q 734 465 729 488 q 739 417 739 442 q 717 328 739 371 q 654 251 696 285 q 553 198 613 218 q 417 178 493 178 q 396 178 406 178 q 376 179 386 178 q 368 150 368 167 q 417 111 368 111 l 531 111 q 733 50 661 111 q 804 -119 804 -11 q 779 -227 804 -176 q 703 -316 754 -278 q 575 -377 651 -354 q 397 -400 499 -400 q 134 -333 221 -400 q 47 -150 47 -265 q 79 -40 47 -89 q 168 38 111 10 q 141 83 149 57 q 133 136 133 108 q 188 244 133 204 q 118 331 142 281 q 94 442 94 381 q 114 546 94 497 q 173 631 133 594 q 272 688 213 667 q 410 708 331 708 l 831 708 l 831 503 m 364 -75 q 319 -90 335 -75 q 303 -131 303 -106 q 329 -176 303 -160 q 411 -193 356 -193 q 517 -174 485 -193 q 550 -121 550 -154 q 535 -87 550 -100 q 493 -75 521 -75 l 364 -75 m 417 513 q 365 493 383 513 q 347 442 347 474 q 365 390 347 410 q 417 371 383 371 q 467 390 449 371 q 486 442 486 408 q 469 492 486 472 q 417 513 453 513 z "},"h":{"ha":879,"x_min":85,"x_max":800,"o":"m 354 1042 l 354 621 q 536 708 418 708 q 733 631 667 708 q 800 410 800 554 l 800 0 l 531 0 l 531 368 q 447 465 531 465 q 380 436 406 465 q 354 360 354 407 l 354 0 l 85 0 l 85 1042 l 354 1042 z "},"i":{"ha":440,"x_min":65,"x_max":374,"o":"m 354 694 l 354 0 l 85 0 l 85 694 l 354 694 m 219 1075 q 332 1035 290 1075 q 374 933 374 996 q 332 831 374 871 q 219 792 290 792 q 108 831 150 792 q 65 933 65 871 q 108 1035 65 996 q 219 1075 150 1075 z "},"j":{"ha":440,"x_min":-42,"x_max":374,"o":"m 354 694 l 354 -36 q 272 -276 354 -199 q 40 -354 190 -354 l -42 -354 l -42 -117 l -1 -117 q 61 -93 38 -117 q 85 -26 85 -69 l 85 694 l 354 694 m 219 1075 q 332 1035 290 1075 q 374 933 374 996 q 332 831 374 871 q 219 792 290 792 q 108 831 150 792 q 65 933 65 871 q 108 1035 65 996 q 219 1075 150 1075 z "},"k":{"ha":874,"x_min":85,"x_max":858,"o":"m 354 1042 l 354 451 l 517 694 l 829 694 l 583 397 l 858 0 l 557 0 l 415 224 l 354 168 l 354 0 l 85 0 l 85 1042 l 354 1042 z "},"l":{"ha":440,"x_min":85,"x_max":354,"o":"m 354 1042 l 354 0 l 85 0 l 85 1042 l 354 1042 z "},"m":{"ha":1275,"x_min":85,"x_max":1196,"o":"m 332 694 l 332 593 q 413 678 363 649 q 529 708 463 708 q 655 681 606 708 q 732 603 704 653 q 814 681 763 654 q 946 708 865 708 q 1136 631 1076 708 q 1196 411 1196 554 l 1196 0 l 926 0 l 926 382 q 854 465 926 465 q 798 442 819 465 q 776 378 776 418 l 776 0 l 507 0 l 507 382 q 490 444 507 422 q 435 465 474 465 q 376 439 397 465 q 354 369 354 413 l 354 0 l 85 0 l 85 694 l 332 694 z "},"n":{"ha":889,"x_min":85,"x_max":811,"o":"m 332 694 l 332 581 q 415 676 360 643 q 540 708 471 708 q 742 632 672 708 q 811 410 811 556 l 811 0 l 540 0 l 540 368 q 453 465 540 465 q 382 435 410 465 q 354 357 354 406 l 354 0 l 85 0 l 85 694 l 332 694 z "},"o":{"ha":825,"x_min":50,"x_max":775,"o":"m 413 708 q 558 684 492 708 q 673 614 625 660 q 748 501 721 568 q 775 347 775 433 q 748 195 775 263 q 673 81 721 128 q 558 10 625 35 q 413 -14 492 -14 q 267 10 333 -14 q 152 81 200 35 q 77 194 104 126 q 50 347 50 261 q 77 499 50 432 q 152 612 104 565 q 267 683 200 658 q 413 708 333 708 m 413 476 q 315 347 315 476 q 340 251 315 285 q 413 218 364 218 q 510 347 510 218 q 485 443 510 410 q 413 476 460 476 z "},"p":{"ha":865,"x_min":85,"x_max":815,"o":"m 331 694 l 331 601 q 528 708 392 708 q 640 688 588 708 q 732 622 693 667 q 793 510 771 578 q 815 347 815 442 q 793 189 815 257 q 731 76 771 121 q 638 8 692 31 q 518 -14 583 -14 q 354 53 417 -14 l 354 -347 l 85 -347 l 85 694 l 331 694 m 350 347 q 377 250 350 282 q 449 218 404 218 q 521 249 493 218 q 549 347 549 281 q 524 443 549 410 q 450 476 499 476 q 378 443 406 476 q 350 347 350 410 z "},"q":{"ha":860,"x_min":50,"x_max":774,"o":"m 774 694 l 774 -347 l 504 -347 l 504 47 q 433 2 476 18 q 340 -14 390 -14 q 222 10 275 -14 q 131 79 169 33 q 71 192 92 125 q 50 347 50 260 q 73 499 50 432 q 135 613 96 567 q 228 684 175 660 q 340 708 281 708 q 453 686 407 708 q 528 624 500 664 l 528 694 l 774 694 m 508 347 q 485 442 508 408 q 413 476 461 476 q 341 442 365 476 q 317 347 317 408 q 342 249 317 281 q 413 218 368 218 q 482 249 456 218 q 508 347 508 281 z "},"r":{"ha":597,"x_min":85,"x_max":556,"o":"m 328 694 l 328 581 q 406 675 356 643 q 521 707 456 707 l 556 707 l 556 463 l 476 463 q 389 427 422 463 q 356 336 356 392 l 356 0 l 85 0 l 85 694 l 328 694 z "},"s":{"ha":771,"x_min":51,"x_max":721,"o":"m 446 481 q 382 525 435 525 q 328 488 328 525 q 342 458 328 468 q 400 444 357 447 q 553 423 492 439 q 652 379 615 407 q 705 312 689 351 q 721 218 721 272 q 640 48 721 110 q 403 -14 558 -14 q 153 44 236 -14 q 51 214 71 103 l 325 214 q 400 168 343 168 q 463 211 463 168 q 447 242 463 231 q 385 257 431 254 q 240 277 299 261 q 144 322 181 293 q 90 392 107 351 q 74 485 74 432 q 92 573 74 532 q 149 644 111 614 q 245 692 188 675 q 381 708 303 708 q 617 647 536 708 q 708 481 697 586 l 446 481 z "},"t":{"ha":619,"x_min":43,"x_max":576,"o":"m 72 694 q 178 803 178 694 l 178 878 l 424 878 l 424 694 l 568 694 l 568 481 l 424 481 l 424 307 q 444 240 424 261 q 506 219 464 219 q 537 220 521 219 q 568 222 553 221 l 576 0 q 515 -10 549 -7 q 449 -14 481 -14 q 224 60 294 -14 q 154 275 154 135 l 154 481 l 43 481 l 43 694 l 72 694 z "},"u":{"ha":875,"x_min":78,"x_max":790,"o":"m 347 694 l 347 325 q 369 252 347 276 q 428 228 390 228 q 494 258 468 228 q 519 335 519 288 l 519 694 l 790 694 l 790 0 l 543 0 l 543 111 q 463 17 515 49 q 340 -14 411 -14 q 145 62 213 -14 q 78 285 78 138 l 78 694 l 347 694 z "},"v":{"ha":847,"x_min":26,"x_max":821,"o":"m 321 694 l 432 261 l 538 694 l 821 694 l 564 -1 l 285 -1 l 26 694 l 321 694 z "},"w":{"ha":1150,"x_min":26,"x_max":1124,"o":"m 300 694 l 388 264 l 486 694 l 668 694 l 778 264 l 851 694 l 1124 694 l 936 -1 l 661 -1 l 575 342 l 494 -1 l 221 -1 l 26 694 l 300 694 z "},"x":{"ha":883,"x_min":33,"x_max":850,"o":"m 354 694 l 443 481 l 533 694 l 829 694 l 643 357 l 850 0 l 546 0 l 436 236 l 333 0 l 33 0 l 238 358 l 57 694 l 354 694 z "},"y":{"ha":858,"x_min":26,"x_max":832,"o":"m 326 694 l 451 258 l 542 694 l 832 694 l 567 -93 q 517 -204 546 -157 q 450 -282 489 -251 q 360 -328 411 -312 q 243 -343 310 -343 q 199 -342 222 -343 q 151 -337 175 -340 l 164 -122 q 200 -124 182 -124 q 233 -125 218 -125 q 278 -111 258 -125 q 308 -69 299 -97 l 321 -31 l 26 694 l 326 694 z "},"z":{"ha":772,"x_min":71,"x_max":701,"o":"m 697 694 l 697 508 l 404 213 l 701 213 l 701 0 l 71 0 l 71 188 l 365 481 l 90 481 l 90 694 l 697 694 z "},"{":{"ha":507,"x_min":11,"x_max":511,"o":"m 511 806 l 478 806 q 406 776 431 806 q 381 700 381 747 l 381 508 q 358 408 381 450 q 292 347 336 367 q 358 285 336 328 q 381 185 381 243 l 381 -7 q 405 -83 381 -54 q 478 -111 429 -111 l 511 -111 l 511 -347 l 449 -347 q 300 -324 363 -347 q 197 -261 238 -301 q 138 -164 157 -221 q 119 -39 119 -107 l 119 142 q 97 206 119 185 q 40 228 75 228 l 11 228 l 11 465 l 40 465 q 97 488 75 465 q 119 553 119 510 l 119 732 q 138 858 119 800 q 197 956 157 915 q 300 1019 238 996 q 449 1042 363 1042 l 511 1042 l 511 806 z "},"|":{"ha":465,"x_min":100,"x_max":365,"o":"m 365 1042 l 365 -347 l 100 -347 l 100 1042 l 365 1042 z "},"}":{"ha":507,"x_min":-4,"x_max":496,"o":"m -4 -111 l 28 -111 q 101 -83 76 -111 q 126 -7 126 -54 l 126 185 q 149 285 126 243 q 214 347 171 328 q 149 408 171 367 q 126 508 126 450 l 126 700 q 101 776 126 747 q 28 806 76 806 l -4 806 l -4 1042 l 58 1042 q 207 1019 144 1042 q 309 955 269 996 q 367 857 349 914 q 386 732 386 800 l 386 553 q 408 488 386 510 q 465 465 429 465 l 496 465 l 496 228 l 465 228 q 408 206 429 228 q 386 142 386 185 l 386 -39 q 367 -164 386 -107 q 309 -261 349 -221 q 207 -324 269 -301 q 58 -347 144 -347 l -4 -347 l -4 -111 z "},"~":{"ha":761,"x_min":60,"x_max":700,"o":"m 700 471 q 645 275 700 344 q 490 206 590 206 q 427 215 451 206 q 384 235 403 224 q 350 256 365 247 q 315 265 335 265 q 286 254 296 265 q 276 224 276 243 l 60 224 q 115 419 60 349 q 269 489 169 489 q 334 480 308 489 q 378 459 360 471 q 410 438 396 447 q 444 429 425 429 q 474 440 464 429 q 483 471 483 451 l 700 471 z "},"¡":{"ha":431,"x_min":51,"x_max":379,"o":"m 81 -33 l 81 678 l 350 678 l 350 -33 l 81 -33 m 215 750 q 93 793 135 750 q 51 901 51 836 q 93 1010 51 967 q 215 1053 135 1053 q 338 1010 297 1053 q 379 901 379 967 q 338 793 379 836 q 215 750 296 750 z "},"¤":{"ha":757,"x_min":39,"x_max":717,"o":"m 379 790 q 488 769 439 790 l 581 861 l 717 724 l 622 629 q 634 582 629 606 q 639 532 639 558 q 634 480 639 504 q 622 433 629 456 l 717 339 l 581 201 l 489 292 q 379 272 439 272 q 267 293 317 272 l 175 201 l 39 339 l 135 435 q 119 532 119 481 q 135 626 119 581 l 39 724 l 175 861 l 268 768 q 379 790 321 790 m 379 606 q 328 585 346 606 q 310 532 310 564 q 328 478 310 499 q 379 457 346 457 q 430 478 411 457 q 449 532 449 500 q 430 585 449 564 q 379 606 411 606 z "},"¥":{"ha":1088,"x_min":31,"x_max":1057,"o":"m 365 1042 l 546 589 l 732 1042 l 1057 1042 l 817 565 l 918 565 l 918 371 l 175 371 l 175 565 l 271 565 l 31 1042 l 365 1042 m 694 106 l 694 0 l 397 0 l 397 106 l 210 106 l 210 300 l 883 300 l 883 106 l 694 106 z "},"¦":{"ha":465,"x_min":100,"x_max":365,"o":"m 365 292 l 365 -347 l 100 -347 l 100 292 l 365 292 m 365 1042 l 365 403 l 100 403 l 100 1042 l 365 1042 z "},"§":{"ha":829,"x_min":58,"x_max":771,"o":"m 771 518 q 747 406 771 453 q 682 328 722 360 q 719 257 706 296 q 732 174 732 218 q 711 61 732 113 q 649 -29 690 10 q 548 -90 608 -68 q 408 -111 488 -111 q 265 -91 326 -111 q 160 -33 203 -71 q 92 56 117 4 q 60 172 67 108 l 331 172 q 353 124 335 142 q 403 107 372 107 q 449 123 432 107 q 467 164 467 139 q 449 208 467 192 q 388 229 431 225 q 139 322 219 244 q 58 529 58 399 q 83 638 58 588 q 151 721 107 688 q 110 864 110 783 q 129 972 110 921 q 188 1060 149 1022 q 284 1119 226 1097 q 418 1140 342 1140 q 556 1120 497 1140 q 654 1064 614 1100 q 717 977 694 1028 q 746 865 739 926 l 489 865 q 468 907 486 892 q 422 922 450 922 q 363 869 363 922 q 436 807 363 815 q 690 715 608 789 q 771 518 771 640 m 378 588 q 335 596 356 589 q 327 565 329 581 q 325 535 325 550 q 352 476 325 494 q 449 453 379 457 q 470 451 460 451 q 492 447 481 450 q 504 508 504 474 q 476 561 504 543 q 378 588 447 579 z "},"¨":{"ha":697,"x_min":33,"x_max":664,"o":"m 169 1054 q 269 1019 232 1054 q 306 925 306 983 q 269 832 306 868 q 169 796 232 796 q 71 832 108 796 q 33 925 33 868 q 71 1019 33 983 q 169 1054 108 1054 m 526 1054 q 626 1019 589 1054 q 664 925 664 983 q 626 832 664 868 q 526 796 589 796 q 428 832 465 796 q 390 925 390 868 q 428 1019 390 983 q 526 1054 465 1054 z "},"©":{"ha":1360,"x_min":68,"x_max":1290,"o":"m 754 572 q 735 620 751 601 q 683 639 718 639 q 628 610 647 639 q 608 528 608 581 q 628 444 608 474 q 685 415 649 415 q 735 435 718 415 q 754 483 751 454 l 956 483 q 878 291 951 363 q 678 219 804 219 q 565 240 617 219 q 476 299 514 260 q 417 396 439 339 q 396 528 396 453 q 417 654 396 597 q 476 751 439 711 q 565 814 514 792 q 678 836 617 836 q 877 764 803 836 q 956 572 951 692 l 754 572 m 679 1138 q 925 1093 813 1138 q 1119 969 1038 1049 q 1245 776 1200 889 q 1290 528 1290 664 q 1244 278 1290 390 q 1117 85 1199 165 q 924 -39 1036 6 q 679 -83 813 -83 q 433 -39 546 -83 q 240 85 321 6 q 113 278 158 165 q 68 528 68 390 q 114 776 68 664 q 241 969 160 889 q 434 1093 322 1049 q 679 1138 546 1138 m 679 932 q 526 904 596 932 q 406 824 457 876 q 327 696 356 771 q 299 528 299 621 q 327 359 299 433 q 406 232 356 285 q 526 151 457 179 q 679 124 596 124 q 832 151 763 124 q 952 232 901 179 q 1031 359 1003 285 q 1060 528 1060 433 q 1031 694 1060 619 q 952 822 1003 769 q 832 903 901 875 q 679 932 763 932 z "},"«":{"ha":785,"x_min":44,"x_max":740,"o":"m 44 368 l 169 592 l 407 592 l 289 347 l 407 103 l 169 103 l 44 326 l 44 368 m 382 368 l 497 606 l 740 606 l 628 347 l 740 89 l 497 89 l 382 326 l 382 368 z "},"¬":{"ha":794,"x_min":68,"x_max":713,"o":"m 713 694 l 713 278 l 469 278 l 469 457 l 68 457 l 68 694 l 713 694 z "},"­":{"ha":731,"x_min":107,"x_max":624,"o":"m 624 482 l 624 242 l 107 242 l 107 482 l 624 482 z "},"®":{"ha":889,"x_min":39,"x_max":849,"o":"m 39 683 q 67 833 39 763 q 149 958 96 904 q 276 1042 201 1011 q 444 1074 351 1074 q 612 1042 538 1074 q 739 958 686 1011 q 820 834 792 906 q 849 683 849 763 q 820 533 849 604 q 739 408 792 461 q 611 324 686 356 q 444 293 536 293 q 276 324 351 293 q 149 408 201 354 q 67 532 96 461 q 39 683 39 603 m 281 492 l 419 492 l 419 589 l 457 589 l 497 492 l 657 492 l 583 631 q 631 733 631 665 q 589 838 631 796 q 457 879 547 879 l 281 879 l 281 492 m 450 761 q 490 728 490 761 q 450 693 490 693 l 419 693 l 419 761 l 450 761 z "},"¯":{"ha":575,"x_min":31,"x_max":544,"o":"m 544 1029 l 544 819 l 31 819 l 31 1029 l 544 1029 z "},"°":{"ha":585,"x_min":33,"x_max":551,"o":"m 292 1060 q 398 1041 350 1060 q 480 989 446 1022 q 533 908 514 956 q 551 804 551 861 q 533 699 551 746 q 480 618 514 651 q 398 567 446 585 q 292 549 350 549 q 188 567 235 549 q 106 618 140 585 q 53 699 72 651 q 33 804 33 746 q 53 908 33 861 q 107 989 72 956 q 189 1041 142 1022 q 292 1060 236 1060 m 292 881 q 244 860 261 881 q 226 804 226 840 q 244 748 226 768 q 292 728 261 728 q 341 748 324 728 q 358 804 358 768 q 341 860 358 840 q 292 881 324 881 z "},"±":{"ha":860,"x_min":82,"x_max":776,"o":"m 756 257 l 756 25 l 103 25 l 103 257 l 756 257 m 551 1028 l 551 790 l 776 790 l 776 558 l 551 558 l 551 331 l 308 331 l 308 558 l 82 558 l 82 790 l 308 790 l 308 1028 l 551 1028 z "},"´":{"ha":414,"x_min":58,"x_max":449,"o":"m 449 1042 l 332 806 l 58 806 l 171 1042 l 449 1042 z "},"¶":{"ha":750,"x_min":44,"x_max":703,"o":"m 158 -97 q 315 -33 264 -86 q 365 110 365 19 l 365 200 q 329 185 350 190 q 288 181 308 181 q 111 247 178 181 q 44 432 44 314 q 65 536 44 488 q 126 622 86 585 q 225 680 167 658 q 357 701 283 701 l 700 701 l 703 490 l 601 469 l 608 135 l 608 67 q 588 -79 608 -11 q 520 -201 568 -147 q 392 -293 472 -256 q 193 -344 313 -331 l 158 -97 m 332 468 q 299 455 311 468 q 286 422 286 442 q 326 378 286 378 q 365 421 365 378 l 365 468 l 332 468 z "},"·":{"ha":431,"x_min":57,"x_max":372,"o":"m 215 517 q 330 472 288 517 q 372 360 372 426 q 331 247 372 293 q 215 201 289 201 q 99 247 140 201 q 57 360 57 293 q 99 472 57 426 q 215 517 142 517 z "},"¸":{"ha":375,"x_min":33,"x_max":326,"o":"m 125 -61 q 274 -108 222 -61 q 326 -243 326 -156 q 264 -399 326 -331 q 83 -496 201 -467 l 33 -322 q 110 -293 86 -310 q 133 -257 133 -276 q 100 -228 133 -228 l 65 -228 l 65 -61 l 125 -61 z "},"»":{"ha":785,"x_min":44,"x_max":740,"o":"m 740 326 l 615 103 l 378 103 l 494 347 l 378 592 l 615 592 l 740 368 l 740 326 m 403 326 l 288 89 l 44 89 l 157 347 l 44 606 l 288 606 l 403 368 l 403 326 z "},"¿":{"ha":893,"x_min":49,"x_max":858,"o":"m 588 678 l 588 601 q 548 457 588 517 q 429 374 508 397 q 362 335 381 358 q 343 276 343 313 q 370 217 343 240 q 450 194 397 194 q 540 228 504 194 q 582 317 576 261 l 858 317 q 824 169 854 236 q 740 54 793 101 q 610 -21 686 6 q 436 -47 533 -47 q 270 -24 343 -47 q 149 42 197 0 q 74 141 100 83 q 49 267 49 199 q 101 445 49 376 q 249 542 153 514 q 301 580 285 553 q 318 643 318 607 l 318 678 l 588 678 m 453 750 q 331 793 372 750 q 289 901 289 836 q 330 1010 289 967 q 453 1053 371 1053 q 576 1010 535 1053 q 617 901 617 967 q 575 793 617 836 q 453 750 533 750 z "},"×":{"ha":811,"x_min":67,"x_max":743,"o":"m 236 867 l 406 699 l 574 867 l 743 697 l 575 529 l 743 360 l 574 190 l 406 358 l 236 190 l 67 360 l 235 529 l 67 697 l 236 867 z "},"Ø":{"ha":1138,"x_min":68,"x_max":1069,"o":"m 1057 1136 l 936 910 q 1035 742 1000 839 q 1069 521 1069 644 q 1033 297 1069 396 q 932 127 997 197 q 774 19 867 57 q 568 -18 682 -18 q 507 -15 536 -18 q 450 -7 478 -12 l 404 -94 l 82 -94 l 200 129 q 102 298 136 200 q 68 521 68 396 q 103 745 68 646 q 205 915 139 844 q 363 1022 271 985 q 568 1060 456 1060 q 688 1047 631 1060 l 735 1136 l 1057 1136 m 568 801 q 422 732 478 801 q 367 521 367 663 q 424 309 367 378 q 568 240 481 240 q 715 309 660 240 q 771 521 771 378 q 756 644 771 592 q 715 732 742 697 q 650 784 688 767 q 568 801 613 801 z "},"Þ":{"ha":1038,"x_min":117,"x_max":979,"o":"m 415 1042 l 415 915 l 551 915 q 731 889 651 915 q 866 813 811 863 q 950 692 921 764 q 979 531 979 621 q 949 365 979 436 q 865 244 919 293 q 731 171 810 196 q 551 146 651 146 l 415 146 l 415 0 l 117 0 l 117 1042 l 415 1042 m 415 397 l 531 397 q 642 431 604 397 q 681 531 681 464 q 642 630 681 597 q 531 663 604 663 l 415 663 l 415 397 z "},"ß":{"ha":1039,"x_min":96,"x_max":985,"o":"m 96 746 q 119 871 96 814 q 187 969 142 928 q 297 1035 232 1011 q 444 1058 361 1058 q 594 1038 529 1058 q 702 980 658 1017 q 768 892 746 943 q 790 782 790 842 q 774 704 790 733 q 739 653 758 675 q 703 609 719 631 q 688 554 688 588 q 704 516 688 529 q 757 496 721 503 q 927 410 869 476 q 985 243 985 344 q 965 134 985 182 q 907 53 944 86 q 817 3 869 21 q 700 -14 764 -14 q 499 44 574 -14 q 403 224 425 101 l 628 229 q 686 178 639 178 q 742 226 742 178 q 720 266 742 251 q 639 290 699 281 q 481 363 533 306 q 429 504 429 419 q 443 585 429 554 q 474 642 457 617 q 506 695 492 668 q 519 764 519 722 q 499 823 519 801 q 440 844 479 844 q 381 819 401 844 q 360 750 360 794 l 360 0 l 96 0 l 96 746 z "},"á":{"ha":838,"x_min":50,"x_max":810,"o":"m 78 456 q 179 643 90 578 q 406 708 268 708 q 642 635 564 708 q 721 424 721 563 l 721 256 q 769 201 721 201 l 804 201 l 810 0 q 758 -9 786 -6 q 703 -12 731 -12 q 595 11 639 -12 q 532 88 551 35 q 444 13 500 39 q 296 -14 388 -14 q 116 40 182 -14 q 50 190 50 93 q 121 346 50 288 q 358 414 192 404 q 446 428 419 418 q 472 460 472 439 q 455 494 472 481 q 401 507 438 507 q 349 492 369 507 q 321 453 328 478 l 78 456 m 469 296 q 382 275 442 279 q 322 258 340 272 q 304 224 304 244 q 374 175 304 175 q 444 198 418 175 q 469 257 469 221 l 469 296 m 657 1042 l 540 806 l 267 806 l 379 1042 l 657 1042 z "},"æ":{"ha":1224,"x_min":50,"x_max":1163,"o":"m 724 281 q 748 211 722 236 q 817 186 774 186 q 869 199 849 186 q 897 233 889 213 l 1157 210 q 1035 40 1125 94 q 811 -14 946 -14 q 554 78 646 -14 q 441 9 506 32 q 299 -14 376 -14 q 115 39 181 -14 q 50 189 50 92 q 121 345 50 286 q 358 414 192 404 q 446 429 419 418 q 472 460 472 440 q 455 494 472 481 q 401 507 438 507 q 348 492 368 507 q 321 453 328 476 l 78 456 q 110 564 83 517 q 179 643 136 611 q 279 692 222 675 q 406 708 336 708 q 611 642 540 708 q 829 708 699 708 q 974 683 911 708 q 1078 613 1036 658 q 1141 504 1119 568 q 1163 364 1163 440 l 1163 281 l 724 281 m 469 296 q 382 275 442 279 q 323 258 342 272 q 304 222 304 244 q 375 175 304 175 q 444 197 418 175 q 469 257 469 219 l 469 296 m 894 424 q 873 483 893 460 q 813 507 853 507 q 752 483 774 507 q 726 424 731 460 l 894 424 z "},"ð":{"ha":857,"x_min":57,"x_max":792,"o":"m 528 1085 l 478 982 q 710 761 629 900 q 792 424 792 622 q 761 227 792 310 q 678 91 731 144 q 558 12 626 38 q 411 -14 489 -14 q 264 9 329 -14 q 153 74 199 32 q 82 178 107 117 q 57 317 57 239 q 82 448 57 389 q 151 549 107 507 q 255 613 194 590 q 388 636 315 636 q 480 623 439 636 q 549 586 521 610 q 491 674 533 629 q 371 758 449 719 l 336 685 l 176 761 l 210 831 l 75 889 l 190 1124 l 319 1060 l 368 1163 l 528 1085 m 414 219 q 478 247 453 219 q 504 319 504 274 q 480 393 504 365 q 415 421 456 421 q 351 394 376 421 q 326 319 326 367 q 351 246 326 272 q 414 219 376 219 z "},"÷":{"ha":756,"x_min":82,"x_max":674,"o":"m 379 1014 q 484 973 446 1014 q 522 869 522 932 q 484 767 522 808 q 379 726 446 726 q 273 767 311 726 q 235 869 235 808 q 274 973 235 932 q 379 1014 313 1014 m 378 332 q 483 291 444 332 q 522 188 522 250 q 483 84 522 125 q 378 43 444 43 q 272 84 311 43 q 233 188 233 125 q 272 291 233 250 q 378 332 311 332 m 674 656 l 674 403 l 82 403 l 82 656 l 674 656 z "},"ø":{"ha":825,"x_min":43,"x_max":782,"o":"m 782 775 l 683 601 q 751 492 726 556 q 775 347 775 428 q 748 195 775 263 q 673 81 721 128 q 558 10 625 35 q 413 -14 492 -14 q 376 -12 393 -14 q 343 -8 360 -11 l 303 -81 l 43 -81 l 139 93 q 73 203 96 139 q 50 347 50 267 q 77 499 50 432 q 152 612 104 565 q 267 683 200 658 q 413 708 333 708 q 447 707 431 708 q 481 703 464 706 l 521 775 l 782 775 m 413 476 q 315 347 315 476 q 340 251 315 285 q 413 218 364 218 q 510 347 510 218 q 485 443 510 410 q 413 476 460 476 z "},"þ":{"ha":865,"x_min":85,"x_max":815,"o":"m 354 631 q 426 689 385 669 q 528 708 467 708 q 640 688 588 708 q 732 622 693 667 q 793 510 771 578 q 815 347 815 442 q 793 189 815 257 q 731 76 771 121 q 638 8 692 31 q 518 -14 583 -14 q 354 53 415 -14 l 354 -347 l 85 -347 l 85 1042 l 354 1042 l 354 631 m 350 347 q 377 250 350 282 q 449 218 404 218 q 521 249 493 218 q 549 347 549 281 q 524 443 549 410 q 450 476 499 476 q 378 443 406 476 q 350 347 350 410 z "},"œ":{"ha":1294,"x_min":50,"x_max":1233,"o":"m 413 708 q 549 684 489 708 q 650 618 608 660 q 755 685 694 661 q 894 708 815 708 q 1038 683 975 708 q 1145 613 1101 658 q 1211 504 1189 568 q 1233 364 1233 440 l 1233 281 l 793 281 q 818 211 792 236 q 886 186 844 186 q 940 199 919 186 q 969 233 960 213 l 1229 210 q 1106 40 1196 94 q 881 -14 1015 -14 q 744 9 801 -14 q 646 75 688 32 q 544 9 601 32 q 413 -14 486 -14 q 267 10 333 -14 q 152 81 200 35 q 77 194 104 126 q 50 347 50 261 q 77 499 50 432 q 152 612 104 565 q 267 683 200 658 q 413 708 333 708 m 413 476 q 315 347 315 476 q 340 251 315 285 q 413 218 364 218 q 510 347 510 218 q 485 443 510 410 q 413 476 460 476 m 965 424 q 944 483 964 460 q 883 507 924 507 q 821 483 843 507 q 794 424 799 460 l 965 424 z "},"ˆ":{"ha":585,"x_min":-1,"x_max":585,"o":"m 317 1113 l 585 822 l 585 803 l 353 803 l 292 869 l 231 803 l -1 803 l -1 822 l 267 1113 l 317 1113 z "},"ˇ":{"ha":585,"x_min":-1,"x_max":585,"o":"m 231 1072 l 292 1007 l 353 1072 l 585 1072 l 585 1053 l 317 764 l 267 764 l -1 1053 l -1 1072 l 231 1072 z "},"˘":{"ha":589,"x_min":31,"x_max":558,"o":"m 240 1054 l 240 1033 q 255 994 240 1010 q 294 979 269 979 q 333 994 318 979 q 347 1033 347 1010 l 347 1054 l 558 1054 l 558 1031 q 540 926 558 974 q 486 846 521 879 q 403 794 451 813 q 294 776 354 776 q 188 795 236 776 q 104 847 139 814 q 50 927 69 881 q 31 1031 31 974 l 31 1054 l 240 1054 z "},"˙":{"ha":356,"x_min":24,"x_max":331,"o":"m 178 1075 q 289 1035 247 1075 q 331 933 331 996 q 289 831 331 871 q 178 792 247 792 q 65 831 107 792 q 24 933 24 871 q 65 1035 24 996 q 178 1075 107 1075 z "},"˚":{"ha":432,"x_min":7,"x_max":425,"o":"m 215 1172 q 299 1157 261 1172 q 365 1115 338 1142 q 409 1051 393 1088 q 425 972 425 1015 q 409 892 425 929 q 365 828 393 856 q 299 786 338 801 q 215 771 261 771 q 131 786 169 771 q 65 828 93 801 q 22 892 38 856 q 7 972 7 929 q 22 1051 7 1015 q 65 1115 38 1088 q 131 1157 93 1142 q 215 1172 169 1172 m 215 1013 q 187 1001 197 1013 q 176 972 176 989 q 187 942 176 953 q 215 931 197 931 q 244 942 233 931 q 254 972 254 953 q 244 1001 254 990 q 215 1013 233 1013 z "},"˛":{"ha":357,"x_min":14,"x_max":296,"o":"m 288 0 q 242 -22 257 -4 q 228 -62 228 -39 q 245 -107 228 -90 q 296 -124 263 -124 l 296 -329 q 85 -269 157 -329 q 14 -97 14 -210 q 42 -2 14 -46 q 117 63 69 42 l 288 0 z "},"˜":{"ha":596,"x_min":14,"x_max":581,"o":"m 581 1039 q 531 861 581 926 q 388 796 481 796 q 323 805 346 796 q 285 826 300 814 q 258 847 269 838 q 228 856 246 856 q 192 815 192 856 l 14 815 q 65 993 14 928 q 207 1058 115 1058 q 272 1049 249 1058 q 310 1029 294 1040 q 336 1009 325 1018 q 367 1000 347 1000 q 403 1039 403 1000 l 581 1039 z "},"˝":{"ha":549,"x_min":-42,"x_max":589,"o":"m 285 1042 l 175 806 l -42 806 l 50 1042 l 285 1042 m 589 1042 l 463 806 l 246 806 l 358 1042 l 589 1042 z "},"Ё":{"ha":1006,"x_min":117,"x_max":913,"o":"m 889 1042 l 889 796 l 415 796 l 415 636 l 846 636 l 846 411 l 415 411 l 415 246 l 913 246 l 913 0 l 117 0 l 117 1042 l 889 1042 m 300 1443 q 409 1402 368 1443 q 450 1299 450 1361 q 409 1196 450 1236 q 300 1156 368 1156 q 193 1196 233 1156 q 153 1299 153 1236 q 193 1402 153 1361 q 300 1443 233 1443 m 731 1443 q 840 1402 799 1443 q 881 1299 881 1361 q 840 1196 881 1236 q 731 1156 799 1156 q 624 1196 664 1156 q 583 1299 583 1236 q 624 1402 583 1361 q 731 1443 664 1443 z "},"Ђ":{"ha":1247,"x_min":51,"x_max":1182,"o":"m 942 1042 l 942 797 l 619 797 l 619 625 q 831 697 696 697 q 976 674 911 697 q 1088 604 1042 650 q 1158 492 1133 558 q 1182 343 1182 426 l 1182 114 q 1084 -185 1182 -87 q 808 -282 986 -282 q 743 -281 775 -282 q 682 -275 711 -279 l 703 -25 q 745 -28 726 -28 q 781 -28 764 -28 q 864 3 833 -28 q 894 106 894 35 l 894 322 q 860 424 894 388 q 760 460 826 460 q 656 421 693 460 q 619 318 619 382 l 619 0 l 322 0 l 322 797 l 51 797 l 51 1042 l 942 1042 z "},"Ѓ":{"ha":949,"x_min":117,"x_max":893,"o":"m 893 1042 l 893 788 l 415 788 l 415 0 l 117 0 l 117 1042 l 893 1042 m 749 1290 l 286 1138 l 286 1407 l 749 1560 l 749 1290 z "},"Є":{"ha":1103,"x_min":68,"x_max":1032,"o":"m 654 418 l 378 418 q 444 283 396 326 q 563 240 492 240 q 678 278 636 240 q 728 383 721 317 l 1032 383 q 988 210 1024 285 q 892 85 953 136 q 748 8 832 33 q 561 -18 664 -18 q 351 19 443 -18 q 197 127 260 57 q 101 297 133 197 q 68 521 68 396 q 103 742 68 643 q 201 913 138 842 q 356 1022 265 983 q 561 1060 447 1060 q 890 957 768 1060 q 1028 668 1011 854 l 726 668 q 677 764 718 728 q 563 800 636 800 q 445 759 492 800 q 379 632 399 718 l 654 632 l 654 418 z "},"Ѕ":{"ha":1047,"x_min":79,"x_max":968,"o":"m 649 728 q 608 797 643 771 q 515 824 574 824 q 428 801 457 824 q 400 743 400 779 q 431 683 400 704 q 540 656 463 663 q 742 619 660 646 q 874 551 824 593 q 946 453 924 510 q 968 325 968 396 q 941 187 968 250 q 860 78 914 124 q 726 7 806 32 q 542 -18 646 -18 q 216 75 333 -18 q 79 332 99 168 l 386 332 q 437 249 393 279 q 550 218 481 218 q 688 307 688 218 q 652 367 688 344 q 525 397 617 389 q 341 433 418 406 q 214 504 264 461 q 140 605 164 547 q 117 732 117 663 q 144 866 117 806 q 222 969 171 926 q 347 1036 274 1013 q 514 1060 421 1060 q 813 970 703 1060 q 938 728 924 881 l 649 728 z "},"І":{"ha":532,"x_min":117,"x_max":415,"o":"m 415 1042 l 415 0 l 117 0 l 117 1042 l 415 1042 z "},"Ї":{"ha":532,"x_min":-39,"x_max":575,"o":"m 415 1042 l 415 0 l 117 0 l 117 1042 l 415 1042 m 99 1443 q 200 1402 163 1443 q 238 1299 238 1361 q 200 1196 238 1236 q 99 1156 163 1156 q -1 1196 36 1156 q -39 1299 -39 1236 q -1 1402 -39 1361 q 99 1443 36 1443 m 436 1443 q 538 1402 500 1443 q 575 1299 575 1361 q 538 1196 575 1236 q 436 1156 500 1156 q 336 1196 374 1156 q 299 1299 299 1236 q 336 1402 299 1361 q 436 1443 374 1443 z "},"Ј":{"ha":714,"x_min":58,"x_max":604,"o":"m 604 1042 l 604 410 q 500 91 604 200 q 182 -18 396 -18 q 119 -16 150 -18 q 58 -11 88 -14 l 68 238 q 108 235 88 236 q 151 235 129 235 q 263 278 219 235 q 307 410 307 321 l 307 1042 l 604 1042 z "},"Љ":{"ha":1667,"x_min":47,"x_max":1607,"o":"m 1071 1042 l 1071 733 l 1208 733 q 1374 710 1300 733 q 1499 640 1447 686 q 1579 524 1551 593 q 1607 367 1607 456 q 1579 216 1607 283 q 1500 101 1551 149 q 1375 26 1449 53 q 1208 0 1301 0 l 774 0 l 774 789 l 535 789 l 535 414 q 453 93 535 201 q 200 -15 371 -15 q 121 -12 158 -15 q 47 -1 83 -10 l 63 246 q 121 242 93 242 q 216 284 183 242 q 249 421 249 326 l 249 1042 l 1071 1042 m 1071 251 l 1179 251 q 1278 282 1247 251 q 1310 367 1310 313 q 1278 452 1310 422 q 1179 482 1246 482 l 1071 482 l 1071 251 z "},"Њ":{"ha":1628,"x_min":117,"x_max":1568,"o":"m 415 1042 l 415 647 l 735 647 l 735 1042 l 1032 1042 l 1032 733 l 1169 733 q 1335 710 1261 733 q 1460 640 1408 686 q 1540 524 1513 593 q 1568 367 1568 456 q 1540 216 1568 283 q 1461 101 1513 149 q 1336 26 1410 53 q 1169 0 1263 0 l 735 0 l 735 396 l 415 396 l 415 0 l 117 0 l 117 1042 l 415 1042 m 1032 251 l 1140 251 q 1240 282 1208 251 q 1271 367 1271 313 q 1239 452 1271 422 q 1140 482 1207 482 l 1032 482 l 1032 251 z "},"Ћ":{"ha":1247,"x_min":51,"x_max":1182,"o":"m 942 1042 l 942 797 l 619 797 l 619 625 q 713 678 658 660 q 832 697 768 697 q 1089 606 996 697 q 1182 343 1182 514 l 1182 0 l 894 0 l 894 322 q 861 423 894 386 q 761 460 828 460 q 657 421 694 460 q 619 318 619 382 l 619 0 l 322 0 l 322 797 l 51 797 l 51 1042 l 942 1042 z "},"Ќ":{"ha":1144,"x_min":117,"x_max":1046,"o":"m 1046 0 q 986 -8 1017 -6 q 917 -11 956 -11 q 714 58 779 -11 q 635 260 649 128 q 593 367 628 335 q 497 400 558 400 l 415 400 l 415 0 l 117 0 l 117 1042 l 415 1042 l 415 651 l 492 651 q 584 691 549 651 q 626 814 619 731 q 702 988 636 924 q 892 1053 768 1053 q 958 1050 926 1053 q 1018 1042 990 1047 l 1011 796 q 992 798 1001 797 q 971 799 982 799 q 903 769 926 799 q 871 681 879 739 q 843 598 864 632 q 792 546 822 564 q 856 490 831 528 q 890 393 882 451 q 925 278 901 314 q 992 243 949 243 q 1018 244 1007 243 q 1039 246 1029 244 l 1046 0 m 804 1290 l 342 1138 l 342 1407 l 804 1560 l 804 1290 z "},"Џ":{"ha":1153,"x_min":117,"x_max":1036,"o":"m 415 1042 l 415 251 l 738 251 l 738 1042 l 1036 1042 l 1036 0 l 710 0 l 710 -207 l 443 -207 l 443 0 l 117 0 l 117 1042 l 415 1042 z "},"А":{"ha":1147,"x_min":32,"x_max":1115,"o":"m 736 1044 l 1115 0 l 796 0 l 744 178 l 406 178 l 353 0 l 32 0 l 425 1044 l 736 1044 m 475 411 l 678 411 l 579 758 l 475 411 z "},"Б":{"ha":1040,"x_min":117,"x_max":979,"o":"m 903 1042 l 903 796 l 414 796 l 414 653 l 597 653 q 884 567 789 653 q 979 326 979 482 q 881 87 979 174 q 586 0 783 0 l 117 0 l 117 1042 l 903 1042 m 414 246 l 576 246 q 660 270 633 246 q 688 339 688 294 q 576 432 688 432 l 414 432 l 414 246 z "},"В":{"ha":1058,"x_min":117,"x_max":982,"o":"m 571 1042 q 736 1020 667 1042 q 851 960 806 999 q 919 868 897 922 q 942 749 942 814 q 915 627 942 679 q 838 547 889 575 q 943 462 904 519 q 982 315 982 404 q 960 188 982 246 q 891 88 939 129 q 767 23 843 46 q 585 0 692 0 l 117 0 l 117 1042 l 571 1042 m 411 244 l 579 244 q 663 267 639 244 q 686 331 686 290 q 662 394 686 372 q 579 417 638 417 l 411 417 l 411 244 m 411 636 l 561 636 q 627 658 606 636 q 649 717 649 681 q 628 774 649 753 q 558 796 607 796 l 411 796 l 411 636 z "},"Г":{"ha":951,"x_min":117,"x_max":893,"o":"m 893 1042 l 893 788 l 415 788 l 415 0 l 117 0 l 117 1042 l 893 1042 z "},"Д":{"ha":1244,"x_min":51,"x_max":1193,"o":"m 1063 1042 l 1063 251 l 1193 251 l 1193 -207 l 929 -207 l 922 0 l 324 0 l 317 -207 l 51 -207 l 51 251 l 135 251 q 216 371 186 293 q 246 556 246 449 l 246 1042 l 1063 1042 m 532 789 l 532 542 q 514 379 532 454 q 463 251 496 304 l 765 251 l 765 789 l 532 789 z "},"Е":{"ha":1006,"x_min":117,"x_max":913,"o":"m 889 1042 l 889 796 l 415 796 l 415 636 l 846 636 l 846 411 l 415 411 l 415 246 l 913 246 l 913 0 l 117 0 l 117 1042 l 889 1042 z "},"Ж":{"ha":1585,"x_min":54,"x_max":1529,"o":"m 85 1042 q 200 1053 132 1053 q 483 801 454 1053 q 523 685 494 719 q 596 651 551 651 l 649 651 l 649 1042 l 936 1042 l 936 651 l 988 651 q 1062 685 1033 651 q 1100 801 1090 719 q 1383 1053 1129 1053 q 1499 1042 1451 1053 l 1492 801 q 1465 804 1476 804 q 1440 804 1453 804 q 1335 681 1351 804 q 1265 546 1322 581 q 1358 393 1339 508 q 1399 288 1369 318 q 1479 258 1428 258 q 1499 258 1489 258 q 1518 260 1508 258 l 1529 0 q 1394 -11 1469 -11 q 1199 49 1268 -11 q 1111 242 1131 110 q 1068 365 1097 329 q 990 400 1039 400 l 936 400 l 936 0 l 649 0 l 649 400 l 594 400 q 515 365 544 400 q 472 242 485 329 q 384 49 453 110 q 189 -11 315 -11 q 118 -8 153 -11 q 54 0 83 -6 l 65 260 q 85 258 75 258 q 106 258 94 258 q 185 288 156 258 q 225 393 214 318 q 318 546 244 508 q 272 597 288 564 q 250 681 257 631 q 215 774 243 743 q 143 804 186 804 q 119 804 131 804 q 92 801 107 804 l 85 1042 z "},"З":{"ha":1036,"x_min":60,"x_max":967,"o":"m 542 638 q 632 722 632 638 q 604 789 632 764 q 517 814 576 814 q 412 783 449 814 q 365 697 375 753 l 89 697 q 131 851 97 783 q 222 965 165 918 q 356 1035 278 1011 q 529 1060 433 1060 q 704 1035 629 1060 q 830 967 779 1010 q 906 867 881 924 q 931 746 931 810 q 904 631 931 681 q 832 554 878 582 q 933 460 900 521 q 967 318 967 400 q 938 181 967 243 q 852 74 908 118 q 715 6 796 31 q 529 -18 633 -18 q 198 85 314 -18 q 60 363 82 188 l 358 363 q 526 226 383 226 q 631 255 593 226 q 668 332 668 283 q 643 398 668 376 q 564 419 618 419 l 431 419 l 431 638 l 542 638 z "},"И":{"ha":1165,"x_min":117,"x_max":1047,"o":"m 411 1042 l 411 451 l 751 1042 l 1047 1042 l 1047 0 l 753 0 l 753 589 l 413 0 l 117 0 l 117 1042 l 411 1042 z "},"Й":{"ha":1165,"x_min":117,"x_max":1047,"o":"m 411 1042 l 411 451 l 751 1042 l 1047 1042 l 1047 0 l 753 0 l 753 589 l 413 0 l 117 0 l 117 1042 l 411 1042 m 507 1449 l 507 1419 q 526 1365 507 1383 q 581 1346 546 1346 q 636 1365 617 1346 q 656 1419 656 1383 l 656 1449 l 899 1449 l 899 1419 q 815 1207 899 1282 q 581 1132 731 1132 q 451 1151 510 1132 q 351 1208 393 1171 q 285 1298 308 1244 q 263 1419 263 1351 l 263 1449 l 507 1449 z "},"К":{"ha":1144,"x_min":117,"x_max":1046,"o":"m 1046 0 q 986 -8 1017 -6 q 917 -11 956 -11 q 714 58 779 -11 q 635 260 649 128 q 593 367 628 335 q 497 400 558 400 l 415 400 l 415 0 l 117 0 l 117 1042 l 415 1042 l 415 651 l 492 651 q 584 691 549 651 q 626 814 619 731 q 702 988 636 924 q 892 1053 768 1053 q 958 1050 926 1053 q 1018 1042 990 1047 l 1011 796 q 992 798 1001 797 q 971 799 982 799 q 903 769 926 799 q 871 681 879 739 q 843 598 864 632 q 792 546 822 564 q 856 490 831 528 q 890 393 882 451 q 925 278 901 314 q 992 243 949 243 q 1018 244 1007 243 q 1039 246 1029 244 l 1046 0 z "},"Л":{"ha":1199,"x_min":46,"x_max":1082,"o":"m 1082 1042 l 1082 0 l 783 0 l 783 789 l 531 789 l 531 414 q 449 94 531 201 q 197 -14 367 -14 q 118 -11 156 -14 q 46 0 81 -8 l 60 247 q 90 244 75 244 q 117 243 104 243 q 212 285 179 243 q 244 421 244 326 l 244 1042 l 1082 1042 z "},"М":{"ha":1406,"x_min":117,"x_max":1288,"o":"m 471 1042 l 703 403 l 928 1042 l 1288 1042 l 1288 0 l 996 0 l 996 581 l 797 0 l 597 0 l 399 581 l 399 0 l 117 0 l 117 1042 l 471 1042 z "},"Н":{"ha":1164,"x_min":117,"x_max":1046,"o":"m 415 1042 l 415 650 l 749 650 l 749 1042 l 1046 1042 l 1046 0 l 749 0 l 749 393 l 415 393 l 415 0 l 117 0 l 117 1042 l 415 1042 z "},"О":{"ha":1138,"x_min":68,"x_max":1069,"o":"m 568 1060 q 774 1022 682 1060 q 933 915 867 985 q 1034 745 999 844 q 1069 521 1069 646 q 1033 297 1069 396 q 932 127 997 197 q 774 19 867 57 q 568 -18 682 -18 q 362 19 454 -18 q 204 126 269 57 q 103 296 139 196 q 68 521 68 396 q 103 745 68 646 q 205 915 139 844 q 363 1022 271 985 q 568 1060 456 1060 m 568 801 q 422 732 478 801 q 367 521 367 663 q 424 309 367 378 q 568 240 481 240 q 715 309 660 240 q 771 521 771 378 q 756 644 771 592 q 715 732 742 697 q 650 784 688 767 q 568 801 613 801 z "},"П":{"ha":1151,"x_min":117,"x_max":1033,"o":"m 1033 1042 l 1033 0 l 736 0 l 736 789 l 415 789 l 415 0 l 117 0 l 117 1042 l 1033 1042 z "},"Р":{"ha":1046,"x_min":117,"x_max":988,"o":"m 558 1042 q 739 1015 660 1042 q 874 940 818 989 q 958 819 929 890 q 988 657 988 747 q 873 371 988 469 q 558 272 758 272 l 415 272 l 415 0 l 117 0 l 117 1042 l 558 1042 m 415 524 l 538 524 q 651 558 613 524 q 689 657 689 592 q 538 789 689 789 l 415 789 l 415 524 z "},"С":{"ha":1113,"x_min":68,"x_max":1042,"o":"m 726 638 q 678 756 719 713 q 563 800 636 800 q 426 732 475 800 q 376 521 376 664 q 427 308 376 376 q 563 240 478 240 q 679 285 636 240 q 729 414 722 331 l 1042 414 q 997 233 1033 313 q 899 97 960 153 q 753 12 838 42 q 567 -18 669 -18 q 354 19 447 -18 q 198 127 261 57 q 101 297 135 197 q 68 521 68 396 q 102 744 68 644 q 200 915 136 844 q 356 1022 264 985 q 567 1060 449 1060 q 751 1031 668 1060 q 896 947 835 1001 q 993 815 957 893 q 1038 638 1029 736 l 726 638 z "},"Т":{"ha":994,"x_min":51,"x_max":943,"o":"m 943 1042 l 943 788 l 646 788 l 646 0 l 347 0 l 347 788 l 51 788 l 51 1042 l 943 1042 z "},"У":{"ha":1072,"x_min":32,"x_max":1039,"o":"m 371 1042 l 572 575 l 721 1042 l 1039 1042 l 719 261 q 571 49 658 111 q 356 -14 483 -14 q 278 -11 315 -14 q 210 -3 242 -8 l 222 244 q 313 240 269 240 q 406 294 386 240 l 415 322 l 32 1042 l 371 1042 z "},"Ф":{"ha":1349,"x_min":63,"x_max":1286,"o":"m 821 1060 l 821 946 l 867 946 q 1035 917 958 946 q 1168 835 1113 889 q 1255 706 1224 782 q 1286 533 1286 629 q 1253 359 1286 436 q 1164 229 1221 282 q 1031 148 1107 176 q 867 119 954 119 l 821 119 l 821 0 l 528 0 l 528 119 l 482 119 q 312 148 389 119 q 179 230 235 176 q 93 360 124 283 q 63 532 63 436 q 95 706 63 629 q 185 836 128 783 q 318 917 242 889 q 482 946 394 946 l 528 946 l 528 1060 l 821 1060 m 821 369 l 847 369 q 949 409 910 369 q 988 533 988 449 q 947 658 988 619 q 847 696 907 696 l 821 696 l 821 369 m 528 696 l 501 696 q 399 656 438 696 q 361 532 361 617 q 401 408 361 446 q 501 369 440 369 l 528 369 l 528 696 z "},"Х":{"ha":1144,"x_min":49,"x_max":1094,"o":"m 408 1042 l 574 692 l 735 1042 l 1074 1042 l 789 522 l 1094 0 l 747 0 l 568 365 l 392 0 l 49 0 l 357 533 l 68 1042 l 408 1042 z "},"Ц":{"ha":1201,"x_min":117,"x_max":1153,"o":"m 415 1042 l 415 251 l 726 251 l 726 1042 l 1024 1042 l 1024 251 l 1153 251 l 1153 -207 l 888 -207 l 881 0 l 117 0 l 117 1042 l 415 1042 z "},"Ч":{"ha":1101,"x_min":81,"x_max":985,"o":"m 378 1042 l 378 703 q 418 576 378 624 q 529 528 458 528 q 645 572 604 528 q 686 690 686 615 l 686 1042 l 985 1042 l 985 0 l 686 0 l 686 339 q 582 290 639 306 q 463 275 525 275 q 306 301 376 275 q 185 378 235 326 q 108 508 135 431 q 81 692 81 586 l 81 1042 l 378 1042 z "},"Ш":{"ha":1531,"x_min":117,"x_max":1413,"o":"m 404 1042 l 404 251 l 621 251 l 621 1042 l 908 1042 l 908 251 l 1125 251 l 1125 1042 l 1413 1042 l 1413 0 l 117 0 l 117 1042 l 404 1042 z "},"Щ":{"ha":1585,"x_min":117,"x_max":1536,"o":"m 404 1042 l 404 251 l 621 251 l 621 1042 l 908 1042 l 908 251 l 1125 251 l 1125 1042 l 1413 1042 l 1413 251 l 1536 251 l 1536 -207 l 1271 -207 l 1264 0 l 117 0 l 117 1042 l 404 1042 z "},"Ъ":{"ha":1146,"x_min":33,"x_max":1086,"o":"m 549 1042 l 549 733 l 685 733 q 851 709 776 733 q 977 638 925 685 q 1058 524 1029 592 q 1086 367 1086 456 q 1058 216 1086 283 q 978 101 1031 149 q 852 26 926 53 q 685 0 778 0 l 250 0 l 250 789 l 33 789 l 33 1042 l 549 1042 m 549 251 l 658 251 q 758 282 726 251 q 789 367 789 313 q 757 452 789 422 q 658 482 725 482 l 549 482 l 549 251 z "},"Ы":{"ha":1464,"x_min":117,"x_max":1347,"o":"m 1347 1042 l 1347 0 l 1049 0 l 1049 1042 l 1347 1042 m 415 1042 l 415 733 l 549 733 q 714 710 640 733 q 840 640 788 686 q 919 524 892 593 q 947 367 947 456 q 919 216 947 283 q 840 101 892 149 q 715 26 789 53 q 549 0 642 0 l 117 0 l 117 1042 l 415 1042 m 415 251 l 519 251 q 618 282 588 251 q 649 367 649 313 q 617 452 649 422 q 519 482 586 482 l 415 482 l 415 251 z "},"Ь":{"ha":1032,"x_min":117,"x_max":971,"o":"m 415 1042 l 415 733 l 572 733 q 738 709 664 733 q 863 638 811 685 q 943 524 915 592 q 971 367 971 456 q 943 217 971 285 q 864 101 915 149 q 739 26 813 53 q 572 0 665 0 l 117 0 l 117 1042 l 415 1042 m 415 251 l 543 251 q 642 282 610 251 q 674 367 674 313 q 642 452 674 422 q 543 482 610 482 l 415 482 l 415 251 z "},"Э":{"ha":1111,"x_min":75,"x_max":1042,"o":"m 725 632 q 667 765 710 724 q 551 806 624 806 q 436 769 479 806 q 382 674 393 733 l 92 674 q 138 833 101 761 q 233 954 174 904 q 374 1032 293 1004 q 554 1060 454 1060 q 763 1022 672 1060 q 916 915 854 985 q 1010 746 978 846 q 1042 521 1042 646 q 1009 296 1042 396 q 914 126 976 196 q 760 19 851 57 q 550 -18 668 -18 q 220 86 339 -18 q 75 378 101 190 l 378 378 q 432 273 390 311 q 549 235 474 235 q 665 278 619 235 q 725 418 710 321 l 476 418 l 476 632 l 725 632 z "},"Ю":{"ha":1531,"x_min":117,"x_max":1461,"o":"m 993 1060 q 1193 1023 1106 1060 q 1340 917 1281 986 q 1430 747 1399 847 q 1461 521 1461 647 q 1430 294 1461 394 q 1339 125 1399 194 q 1192 19 1279 56 q 993 -18 1104 -18 q 683 90 799 -18 q 539 396 567 197 l 415 396 l 415 0 l 117 0 l 117 1042 l 415 1042 l 415 647 l 539 647 q 590 818 553 742 q 683 948 626 894 q 818 1031 740 1001 q 993 1060 896 1060 m 993 801 q 869 733 914 801 q 824 521 824 664 q 868 309 824 378 q 993 240 913 240 q 1119 309 1075 240 q 1164 521 1164 378 q 1119 733 1164 664 q 993 801 1074 801 z "},"Я":{"ha":1096,"x_min":74,"x_max":979,"o":"m 88 246 q 113 244 100 244 q 138 243 125 243 q 194 260 172 243 q 229 318 217 278 q 290 396 247 374 q 164 519 208 442 q 119 692 119 596 q 147 831 119 767 q 227 941 174 894 q 360 1015 281 988 q 547 1042 440 1042 l 979 1042 l 979 0 l 681 0 l 681 300 l 601 300 q 489 201 504 300 q 403 40 471 93 q 219 -12 335 -12 q 74 0 140 -12 l 88 246 m 550 789 q 451 756 486 789 q 417 665 417 722 q 452 574 417 606 q 551 542 488 542 l 681 542 l 681 789 l 550 789 z "},"а":{"ha":838,"x_min":50,"x_max":810,"o":"m 78 456 q 179 643 90 578 q 406 708 268 708 q 642 635 564 708 q 721 424 721 563 l 721 256 q 769 201 721 201 l 804 201 l 810 0 q 758 -9 786 -6 q 703 -12 731 -12 q 595 11 639 -12 q 532 88 551 35 q 444 13 500 39 q 296 -14 388 -14 q 116 40 182 -14 q 50 190 50 93 q 121 346 50 288 q 358 414 192 404 q 446 428 419 418 q 472 460 472 439 q 455 494 472 481 q 401 507 438 507 q 349 492 369 507 q 321 453 328 478 l 78 456 m 469 296 q 382 275 442 279 q 322 258 340 272 q 304 224 304 244 q 374 175 304 175 q 444 198 418 175 q 469 257 469 221 l 469 296 z "},"б":{"ha":865,"x_min":65,"x_max":806,"o":"m 783 1060 l 783 972 q 731 807 783 869 q 575 731 679 744 l 451 714 q 371 672 401 707 q 333 581 340 636 q 413 624 365 611 q 510 638 461 638 q 628 617 574 638 q 722 557 682 597 q 783 458 761 517 q 806 322 806 399 q 778 181 806 243 q 703 75 751 118 q 589 9 656 32 q 442 -14 522 -14 q 163 99 261 -14 q 65 438 65 213 q 90 635 65 547 q 158 788 114 724 q 267 893 203 853 q 408 949 331 933 l 494 964 q 547 1026 547 975 l 547 1060 l 783 1060 m 446 443 q 378 410 404 443 q 353 319 353 378 q 378 228 353 260 q 446 197 404 197 q 514 228 489 197 q 539 319 539 258 q 515 413 539 382 q 446 443 490 443 z "},"в":{"ha":789,"x_min":85,"x_max":747,"o":"m 454 694 q 658 640 594 694 q 721 501 721 585 q 704 420 721 456 q 657 365 688 385 q 724 303 701 343 q 747 210 747 263 q 678 56 747 113 q 457 0 610 0 l 85 0 l 85 694 l 454 694 m 339 182 l 431 182 q 496 229 496 182 q 431 278 496 278 l 339 278 l 339 182 m 339 421 l 418 421 q 460 432 444 421 q 475 465 475 443 q 418 513 475 513 l 339 513 l 339 421 z "},"г":{"ha":718,"x_min":85,"x_max":674,"o":"m 674 694 l 674 481 l 354 481 l 354 0 l 85 0 l 85 694 l 674 694 z "},"д":{"ha":924,"x_min":29,"x_max":894,"o":"m 800 694 l 800 213 l 894 213 l 894 -149 l 658 -149 l 651 0 l 272 0 l 265 -149 l 29 -149 l 29 213 l 88 213 q 171 406 171 268 l 171 694 l 800 694 m 415 481 l 415 371 q 381 213 415 274 l 529 213 l 529 481 l 415 481 z "},"е":{"ha":821,"x_min":50,"x_max":760,"o":"m 318 281 q 345 211 319 236 q 413 186 371 186 q 466 199 446 186 q 494 233 486 213 l 754 210 q 632 40 722 94 q 407 -14 542 -14 q 145 81 240 -14 q 50 347 50 175 q 75 494 50 428 q 147 608 100 560 q 261 682 194 656 q 410 708 328 708 q 558 683 493 708 q 669 610 624 657 q 737 499 714 564 q 760 354 760 433 l 760 281 l 318 281 m 492 424 q 469 483 490 460 q 410 507 449 507 q 347 483 369 507 q 321 424 324 460 l 492 424 z "},"ж":{"ha":1164,"x_min":42,"x_max":1122,"o":"m 64 694 q 103 700 81 697 q 151 703 126 703 q 300 664 251 703 q 358 547 349 625 q 379 476 365 497 q 424 456 393 456 l 453 456 l 453 694 l 711 694 l 711 456 l 740 456 q 784 476 768 456 q 804 546 800 496 q 860 663 811 622 q 1008 704 908 704 q 1058 701 1033 704 q 1100 694 1082 699 l 1094 497 l 1071 497 q 1003 435 1013 497 q 957 368 996 388 q 1002 331 985 357 q 1022 275 1019 306 q 1049 215 1028 235 q 1099 196 1071 196 l 1118 196 l 1122 0 q 1025 -10 1082 -10 q 869 38 919 -10 q 810 171 818 85 q 786 233 806 214 q 740 251 767 251 l 711 251 l 711 0 l 453 0 l 453 251 l 429 251 q 378 229 397 251 q 349 150 358 207 q 285 31 336 72 q 136 -10 233 -10 q 42 0 81 -10 l 46 196 l 65 196 q 115 215 93 196 q 142 275 136 235 q 213 368 150 347 q 174 395 185 378 q 160 435 163 413 q 137 483 153 468 q 93 497 121 497 l 69 497 l 64 694 z "},"з":{"ha":774,"x_min":40,"x_max":722,"o":"m 383 421 q 443 472 443 421 q 427 510 443 496 q 375 525 411 525 q 317 505 339 525 q 290 450 296 485 l 56 456 q 157 642 72 575 q 399 708 242 708 q 533 690 476 708 q 625 642 589 672 q 678 575 661 613 q 696 499 696 538 q 633 365 696 407 q 700 308 678 347 q 722 217 722 268 q 703 124 722 167 q 643 51 683 82 q 542 3 603 21 q 399 -14 482 -14 q 151 47 243 -14 q 40 242 60 108 l 281 247 q 317 188 289 208 q 381 168 344 168 q 464 225 464 168 q 396 278 464 278 l 326 278 l 326 421 l 383 421 z "},"и":{"ha":881,"x_min":85,"x_max":796,"o":"m 536 0 l 536 336 l 335 0 l 85 0 l 85 694 l 344 694 l 344 357 l 546 694 l 796 694 l 796 0 l 536 0 z "},"й":{"ha":881,"x_min":85,"x_max":796,"o":"m 536 0 l 536 336 l 335 0 l 85 0 l 85 694 l 344 694 l 344 357 l 546 694 l 796 694 l 796 0 l 536 0 m 386 1054 l 386 1033 q 401 994 386 1010 q 440 979 415 979 q 478 994 464 979 q 493 1033 493 1010 l 493 1054 l 704 1054 l 704 1031 q 685 926 704 974 q 632 846 667 879 q 549 794 597 813 q 440 776 500 776 q 333 795 382 776 q 250 847 285 814 q 196 927 215 881 q 176 1031 176 974 l 176 1054 l 386 1054 z "},"к":{"ha":874,"x_min":85,"x_max":801,"o":"m 801 0 q 682 -11 753 -11 q 533 37 582 -11 q 474 169 483 85 q 406 251 464 251 l 354 251 l 354 0 l 85 0 l 85 694 l 354 694 l 354 456 l 401 456 q 447 476 429 456 q 469 536 465 496 q 526 660 478 615 q 671 704 575 704 q 731 701 701 704 q 783 694 760 699 l 776 497 l 743 497 q 699 482 714 497 q 676 438 683 467 q 629 368 668 390 q 692 278 679 346 q 767 196 708 196 l 796 196 l 801 0 z "},"л":{"ha":882,"x_min":15,"x_max":796,"o":"m 796 694 l 796 0 l 526 0 l 526 481 l 396 481 l 396 304 q 330 63 396 138 q 121 -11 264 -11 q 64 -8 89 -11 q 15 0 39 -6 l 26 206 q 44 204 36 204 q 61 204 51 204 q 128 228 104 204 q 151 314 151 253 l 151 694 l 796 694 z "},"м":{"ha":1094,"x_min":85,"x_max":1008,"o":"m 428 694 l 551 338 l 671 694 l 1008 694 l 1008 0 l 763 0 l 763 363 l 631 0 l 461 0 l 331 363 l 331 0 l 85 0 l 85 694 l 428 694 z "},"н":{"ha":885,"x_min":85,"x_max":800,"o":"m 354 694 l 354 456 l 531 456 l 531 694 l 800 694 l 800 0 l 531 0 l 531 242 l 354 242 l 354 0 l 85 0 l 85 694 l 354 694 z "},"о":{"ha":825,"x_min":50,"x_max":775,"o":"m 413 708 q 558 684 492 708 q 673 614 625 660 q 748 501 721 568 q 775 347 775 433 q 748 195 775 263 q 673 81 721 128 q 558 10 625 35 q 413 -14 492 -14 q 267 10 333 -14 q 152 81 200 35 q 77 194 104 126 q 50 347 50 261 q 77 499 50 432 q 152 612 104 565 q 267 683 200 658 q 413 708 333 708 m 413 476 q 315 347 315 476 q 340 251 315 285 q 413 218 364 218 q 510 347 510 218 q 485 443 510 410 q 413 476 460 476 z "},"п":{"ha":878,"x_min":85,"x_max":792,"o":"m 792 694 l 792 0 l 522 0 l 522 481 l 354 481 l 354 0 l 85 0 l 85 694 l 792 694 z "},"р":{"ha":865,"x_min":85,"x_max":815,"o":"m 331 694 l 331 601 q 528 708 392 708 q 640 688 588 708 q 732 622 693 667 q 793 510 771 578 q 815 347 815 442 q 793 189 815 257 q 731 76 771 121 q 638 8 692 31 q 518 -14 583 -14 q 354 53 417 -14 l 354 -347 l 85 -347 l 85 694 l 331 694 m 350 347 q 377 250 350 282 q 449 218 404 218 q 521 249 493 218 q 549 347 549 281 q 524 443 549 410 q 450 476 499 476 q 378 443 406 476 q 350 347 350 410 z "},"с":{"ha":790,"x_min":50,"x_max":744,"o":"m 488 401 q 465 454 485 433 q 408 475 444 475 q 339 442 363 475 q 315 347 315 408 q 341 250 315 282 q 407 218 367 218 q 465 237 443 218 q 489 292 486 256 l 744 292 q 649 68 736 150 q 403 -14 561 -14 q 253 11 318 -14 q 142 83 188 36 q 74 197 97 131 q 50 347 50 264 q 75 493 50 426 q 146 608 100 560 q 257 682 192 656 q 404 708 322 708 q 542 685 481 708 q 645 622 603 663 q 713 524 688 581 q 742 401 738 468 l 488 401 z "},"т":{"ha":701,"x_min":26,"x_max":675,"o":"m 675 694 l 675 479 l 486 479 l 486 0 l 215 0 l 215 479 l 26 479 l 26 694 l 675 694 z "},"у":{"ha":858,"x_min":26,"x_max":832,"o":"m 326 694 l 451 258 l 542 694 l 832 694 l 567 -93 q 517 -204 546 -157 q 450 -282 489 -251 q 360 -328 411 -312 q 243 -343 310 -343 q 199 -342 222 -343 q 151 -337 175 -340 l 164 -122 q 200 -124 182 -124 q 233 -125 218 -125 q 278 -111 258 -125 q 308 -69 299 -97 l 321 -31 l 26 694 l 326 694 z "},"ф":{"ha":1207,"x_min":50,"x_max":1156,"o":"m 732 1042 l 732 644 q 796 692 760 676 q 881 708 832 708 q 994 688 943 708 q 1081 622 1044 667 q 1136 510 1117 578 q 1156 347 1156 442 q 1080 75 1156 164 q 874 -14 1004 -14 q 732 50 786 -14 l 732 -347 l 474 -347 l 474 50 q 325 -14 419 -14 q 212 7 263 -14 q 125 72 161 28 q 69 184 89 115 q 50 347 50 253 q 126 619 50 531 q 332 708 203 708 q 474 644 422 708 l 474 1042 l 732 1042 m 728 347 q 749 249 728 281 q 811 218 769 218 q 897 347 897 218 q 811 475 897 475 q 749 442 769 475 q 728 347 728 410 m 478 347 q 394 475 478 475 q 310 347 310 475 q 394 218 310 218 q 457 251 436 218 q 478 347 478 285 z "},"х":{"ha":883,"x_min":33,"x_max":850,"o":"m 354 694 l 443 481 l 533 694 l 829 694 l 643 357 l 850 0 l 546 0 l 436 236 l 333 0 l 33 0 l 238 358 l 57 694 l 354 694 z "},"ц":{"ha":910,"x_min":85,"x_max":882,"o":"m 354 694 l 354 213 l 518 213 l 518 694 l 788 694 l 788 213 l 882 213 l 882 -149 l 646 -149 l 639 0 l 85 0 l 85 694 l 354 694 z "},"ч":{"ha":844,"x_min":57,"x_max":760,"o":"m 326 694 l 326 443 q 348 378 326 399 q 407 358 369 358 q 468 381 446 358 q 490 447 490 403 l 490 694 l 760 694 l 760 0 l 490 0 l 490 183 q 356 146 433 146 q 138 222 218 146 q 57 451 57 299 l 57 694 l 326 694 z "},"ш":{"ha":1219,"x_min":85,"x_max":1133,"o":"m 343 694 l 343 213 l 481 213 l 481 694 l 739 694 l 739 213 l 875 213 l 875 694 l 1133 694 l 1133 0 l 85 0 l 85 694 l 343 694 z "},"щ":{"ha":1257,"x_min":85,"x_max":1229,"o":"m 343 694 l 343 213 l 481 213 l 481 694 l 739 694 l 739 213 l 875 213 l 875 694 l 1133 694 l 1133 213 l 1229 213 l 1229 -149 l 993 -149 l 986 0 l 85 0 l 85 694 l 343 694 z "},"ъ":{"ha":818,"x_min":13,"x_max":793,"o":"m 414 694 l 414 515 l 508 515 q 717 449 642 515 q 793 263 793 382 q 774 157 793 206 q 719 74 756 108 q 630 19 683 39 q 508 0 576 0 l 150 0 l 150 481 l 13 481 l 13 694 l 414 694 m 414 203 l 467 203 q 533 263 533 203 q 467 322 533 322 l 414 322 l 414 203 z "},"ы":{"ha":1131,"x_min":85,"x_max":1046,"o":"m 1046 694 l 1046 0 l 775 0 l 775 694 l 1046 694 m 354 694 l 354 515 l 429 515 q 638 449 563 515 q 714 263 714 383 q 695 156 714 204 q 640 74 676 108 q 551 19 604 39 q 429 0 497 0 l 85 0 l 85 694 l 354 694 m 354 203 l 397 203 q 465 263 465 203 q 397 322 465 322 l 354 322 l 354 203 z "},"ь":{"ha":765,"x_min":85,"x_max":740,"o":"m 354 694 l 354 515 l 456 515 q 664 449 588 515 q 740 263 740 382 q 722 157 740 206 q 666 74 703 108 q 576 19 629 39 q 456 0 524 0 l 85 0 l 85 694 l 354 694 m 354 203 l 414 203 q 481 263 481 203 q 463 307 481 292 q 414 322 446 322 l 354 322 l 354 203 z "},"э":{"ha":794,"x_min":43,"x_max":743,"o":"m 57 450 q 96 556 67 508 q 168 638 125 604 q 268 690 211 672 q 392 708 325 708 q 542 682 476 708 q 652 608 607 656 q 720 493 697 560 q 743 347 743 426 q 719 197 743 264 q 651 83 696 131 q 541 11 607 36 q 392 -14 475 -14 q 157 52 244 -14 q 43 253 69 118 l 289 256 q 321 205 296 224 q 382 186 346 186 q 451 208 422 186 q 492 278 481 229 l 335 278 l 335 424 l 490 424 q 450 488 478 468 q 382 507 422 507 q 324 490 347 507 q 293 444 300 472 l 57 450 z "},"ю":{"ha":1131,"x_min":85,"x_max":1079,"o":"m 350 694 l 350 443 l 417 443 q 525 638 442 568 q 740 708 608 708 q 990 615 900 708 q 1079 347 1079 521 q 989 81 1079 175 q 740 -14 899 -14 q 526 52 607 -14 q 417 240 444 118 l 350 240 l 350 0 l 85 0 l 85 694 l 350 694 m 740 476 q 661 347 661 476 q 680 251 661 283 q 740 218 699 218 q 801 250 783 218 q 819 347 819 282 q 800 443 819 410 q 740 476 781 476 z "},"я":{"ha":811,"x_min":47,"x_max":725,"o":"m 725 0 l 456 0 l 456 186 l 417 186 q 358 117 372 186 q 297 20 347 53 q 161 -12 246 -12 q 47 0 97 -12 l 54 175 l 90 175 q 142 210 132 175 q 157 242 146 226 q 185 265 168 257 q 103 335 133 286 q 72 458 72 385 q 93 555 72 511 q 153 630 114 599 q 245 678 192 661 q 365 694 299 694 l 725 694 l 725 0 m 393 482 q 329 425 329 482 q 347 383 329 397 q 393 369 365 369 l 456 369 l 456 482 l 393 482 z "},"ё":{"ha":821,"x_min":50,"x_max":760,"o":"m 318 281 q 345 211 319 236 q 413 186 371 186 q 466 199 446 186 q 494 233 486 213 l 754 210 q 632 40 722 94 q 407 -14 542 -14 q 145 81 240 -14 q 50 347 50 175 q 75 494 50 428 q 147 608 100 560 q 261 682 194 656 q 410 708 328 708 q 558 683 493 708 q 669 610 624 657 q 737 499 714 564 q 760 354 760 433 l 760 281 l 318 281 m 492 424 q 469 483 490 460 q 410 507 449 507 q 347 483 369 507 q 321 424 324 460 l 492 424 m 238 1054 q 337 1019 300 1054 q 374 925 374 983 q 337 832 374 868 q 238 796 300 796 q 139 832 176 796 q 101 925 101 868 q 139 1019 101 983 q 238 1054 176 1054 m 594 1054 q 694 1019 657 1054 q 732 925 732 983 q 694 832 732 868 q 594 796 657 796 q 496 832 533 796 q 458 925 458 868 q 496 1019 458 983 q 594 1054 533 1054 z "},"ђ":{"ha":893,"x_min":8,"x_max":814,"o":"m 368 1060 l 368 954 l 551 954 l 551 765 l 368 765 l 368 621 q 550 708 432 708 q 747 631 681 708 q 814 410 814 554 l 814 3 q 732 -237 814 -160 q 500 -315 650 -315 l 429 -315 l 429 -78 l 458 -78 q 521 -54 497 -78 q 544 13 544 -31 l 544 368 q 461 465 544 465 q 394 436 419 465 q 368 360 368 407 l 368 0 l 99 0 l 99 765 l 8 765 l 8 954 l 99 954 l 99 1060 l 368 1060 z "},"ѓ":{"ha":718,"x_min":85,"x_max":674,"o":"m 674 694 l 674 481 l 354 481 l 354 0 l 85 0 l 85 694 l 674 694 m 625 1042 l 508 806 l 235 806 l 347 1042 l 625 1042 z "},"є":{"ha":794,"x_min":50,"x_max":747,"o":"m 458 276 l 313 276 q 349 210 324 233 q 410 186 374 186 q 471 204 447 186 q 501 254 494 222 l 747 249 q 644 56 732 125 q 404 -14 557 -14 q 142 83 235 -14 q 50 347 50 179 q 75 493 50 426 q 146 608 100 560 q 257 682 192 656 q 404 708 322 708 q 638 635 554 708 q 740 444 721 563 l 497 438 q 469 488 492 469 q 410 507 446 507 q 313 422 335 507 l 458 422 l 458 276 z "},"ѕ":{"ha":771,"x_min":51,"x_max":721,"o":"m 446 481 q 382 525 435 525 q 328 488 328 525 q 342 458 328 468 q 400 444 357 447 q 553 423 492 439 q 652 379 615 407 q 705 312 689 351 q 721 218 721 272 q 640 48 721 110 q 403 -14 558 -14 q 153 44 236 -14 q 51 214 71 103 l 325 214 q 400 168 343 168 q 463 211 463 168 q 447 242 463 231 q 385 257 431 254 q 240 277 299 261 q 144 322 181 293 q 90 392 107 351 q 74 485 74 432 q 92 573 74 532 q 149 644 111 614 q 245 692 188 675 q 381 708 303 708 q 617 647 536 708 q 708 481 697 586 l 446 481 z "},"і":{"ha":440,"x_min":65,"x_max":374,"o":"m 354 694 l 354 0 l 85 0 l 85 694 l 354 694 m 219 1075 q 332 1035 290 1075 q 374 933 374 996 q 332 831 374 871 q 219 792 290 792 q 108 831 150 792 q 65 933 65 871 q 108 1035 65 996 q 219 1075 150 1075 z "},"ї":{"ha":440,"x_min":-61,"x_max":503,"o":"m 354 694 l 354 0 l 85 0 l 85 694 l 354 694 m 64 1053 q 156 1017 122 1053 q 190 924 190 981 q 156 830 190 865 q 64 794 121 794 q -27 830 7 794 q -61 924 -61 865 q -27 1017 -61 981 q 64 1053 7 1053 m 376 1053 q 469 1017 435 1053 q 503 924 503 981 q 469 830 503 865 q 376 794 435 794 q 285 830 319 794 q 251 924 251 865 q 285 1017 251 981 q 376 1053 319 1053 z "},"ј":{"ha":440,"x_min":-42,"x_max":374,"o":"m 354 694 l 354 -36 q 272 -276 354 -199 q 40 -354 190 -354 l -42 -354 l -42 -117 l -1 -117 q 61 -93 38 -117 q 85 -26 85 -69 l 85 694 l 354 694 m 219 1075 q 332 1035 290 1075 q 374 933 374 996 q 332 831 374 871 q 219 792 290 792 q 108 831 150 792 q 65 933 65 871 q 108 1035 65 996 q 219 1075 150 1075 z "},"љ":{"ha":1168,"x_min":15,"x_max":1143,"o":"m 774 694 l 774 515 l 869 515 q 1070 449 997 515 q 1143 263 1143 382 q 1125 157 1143 206 q 1073 74 1107 108 q 988 19 1039 39 q 869 0 936 0 l 514 0 l 514 481 l 385 481 l 385 304 q 324 66 385 143 q 121 -11 263 -11 q 64 -8 89 -11 q 15 0 39 -6 l 26 206 q 43 204 35 204 q 61 204 51 204 q 128 228 104 204 q 151 314 151 253 l 151 694 l 774 694 m 774 203 l 828 203 q 875 217 857 203 q 893 263 893 232 q 828 322 893 322 l 774 322 l 774 203 z "},"њ":{"ha":1174,"x_min":85,"x_max":1149,"o":"m 344 694 l 344 451 l 519 451 l 519 694 l 779 694 l 779 515 l 875 515 q 1076 449 1003 515 q 1149 263 1149 382 q 1131 157 1149 206 q 1078 74 1113 108 q 993 19 1044 39 q 875 0 942 0 l 519 0 l 519 238 l 344 238 l 344 0 l 85 0 l 85 694 l 344 694 m 779 203 l 833 203 q 881 219 863 203 q 899 263 899 235 q 833 322 899 322 l 779 322 l 779 203 z "},"ћ":{"ha":893,"x_min":8,"x_max":814,"o":"m 99 954 l 99 1060 l 368 1060 l 368 954 l 551 954 l 551 765 l 368 765 l 368 621 q 550 708 432 708 q 747 631 681 708 q 814 410 814 554 l 814 0 l 544 0 l 544 368 q 461 465 544 465 q 394 436 419 465 q 368 360 368 407 l 368 0 l 99 0 l 99 765 l 8 765 l 8 954 l 99 954 z "},"ќ":{"ha":874,"x_min":85,"x_max":801,"o":"m 801 0 q 682 -11 753 -11 q 533 37 582 -11 q 474 169 483 85 q 406 251 464 251 l 354 251 l 354 0 l 85 0 l 85 694 l 354 694 l 354 456 l 401 456 q 447 476 429 456 q 469 536 465 496 q 526 660 478 615 q 671 704 575 704 q 731 701 701 704 q 783 694 760 699 l 776 497 l 743 497 q 699 482 714 497 q 676 438 683 467 q 629 368 668 390 q 692 278 679 346 q 767 196 708 196 l 796 196 l 801 0 m 678 1042 l 561 806 l 288 806 l 400 1042 l 678 1042 z "},"џ":{"ha":875,"x_min":85,"x_max":789,"o":"m 354 694 l 354 214 l 519 214 l 519 694 l 789 694 l 789 0 l 561 0 l 561 -149 l 313 -149 l 313 0 l 85 0 l 85 694 l 354 694 z "},"Ґ":{"ha":951,"x_min":117,"x_max":893,"o":"m 615 1042 l 625 1278 l 893 1278 l 893 788 l 415 788 l 415 0 l 117 0 l 117 1042 l 615 1042 z "},"ґ":{"ha":707,"x_min":85,"x_max":664,"o":"m 419 694 l 426 861 l 664 861 l 664 481 l 354 481 l 354 0 l 85 0 l 85 694 l 419 694 z "},"–":{"ha":1015,"x_min":135,"x_max":881,"o":"m 881 482 l 881 242 l 135 242 l 135 482 l 881 482 z "},"—":{"ha":1383,"x_min":163,"x_max":1221,"o":"m 1221 482 l 1221 242 l 163 242 l 163 482 l 1221 482 z "},"‘":{"ha":406,"x_min":57,"x_max":349,"o":"m 346 940 q 278 917 303 936 q 250 869 253 899 q 323 823 297 858 q 349 733 349 788 q 310 631 349 672 q 206 590 272 590 q 97 635 136 590 q 57 754 57 681 q 74 877 57 821 q 128 976 92 933 q 218 1044 164 1018 q 346 1076 272 1071 l 346 940 z "},"’":{"ha":406,"x_min":57,"x_max":349,"o":"m 60 708 q 128 731 103 713 q 156 779 153 750 q 83 826 108 790 q 57 915 57 861 q 95 1017 57 976 q 200 1058 133 1058 q 309 1013 269 1058 q 349 894 349 968 q 331 772 349 828 q 278 673 314 715 q 188 604 242 631 q 60 572 133 578 l 60 708 z "},"‚":{"ha":406,"x_min":57,"x_max":349,"o":"m 60 -79 q 128 -56 103 -75 q 156 -8 153 -37 q 83 38 108 3 q 57 128 57 74 q 95 230 57 189 q 200 271 133 271 q 309 226 269 271 q 349 107 349 181 q 331 -16 349 40 q 278 -115 314 -72 q 188 -183 242 -157 q 60 -215 133 -210 l 60 -79 z "},"“":{"ha":735,"x_min":56,"x_max":678,"o":"m 675 940 q 607 917 632 935 q 579 869 582 899 q 652 823 626 858 q 678 733 678 788 q 640 631 678 672 q 535 590 601 590 q 426 635 465 590 q 386 754 386 681 q 403 876 386 821 q 457 974 421 932 q 547 1043 493 1017 q 675 1076 601 1069 l 675 940 m 346 942 q 278 918 303 937 q 250 869 253 899 q 323 823 297 858 q 349 733 349 788 q 310 631 349 672 q 206 590 272 590 q 96 635 136 590 q 56 754 56 681 q 74 877 56 821 q 128 976 92 933 q 218 1044 164 1018 q 346 1078 272 1071 l 346 942 z "},"”":{"ha":735,"x_min":57,"x_max":679,"o":"m 60 708 q 128 732 103 714 q 156 779 153 750 q 83 826 108 790 q 57 915 57 861 q 95 1017 57 976 q 200 1058 133 1058 q 309 1013 269 1058 q 349 894 349 968 q 331 772 349 828 q 278 674 314 717 q 188 606 242 632 q 60 572 133 579 l 60 708 m 389 707 q 457 731 432 711 q 485 779 482 750 q 412 826 438 790 q 386 915 386 861 q 424 1017 386 976 q 529 1058 463 1058 q 639 1013 599 1058 q 679 894 679 968 q 661 772 679 828 q 607 673 643 715 q 517 604 571 631 q 389 571 463 578 l 389 707 z "},"„":{"ha":735,"x_min":57,"x_max":679,"o":"m 60 -79 q 128 -56 103 -74 q 156 -8 153 -37 q 83 38 108 3 q 57 128 57 74 q 95 230 57 189 q 200 271 133 271 q 309 226 269 271 q 349 107 349 181 q 331 -15 349 40 q 278 -113 314 -71 q 188 -182 242 -156 q 60 -215 133 -208 l 60 -79 m 389 -81 q 457 -57 432 -76 q 485 -8 482 -37 q 412 38 438 3 q 386 128 386 74 q 424 230 386 189 q 529 271 463 271 q 639 226 599 271 q 679 107 679 181 q 661 -16 679 40 q 607 -115 643 -72 q 517 -183 571 -157 q 389 -217 463 -210 l 389 -81 z "},"†":{"ha":733,"x_min":51,"x_max":682,"o":"m 510 878 l 510 694 l 682 694 l 682 453 l 510 453 l 510 0 l 224 0 l 224 453 l 51 453 l 51 694 l 224 694 l 224 878 l 510 878 z "},"‡":{"ha":733,"x_min":51,"x_max":682,"o":"m 510 878 l 510 715 l 682 715 l 682 494 l 510 494 l 510 383 l 682 383 l 682 163 l 510 163 l 510 0 l 224 0 l 224 163 l 51 163 l 51 383 l 224 383 l 224 494 l 51 494 l 51 715 l 224 715 l 224 878 l 510 878 z "},"•":{"ha":572,"x_min":104,"x_max":467,"o":"m 286 539 q 418 487 369 539 q 467 357 467 435 q 454 286 467 319 q 418 228 442 253 q 361 190 394 204 q 286 176 328 176 q 211 190 244 176 q 154 228 178 204 q 117 286 131 253 q 104 357 104 319 q 153 487 104 435 q 286 539 203 539 z "},"…":{"ha":1174,"x_min":57,"x_max":1115,"o":"m 215 304 q 330 259 288 304 q 372 147 372 214 q 331 35 372 81 q 215 -11 289 -11 q 99 35 140 -11 q 57 147 57 81 q 99 259 57 214 q 215 304 142 304 m 958 304 q 1073 259 1031 304 q 1115 147 1115 214 q 1074 35 1115 81 q 958 -11 1032 -11 q 842 35 883 -11 q 800 147 800 81 q 842 259 800 214 q 958 304 885 304 m 588 304 q 702 259 660 304 q 744 147 744 214 q 703 35 744 81 q 588 -11 661 -11 q 471 35 513 -11 q 429 147 429 81 q 472 259 429 214 q 588 304 514 304 z "},"‹":{"ha":497,"x_min":44,"x_max":444,"o":"m 44 368 l 189 608 l 444 608 l 301 347 l 444 85 l 189 85 l 44 326 l 44 368 z "},"›":{"ha":497,"x_min":53,"x_max":453,"o":"m 453 326 l 307 85 l 53 85 l 194 347 l 53 608 l 307 608 l 453 368 l 453 326 z "},"€":{"ha":1172,"x_min":72,"x_max":1099,"o":"m 649 486 l 638 319 l 471 319 q 534 251 494 274 q 626 229 574 229 q 743 272 703 229 q 789 393 783 314 l 1099 393 q 963 90 1083 197 q 635 -18 842 -18 q 329 71 449 -18 q 165 319 210 160 l 72 319 l 72 486 l 649 486 m 167 718 q 231 859 189 796 q 332 967 272 922 q 467 1035 392 1011 q 635 1060 543 1060 q 959 954 840 1060 q 1093 658 1078 849 l 788 658 q 741 770 781 729 q 626 811 701 811 q 468 718 514 811 l 665 718 l 654 550 l 72 550 l 72 718 l 167 718 z "},"№":{"ha":1719,"x_min":117,"x_max":1667,"o":"m 1638 296 l 1638 99 l 1178 99 l 1178 296 l 1638 296 m 1051 1042 l 1051 0 l 754 0 l 407 575 l 407 0 l 117 0 l 117 1042 l 411 1042 l 761 461 l 761 1042 l 1051 1042 m 1407 882 q 1513 864 1465 882 q 1594 813 1560 846 q 1648 732 1629 779 q 1667 626 1667 685 q 1648 521 1667 568 q 1594 440 1629 474 q 1513 389 1560 407 q 1407 371 1465 371 q 1304 389 1351 371 q 1222 440 1257 407 q 1168 521 1188 474 q 1149 626 1149 568 q 1169 731 1149 683 q 1224 811 1189 778 q 1306 863 1258 844 q 1407 882 1353 882 m 1407 694 q 1361 676 1378 694 q 1344 626 1344 658 q 1361 576 1344 594 q 1407 558 1378 558 q 1454 576 1438 558 q 1471 626 1471 594 q 1454 676 1471 658 q 1407 694 1438 694 z "},"™":{"ha":1136,"x_min":6,"x_max":1088,"o":"m 697 1042 l 779 819 l 860 1042 l 1088 1042 l 1088 582 l 924 582 l 924 815 l 835 588 l 715 588 l 626 815 l 626 582 l 463 582 l 463 886 l 331 886 l 331 582 l 156 582 l 156 886 l 6 886 l 6 1042 l 697 1042 z "},"−":{"ha":735,"x_min":82,"x_max":653,"o":"m 653 656 l 653 403 l 82 403 l 82 656 l 653 656 z "},"≈":{"ha":717,"x_min":50,"x_max":667,"o":"m 667 831 q 616 637 667 710 q 461 564 565 564 q 399 573 422 564 q 358 593 375 582 q 325 613 340 604 q 288 622 310 622 q 259 610 268 622 q 250 582 250 597 l 50 582 q 101 776 50 703 q 254 849 151 849 q 317 840 293 849 q 358 819 340 831 q 390 799 375 808 q 428 790 406 790 q 456 802 447 790 q 465 831 465 814 l 667 831 m 667 481 q 616 286 667 360 q 461 213 565 213 q 399 222 422 213 q 358 242 375 231 q 325 263 340 254 q 288 272 310 272 q 259 260 268 272 q 250 232 250 247 l 50 232 q 101 424 50 351 q 254 497 151 497 q 317 488 293 497 q 358 469 340 479 q 390 449 375 458 q 428 440 406 440 q 456 452 447 440 q 465 481 465 464 l 667 481 z "},"≠":{"ha":717,"x_min":82,"x_max":633,"o":"m 321 825 l 343 919 l 554 919 l 532 825 l 633 825 l 633 589 l 476 589 l 450 474 l 633 474 l 633 238 l 394 238 l 372 143 l 161 143 l 183 238 l 82 238 l 82 474 l 239 474 l 265 589 l 82 589 l 82 825 l 321 825 z "},"≤":{"ha":606,"x_min":51,"x_max":561,"o":"m 283 914 l 561 914 l 347 625 l 561 336 l 283 336 l 51 575 l 51 664 l 283 914 m 51 267 l 561 267 l 561 65 l 51 65 l 51 267 z "},"≥":{"ha":606,"x_min":44,"x_max":554,"o":"m 321 336 l 44 336 l 257 625 l 44 914 l 321 914 l 554 664 l 554 575 l 321 336 m 554 65 l 44 65 l 44 267 l 554 267 l 554 65 z "},"ў":{"ha":858,"x_min":26,"x_max":832,"o":"m 326 694 l 451 258 l 542 694 l 832 694 l 567 -93 q 517 -204 546 -157 q 450 -282 489 -251 q 360 -328 411 -312 q 243 -343 310 -343 q 199 -342 222 -343 q 151 -337 175 -340 l 164 -122 q 200 -124 182 -124 q 233 -125 218 -125 q 278 -111 258 -125 q 308 -69 299 -97 l 321 -31 l 26 694 l 326 694 m 385 1054 l 385 1033 q 399 994 385 1010 q 439 979 414 979 q 477 994 463 979 q 492 1033 492 1010 l 492 1054 l 703 1054 l 703 1031 q 684 926 703 974 q 631 846 665 879 q 547 794 596 813 q 439 776 499 776 q 332 795 381 776 q 249 847 283 814 q 194 927 214 881 q 175 1031 175 974 l 175 1054 l 385 1054 z "},"Ў":{"ha":1072,"x_min":32,"x_max":1039,"o":"m 371 1042 l 572 575 l 721 1042 l 1039 1042 l 719 261 q 571 49 658 111 q 356 -14 483 -14 q 278 -11 315 -14 q 210 -3 242 -8 l 222 244 q 313 240 269 240 q 406 294 386 240 l 415 322 l 32 1042 l 371 1042 m 472 1457 l 472 1428 q 492 1373 472 1392 q 546 1354 511 1354 q 601 1373 582 1354 q 621 1428 621 1392 l 621 1457 l 864 1457 l 864 1428 q 780 1215 864 1290 q 546 1140 696 1140 q 417 1160 475 1140 q 316 1216 358 1179 q 251 1306 274 1253 q 228 1428 228 1360 l 228 1457 l 472 1457 z "},"£":{"ha":1007,"x_min":89,"x_max":935,"o":"m 546 390 q 522 316 539 349 q 479 258 506 283 l 935 258 l 935 0 l 89 0 l 89 206 q 188 251 149 217 q 242 340 226 285 l 122 321 l 122 514 l 215 529 q 190 569 203 549 q 167 614 178 590 q 151 667 157 638 q 144 735 144 697 q 169 867 144 807 q 240 969 193 926 q 357 1036 288 1013 q 515 1060 426 1060 q 676 1033 607 1060 q 793 959 746 1007 q 865 846 840 911 q 889 701 889 781 l 599 701 q 514 811 599 811 q 460 789 478 811 q 442 732 442 767 q 448 688 442 708 q 464 649 454 668 q 485 613 474 631 q 508 576 497 596 l 682 606 l 682 413 l 546 390 z "},"Æ":{"ha":1603,"x_min":26,"x_max":1510,"o":"m 1486 1042 l 1486 796 l 1039 796 l 1039 636 l 1443 636 l 1443 411 l 1039 411 l 1039 246 l 1510 246 l 1510 0 l 742 0 l 742 174 l 454 174 l 371 0 l 26 0 l 633 1042 l 1486 1042 m 568 410 l 742 410 l 742 769 l 568 410 z "},"Đ":{"ha":1140,"x_min":25,"x_max":1072,"o":"m 25 642 l 142 642 l 142 1042 l 565 1042 q 783 1006 689 1042 q 942 902 878 969 q 1040 738 1007 835 q 1072 521 1072 642 q 1037 303 1072 400 q 936 140 1001 207 q 777 36 871 72 q 565 0 683 0 l 142 0 l 142 406 l 25 406 l 25 642 m 439 642 l 604 642 l 604 406 l 439 406 l 439 242 l 544 242 q 713 312 651 242 q 774 521 774 382 q 714 732 774 664 q 544 800 654 800 l 439 800 l 439 642 z "},"Ħ":{"ha":1213,"x_min":40,"x_max":1171,"o":"m 440 1042 l 440 901 l 772 901 l 772 1042 l 1071 1042 l 1071 901 l 1171 901 l 1171 710 l 1071 710 l 1071 0 l 772 0 l 772 357 l 440 357 l 440 0 l 142 0 l 142 710 l 40 710 l 40 901 l 142 901 l 142 1042 l 440 1042 m 772 610 l 772 710 l 440 710 l 440 610 l 772 610 z "},"Ł":{"ha":967,"x_min":26,"x_max":910,"o":"m 429 1042 l 429 676 l 607 751 l 607 510 l 429 435 l 429 258 l 910 258 l 910 0 l 131 0 l 131 310 l 26 267 l 26 507 l 131 550 l 131 1042 l 429 1042 z "},"Œ":{"ha":1624,"x_min":68,"x_max":1531,"o":"m 563 801 q 422 733 476 801 q 367 521 367 665 q 422 308 367 376 q 563 240 478 240 q 701 308 646 240 q 757 521 757 375 q 702 734 757 667 q 563 801 647 801 m 1507 1042 l 1507 796 l 1046 796 l 1046 638 l 1464 638 l 1464 413 l 1046 413 l 1046 246 l 1531 246 l 1531 0 l 763 0 l 763 74 q 658 6 719 29 q 521 -18 596 -18 q 330 20 414 -18 q 188 129 246 58 q 99 299 129 200 q 68 521 68 399 q 99 741 68 642 q 188 911 129 840 q 330 1021 246 982 q 521 1060 414 1060 q 657 1036 596 1060 q 763 968 718 1013 l 763 1042 l 1507 1042 z "},"Ð":{"ha":1140,"x_min":25,"x_max":1072,"o":"m 25 642 l 142 642 l 142 1042 l 565 1042 q 783 1006 689 1042 q 942 902 878 969 q 1040 738 1007 835 q 1072 521 1072 642 q 1037 303 1072 400 q 936 140 1001 207 q 777 36 871 72 q 565 0 683 0 l 142 0 l 142 406 l 25 406 l 25 642 m 439 642 l 604 642 l 604 406 l 439 406 l 439 242 l 544 242 q 713 312 651 242 q 774 521 774 382 q 714 732 774 664 q 544 800 654 800 l 439 800 l 439 642 z "},"đ":{"ha":879,"x_min":50,"x_max":871,"o":"m 535 0 l 535 93 q 338 -14 474 -14 q 224 7 276 -14 q 133 72 171 28 q 72 185 94 117 q 50 347 50 253 q 72 505 50 438 q 134 617 94 572 q 228 685 174 663 q 347 708 282 708 q 510 639 450 708 l 510 765 l 336 765 l 336 954 l 510 954 l 510 1060 l 781 1060 l 781 954 l 871 954 l 871 765 l 781 765 l 781 0 l 535 0 m 515 347 q 488 444 515 413 q 415 476 460 476 q 343 445 371 476 q 315 347 315 414 q 341 251 315 285 q 414 218 367 218 q 487 251 458 218 q 515 347 515 285 z "},"ı":{"ha":440,"x_min":85,"x_max":354,"o":"m 354 694 l 354 0 l 85 0 l 85 694 l 354 694 z "},"ȷ":{"ha":440,"x_min":-42,"x_max":354,"o":"m 354 694 l 354 -36 q 272 -276 354 -199 q 40 -354 190 -354 l -42 -354 l -42 -117 l -1 -117 q 61 -93 38 -117 q 85 -26 85 -69 l 85 694 l 354 694 z "},"ĸ":{"ha":874,"x_min":85,"x_max":858,"o":"m 354 694 l 354 454 l 531 694 l 839 694 l 589 390 l 858 0 l 554 0 l 419 217 l 354 160 l 354 0 l 85 0 l 85 694 l 354 694 z "},"ł":{"ha":503,"x_min":6,"x_max":497,"o":"m 386 1042 l 386 631 l 497 676 l 497 457 l 386 411 l 386 0 l 117 0 l 117 303 l 6 258 l 6 478 l 117 522 l 117 1042 l 386 1042 z "},"ħ":{"ha":893,"x_min":8,"x_max":814,"o":"m 99 954 l 99 1060 l 368 1060 l 368 954 l 551 954 l 551 765 l 368 765 l 368 621 q 550 708 432 708 q 747 631 681 708 q 814 410 814 554 l 814 0 l 544 0 l 544 368 q 461 465 544 465 q 394 436 419 465 q 368 360 368 407 l 368 0 l 99 0 l 99 765 l 8 765 l 8 954 l 99 954 z "},"ſ":{"ha":446,"x_min":85,"x_max":483,"o":"m 85 736 q 104 867 85 808 q 163 968 124 926 q 262 1033 203 1010 q 400 1056 321 1056 l 483 1056 l 483 818 l 435 818 q 376 797 397 818 q 354 738 354 775 l 354 0 l 85 0 l 85 736 z "},"ŭ":{"ha":875,"x_min":78,"x_max":790,"o":"m 347 694 l 347 325 q 369 252 347 276 q 428 228 390 228 q 494 258 468 228 q 519 335 519 288 l 519 694 l 790 694 l 790 0 l 543 0 l 543 111 q 463 17 515 49 q 340 -14 411 -14 q 145 62 213 -14 q 78 285 78 138 l 78 694 l 347 694 m 383 1054 l 383 1033 q 398 994 383 1010 q 438 979 413 979 q 476 994 461 979 q 490 1033 490 1010 l 490 1054 l 701 1054 l 701 1031 q 683 926 701 974 q 629 846 664 879 q 546 794 594 813 q 438 776 497 776 q 331 795 379 776 q 247 847 282 814 q 193 927 213 881 q 174 1031 174 974 l 174 1054 l 383 1054 z "},"ě":{"ha":821,"x_min":50,"x_max":760,"o":"m 318 281 q 345 211 319 236 q 413 186 371 186 q 466 199 446 186 q 494 233 486 213 l 754 210 q 632 40 722 94 q 407 -14 542 -14 q 145 81 240 -14 q 50 347 50 175 q 75 494 50 428 q 147 608 100 560 q 261 682 194 656 q 410 708 328 708 q 558 683 493 708 q 669 610 624 657 q 737 499 714 564 q 760 354 760 433 l 760 281 l 318 281 m 492 424 q 469 483 490 460 q 410 507 449 507 q 347 483 369 507 q 321 424 324 460 l 492 424 m 353 1072 l 414 1007 l 475 1072 l 707 1072 l 707 1053 l 439 764 l 389 764 l 121 1053 l 121 1072 l 353 1072 z "},"ç":{"ha":790,"x_min":50,"x_max":744,"o":"m 488 401 q 465 454 485 433 q 408 475 444 475 q 339 442 363 475 q 315 347 315 408 q 341 250 315 282 q 407 218 367 218 q 465 237 443 218 q 489 292 486 256 l 744 292 q 649 68 736 150 q 403 -14 561 -14 q 253 11 318 -14 q 142 83 188 36 q 74 197 97 131 q 50 347 50 264 q 75 493 50 426 q 146 608 100 560 q 257 682 192 656 q 404 708 322 708 q 542 685 481 708 q 645 622 603 663 q 713 524 688 581 q 742 401 738 468 l 488 401 m 344 -61 q 494 -108 442 -61 q 546 -243 546 -156 q 483 -399 546 -331 q 303 -496 421 -467 l 253 -322 q 329 -293 306 -310 q 353 -257 353 -276 q 319 -228 353 -228 l 285 -228 l 285 -61 l 344 -61 z "},"ŝ":{"ha":771,"x_min":51,"x_max":721,"o":"m 446 481 q 382 525 435 525 q 328 488 328 525 q 342 458 328 468 q 400 444 357 447 q 553 423 492 439 q 652 379 615 407 q 705 312 689 351 q 721 218 721 272 q 640 48 721 110 q 403 -14 558 -14 q 153 44 236 -14 q 51 214 71 103 l 325 214 q 400 168 343 168 q 463 211 463 168 q 447 242 463 231 q 385 257 431 254 q 240 277 299 261 q 144 322 181 293 q 90 392 107 351 q 74 485 74 432 q 92 573 74 532 q 149 644 111 614 q 245 692 188 675 q 381 708 303 708 q 617 647 536 708 q 708 481 697 586 l 446 481 m 424 1113 l 692 822 l 692 803 l 460 803 l 399 869 l 338 803 l 106 803 l 106 822 l 374 1113 l 424 1113 z "},"ş":{"ha":771,"x_min":51,"x_max":721,"o":"m 446 481 q 382 525 435 525 q 328 488 328 525 q 342 458 328 468 q 400 444 357 447 q 553 423 492 439 q 652 379 615 407 q 705 312 689 351 q 721 218 721 272 q 640 48 721 110 q 403 -14 558 -14 q 153 44 236 -14 q 51 214 71 103 l 325 214 q 400 168 343 168 q 463 211 463 168 q 447 242 463 231 q 385 257 431 254 q 240 277 299 261 q 144 322 181 293 q 90 392 107 351 q 74 485 74 432 q 92 573 74 532 q 149 644 111 614 q 245 692 188 675 q 381 708 303 708 q 617 647 536 708 q 708 481 697 586 l 446 481 m 342 -61 q 491 -108 439 -61 q 543 -243 543 -156 q 481 -399 543 -331 q 300 -496 418 -467 l 250 -322 q 326 -293 303 -310 q 350 -257 350 -276 q 317 -228 350 -228 l 282 -228 l 282 -61 l 342 -61 z "},"ș":{"ha":771,"x_min":51,"x_max":721,"o":"m 446 481 q 382 525 435 525 q 328 488 328 525 q 342 458 328 468 q 400 444 357 447 q 553 423 492 439 q 652 379 615 407 q 705 312 689 351 q 721 218 721 272 q 640 48 721 110 q 403 -14 558 -14 q 153 44 236 -14 q 51 214 71 103 l 325 214 q 400 168 343 168 q 463 211 463 168 q 447 242 463 231 q 385 257 431 254 q 240 277 299 261 q 144 322 181 293 q 90 392 107 351 q 74 485 74 432 q 92 573 74 532 q 149 644 111 614 q 245 692 188 675 q 381 708 303 708 q 617 647 536 708 q 708 481 697 586 l 446 481 m 265 -393 q 350 -331 343 -385 q 287 -288 310 -319 q 264 -212 264 -257 q 297 -120 264 -157 q 389 -83 331 -83 q 485 -124 450 -83 q 521 -229 521 -165 q 506 -335 521 -286 q 458 -422 490 -385 q 378 -484 426 -460 q 265 -514 331 -508 l 265 -393 z "},"ë":{"ha":821,"x_min":50,"x_max":760,"o":"m 318 281 q 345 211 319 236 q 413 186 371 186 q 466 199 446 186 q 494 233 486 213 l 754 210 q 632 40 722 94 q 407 -14 542 -14 q 145 81 240 -14 q 50 347 50 175 q 75 494 50 428 q 147 608 100 560 q 261 682 194 656 q 410 708 328 708 q 558 683 493 708 q 669 610 624 657 q 737 499 714 564 q 760 354 760 433 l 760 281 l 318 281 m 492 424 q 469 483 490 460 q 410 507 449 507 q 347 483 369 507 q 321 424 324 460 l 492 424 m 238 1054 q 337 1019 300 1054 q 374 925 374 983 q 337 832 374 868 q 238 796 300 796 q 139 832 176 796 q 101 925 101 868 q 139 1019 101 983 q 238 1054 176 1054 m 594 1054 q 694 1019 657 1054 q 732 925 732 983 q 694 832 732 868 q 594 796 657 796 q 496 832 533 796 q 458 925 458 868 q 496 1019 458 983 q 594 1054 533 1054 z "},"ő":{"ha":825,"x_min":50,"x_max":797,"o":"m 413 708 q 558 684 492 708 q 673 614 625 660 q 748 501 721 568 q 775 347 775 433 q 748 195 775 263 q 673 81 721 128 q 558 10 625 35 q 413 -14 492 -14 q 267 10 333 -14 q 152 81 200 35 q 77 194 104 126 q 50 347 50 261 q 77 499 50 432 q 152 612 104 565 q 267 683 200 658 q 413 708 333 708 m 413 476 q 315 347 315 476 q 340 251 315 285 q 413 218 364 218 q 510 347 510 218 q 485 443 510 410 q 413 476 460 476 m 493 1042 l 383 806 l 167 806 l 258 1042 l 493 1042 m 797 1042 l 671 806 l 454 806 l 567 1042 l 797 1042 z "},"è":{"ha":821,"x_min":50,"x_max":760,"o":"m 318 281 q 345 211 319 236 q 413 186 371 186 q 466 199 446 186 q 494 233 486 213 l 754 210 q 632 40 722 94 q 407 -14 542 -14 q 145 81 240 -14 q 50 347 50 175 q 75 494 50 428 q 147 608 100 560 q 261 682 194 656 q 410 708 328 708 q 558 683 493 708 q 669 610 624 657 q 737 499 714 564 q 760 354 760 433 l 760 281 l 318 281 m 492 424 q 469 483 490 460 q 410 507 449 507 q 347 483 369 507 q 321 424 324 460 l 492 424 m 451 1042 l 564 806 l 290 806 l 174 1042 l 451 1042 z "},"ȁ":{"ha":838,"x_min":43,"x_max":810,"o":"m 78 456 q 179 643 90 578 q 406 708 268 708 q 642 635 564 708 q 721 424 721 563 l 721 256 q 769 201 721 201 l 804 201 l 810 0 q 758 -9 786 -6 q 703 -12 731 -12 q 595 11 639 -12 q 532 88 551 35 q 444 13 500 39 q 296 -14 388 -14 q 116 40 182 -14 q 50 190 50 93 q 121 346 50 288 q 358 414 192 404 q 446 428 419 418 q 472 460 472 439 q 455 494 472 481 q 401 507 438 507 q 349 492 369 507 q 321 453 328 478 l 78 456 m 469 296 q 382 275 442 279 q 322 258 340 272 q 304 224 304 244 q 374 175 304 175 q 444 198 418 175 q 469 257 469 221 l 469 296 m 582 1042 l 674 806 l 457 806 l 347 1042 l 582 1042 m 274 1042 l 386 806 l 169 806 l 43 1042 l 274 1042 z "},"ō":{"ha":825,"x_min":50,"x_max":775,"o":"m 413 708 q 558 684 492 708 q 673 614 625 660 q 748 501 721 568 q 775 347 775 433 q 748 195 775 263 q 673 81 721 128 q 558 10 625 35 q 413 -14 492 -14 q 267 10 333 -14 q 152 81 200 35 q 77 194 104 126 q 50 347 50 261 q 77 499 50 432 q 152 612 104 565 q 267 683 200 658 q 413 708 333 708 m 413 476 q 315 347 315 476 q 340 251 315 285 q 413 218 364 218 q 510 347 510 218 q 485 443 510 410 q 413 476 460 476 m 669 1029 l 669 819 l 156 819 l 156 1029 l 669 1029 z "},"ę":{"ha":821,"x_min":50,"x_max":760,"o":"m 318 281 q 345 211 319 236 q 413 186 371 186 q 466 199 446 186 q 494 233 486 213 l 754 210 q 715 121 739 158 q 682 -12 682 54 q 701 -79 682 -54 q 758 -107 721 -104 l 758 -301 q 560 -244 629 -301 q 492 -87 492 -186 q 507 -6 492 -44 q 407 -14 461 -14 q 145 81 240 -14 q 50 347 50 175 q 75 494 50 428 q 147 608 100 560 q 261 682 194 656 q 410 708 328 708 q 558 683 493 708 q 669 610 624 657 q 737 499 714 564 q 760 354 760 433 l 760 281 l 318 281 m 492 424 q 469 483 490 460 q 410 507 449 507 q 347 483 369 507 q 321 424 324 460 l 492 424 z "},"å":{"ha":838,"x_min":50,"x_max":810,"o":"m 78 456 q 179 643 90 578 q 406 708 268 708 q 642 635 564 708 q 721 424 721 563 l 721 256 q 769 201 721 201 l 804 201 l 810 0 q 758 -9 786 -6 q 703 -12 731 -12 q 595 11 639 -12 q 532 88 551 35 q 444 13 500 39 q 296 -14 388 -14 q 116 40 182 -14 q 50 190 50 93 q 121 346 50 288 q 358 414 192 404 q 446 428 419 418 q 472 460 472 439 q 455 494 472 481 q 401 507 438 507 q 349 492 369 507 q 321 453 328 478 l 78 456 m 469 296 q 382 275 442 279 q 322 258 340 272 q 304 224 304 244 q 374 175 304 175 q 444 198 418 175 q 469 257 469 221 l 469 296 m 417 1172 q 501 1157 463 1172 q 567 1115 539 1142 q 610 1051 594 1088 q 626 972 626 1015 q 610 892 626 929 q 567 828 594 856 q 501 786 539 801 q 417 771 463 771 q 333 786 371 771 q 267 828 294 801 q 224 892 239 856 q 208 972 208 929 q 224 1051 208 1015 q 267 1115 239 1088 q 333 1157 294 1142 q 417 1172 371 1172 m 417 1013 q 388 1001 399 1013 q 378 972 378 989 q 388 942 378 953 q 417 931 399 931 q 445 942 435 931 q 456 972 456 953 q 445 1001 456 990 q 417 1013 435 1013 z "},"ñ":{"ha":889,"x_min":85,"x_max":811,"o":"m 332 694 l 332 581 q 415 676 360 643 q 540 708 471 708 q 742 632 672 708 q 811 410 811 556 l 811 0 l 540 0 l 540 368 q 453 465 540 465 q 382 435 410 465 q 354 357 354 406 l 354 0 l 85 0 l 85 694 l 332 694 m 728 1039 q 678 861 728 926 q 535 796 628 796 q 470 805 493 796 q 432 826 447 814 q 405 847 417 838 q 375 856 393 856 q 339 815 339 856 l 161 815 q 212 993 161 928 q 354 1058 263 1058 q 419 1049 396 1058 q 457 1029 442 1040 q 483 1009 472 1018 q 514 1000 494 1000 q 550 1039 550 1000 l 728 1039 z "},"Ó":{"ha":1138,"x_min":68,"x_max":1069,"o":"m 568 1060 q 774 1022 682 1060 q 933 915 867 985 q 1034 745 999 844 q 1069 521 1069 646 q 1033 297 1069 396 q 932 127 997 197 q 774 19 867 57 q 568 -18 682 -18 q 362 19 454 -18 q 204 126 269 57 q 103 296 139 196 q 68 521 68 396 q 103 745 68 646 q 205 915 139 844 q 363 1022 271 985 q 568 1060 456 1060 m 568 801 q 422 732 478 801 q 367 521 367 663 q 424 309 367 378 q 568 240 481 240 q 715 309 660 240 q 771 521 771 378 q 756 644 771 592 q 715 732 742 697 q 650 784 688 767 q 568 801 613 801 m 800 1290 l 338 1138 l 338 1407 l 800 1560 l 800 1290 z "},"Ŏ":{"ha":1138,"x_min":68,"x_max":1069,"o":"m 568 1060 q 774 1022 682 1060 q 933 915 867 985 q 1034 745 999 844 q 1069 521 1069 646 q 1033 297 1069 396 q 932 127 997 197 q 774 19 867 57 q 568 -18 682 -18 q 362 19 454 -18 q 204 126 269 57 q 103 296 139 196 q 68 521 68 396 q 103 745 68 646 q 205 915 139 844 q 363 1022 271 985 q 568 1060 456 1060 m 568 801 q 422 732 478 801 q 367 521 367 663 q 424 309 367 378 q 568 240 481 240 q 715 309 660 240 q 771 521 771 378 q 756 644 771 592 q 715 732 742 697 q 650 784 688 767 q 568 801 613 801 m 494 1457 l 494 1428 q 514 1373 494 1392 q 568 1354 533 1354 q 624 1373 604 1354 q 643 1428 643 1392 l 643 1457 l 886 1457 l 886 1428 q 802 1215 886 1290 q 568 1140 718 1140 q 439 1160 497 1140 q 338 1216 381 1179 q 273 1306 296 1253 q 250 1428 250 1360 l 250 1457 l 494 1457 z "},"Š":{"ha":1047,"x_min":79,"x_max":968,"o":"m 649 728 q 608 797 643 771 q 515 824 574 824 q 428 801 457 824 q 400 743 400 779 q 431 683 400 704 q 540 656 463 663 q 742 619 660 646 q 874 551 824 593 q 946 453 924 510 q 968 325 968 396 q 941 187 968 250 q 860 78 914 124 q 726 7 806 32 q 542 -18 646 -18 q 216 75 333 -18 q 79 332 99 168 l 386 332 q 437 249 393 279 q 550 218 481 218 q 688 307 688 218 q 652 367 688 344 q 525 397 617 389 q 341 433 418 406 q 214 504 264 461 q 140 605 164 547 q 117 732 117 663 q 144 866 117 806 q 222 969 171 926 q 347 1036 274 1013 q 514 1060 421 1060 q 813 970 703 1060 q 938 728 924 881 l 649 728 m 292 1506 l 533 1375 l 774 1506 l 804 1506 l 804 1257 l 556 1122 l 511 1122 l 263 1257 l 263 1506 l 292 1506 z "},"Ş":{"ha":1047,"x_min":79,"x_max":968,"o":"m 649 728 q 608 797 643 771 q 515 824 574 824 q 428 801 457 824 q 400 743 400 779 q 431 683 400 704 q 540 656 463 663 q 742 619 660 646 q 874 551 824 593 q 946 453 924 510 q 968 325 968 396 q 941 187 968 250 q 860 78 914 124 q 726 7 806 32 q 542 -18 646 -18 q 216 75 333 -18 q 79 332 99 168 l 386 332 q 437 249 393 279 q 550 218 481 218 q 688 307 688 218 q 652 367 688 344 q 525 397 617 389 q 341 433 418 406 q 214 504 264 461 q 140 605 164 547 q 117 732 117 663 q 144 866 117 806 q 222 969 171 926 q 347 1036 274 1013 q 514 1060 421 1060 q 813 970 703 1060 q 938 728 924 881 l 649 728 m 458 -67 q 633 -122 574 -67 q 693 -278 693 -178 q 615 -467 693 -390 q 368 -571 538 -544 l 340 -367 q 440 -338 413 -357 q 467 -294 467 -319 q 425 -260 467 -260 l 374 -260 l 374 -67 l 458 -67 z "},"Ŝ":{"ha":1047,"x_min":79,"x_max":968,"o":"m 649 728 q 608 797 643 771 q 515 824 574 824 q 428 801 457 824 q 400 743 400 779 q 431 683 400 704 q 540 656 463 663 q 742 619 660 646 q 874 551 824 593 q 946 453 924 510 q 968 325 968 396 q 941 187 968 250 q 860 78 914 124 q 726 7 806 32 q 542 -18 646 -18 q 216 75 333 -18 q 79 332 99 168 l 386 332 q 437 249 393 279 q 550 218 481 218 q 688 307 688 218 q 652 367 688 344 q 525 397 617 389 q 341 433 418 406 q 214 504 264 461 q 140 605 164 547 q 117 732 117 663 q 144 866 117 806 q 222 969 171 926 q 347 1036 274 1013 q 514 1060 421 1060 q 813 970 703 1060 q 938 728 924 881 l 649 728 m 558 1519 l 807 1385 l 807 1136 l 776 1136 l 536 1267 l 294 1136 l 265 1136 l 265 1385 l 514 1519 l 558 1519 z "},"Ș":{"ha":1047,"x_min":79,"x_max":968,"o":"m 649 728 q 608 797 643 771 q 515 824 574 824 q 428 801 457 824 q 400 743 400 779 q 431 683 400 704 q 540 656 463 663 q 742 619 660 646 q 874 551 824 593 q 946 453 924 510 q 968 325 968 396 q 941 187 968 250 q 860 78 914 124 q 726 7 806 32 q 542 -18 646 -18 q 216 75 333 -18 q 79 332 99 168 l 386 332 q 437 249 393 279 q 550 218 481 218 q 688 307 688 218 q 652 367 688 344 q 525 397 617 389 q 341 433 418 406 q 214 504 264 461 q 140 605 164 547 q 117 732 117 663 q 144 866 117 806 q 222 969 171 926 q 347 1036 274 1013 q 514 1060 421 1060 q 813 970 703 1060 q 938 728 924 881 l 649 728 m 389 -406 q 453 -383 429 -400 q 479 -337 476 -365 q 413 -295 438 -328 q 389 -214 389 -262 q 424 -118 389 -157 q 521 -79 460 -79 q 621 -122 583 -79 q 658 -231 658 -164 q 642 -342 658 -290 q 593 -434 626 -394 q 509 -499 560 -474 q 389 -529 458 -524 l 389 -406 z "},"Ö":{"ha":1138,"x_min":68,"x_max":1069,"o":"m 568 1060 q 774 1022 682 1060 q 933 915 867 985 q 1034 745 999 844 q 1069 521 1069 646 q 1033 297 1069 396 q 932 127 997 197 q 774 19 867 57 q 568 -18 682 -18 q 362 19 454 -18 q 204 126 269 57 q 103 296 139 196 q 68 521 68 396 q 103 745 68 646 q 205 915 139 844 q 363 1022 271 985 q 568 1060 456 1060 m 568 801 q 422 732 478 801 q 367 521 367 663 q 424 309 367 378 q 568 240 481 240 q 715 309 660 240 q 771 521 771 378 q 756 644 771 592 q 715 732 742 697 q 650 784 688 767 q 568 801 613 801 m 353 1443 q 462 1402 421 1443 q 503 1299 503 1361 q 462 1196 503 1236 q 353 1156 421 1156 q 246 1196 286 1156 q 206 1299 206 1236 q 246 1402 206 1361 q 353 1443 286 1443 m 783 1443 q 892 1402 851 1443 q 933 1299 933 1361 q 892 1196 933 1236 q 783 1156 851 1156 q 676 1196 717 1156 q 636 1299 636 1236 q 676 1402 636 1361 q 783 1443 717 1443 z "},"Ë":{"ha":1006,"x_min":117,"x_max":913,"o":"m 889 1042 l 889 796 l 415 796 l 415 636 l 846 636 l 846 411 l 415 411 l 415 246 l 913 246 l 913 0 l 117 0 l 117 1042 l 889 1042 m 300 1443 q 409 1402 368 1443 q 450 1299 450 1361 q 409 1196 450 1236 q 300 1156 368 1156 q 193 1196 233 1156 q 153 1299 153 1236 q 193 1402 153 1361 q 300 1443 233 1443 m 731 1443 q 840 1402 799 1443 q 881 1299 881 1361 q 840 1196 881 1236 q 731 1156 799 1156 q 624 1196 664 1156 q 583 1299 583 1236 q 624 1402 583 1361 q 731 1443 664 1443 z "},"İ":{"ha":532,"x_min":99,"x_max":432,"o":"m 415 1042 l 415 0 l 117 0 l 117 1042 l 415 1042 m 265 1454 q 386 1410 340 1454 q 432 1296 432 1367 q 386 1181 432 1225 q 265 1136 340 1136 q 144 1181 189 1136 q 99 1296 99 1225 q 144 1410 99 1367 q 265 1454 189 1454 z "},"Ő":{"ha":1138,"x_min":68,"x_max":1069,"o":"m 568 1060 q 774 1022 682 1060 q 933 915 867 985 q 1034 745 999 844 q 1069 521 1069 646 q 1033 297 1069 396 q 932 127 997 197 q 774 19 867 57 q 568 -18 682 -18 q 362 19 454 -18 q 204 126 269 57 q 103 296 139 196 q 68 521 68 396 q 103 745 68 646 q 205 915 139 844 q 363 1022 271 985 q 568 1060 456 1060 m 568 801 q 422 732 478 801 q 367 521 367 663 q 424 309 367 378 q 568 240 481 240 q 715 309 660 240 q 771 521 771 378 q 756 644 771 592 q 715 732 742 697 q 650 784 688 767 q 568 801 613 801 m 636 1468 l 544 1176 l 296 1176 l 388 1468 l 636 1468 m 969 1468 l 878 1176 l 629 1176 l 721 1468 l 969 1468 z "},"Ȑ":{"ha":1085,"x_min":117,"x_max":1035,"o":"m 567 1042 q 877 941 774 1042 q 981 667 981 840 q 932 484 981 560 q 799 369 883 408 l 1035 0 l 689 0 l 529 300 l 415 300 l 415 0 l 117 0 l 117 1042 l 567 1042 m 415 542 l 539 542 q 683 667 683 542 q 539 789 683 789 l 415 789 l 415 542 m 724 1468 l 815 1176 l 567 1176 l 475 1468 l 724 1468 m 390 1468 l 483 1176 l 235 1176 l 142 1468 l 390 1468 z "},"Ē":{"ha":1006,"x_min":117,"x_max":913,"o":"m 889 1042 l 889 796 l 415 796 l 415 636 l 846 636 l 846 411 l 415 411 l 415 246 l 913 246 l 913 0 l 117 0 l 117 1042 l 889 1042 m 831 1442 l 831 1181 l 201 1181 l 201 1442 l 831 1442 z "},"ą":{"ha":838,"x_min":50,"x_max":810,"o":"m 78 456 q 179 643 90 578 q 406 708 268 708 q 642 635 564 708 q 721 424 721 563 l 721 256 q 769 201 721 201 l 804 201 l 810 0 q 754 -23 771 -7 q 738 -62 738 -39 q 755 -106 738 -89 q 806 -124 772 -124 l 806 -329 q 595 -269 667 -329 q 524 -96 524 -210 q 536 -28 524 -60 q 572 26 549 3 q 532 88 547 47 q 444 13 500 39 q 296 -14 388 -14 q 116 40 182 -14 q 50 190 50 93 q 121 346 50 288 q 358 414 192 404 q 446 428 419 418 q 472 460 472 439 q 455 494 472 481 q 401 507 438 507 q 349 492 369 507 q 321 453 328 478 l 78 456 m 469 296 q 382 275 442 279 q 322 258 340 272 q 304 224 304 244 q 374 175 304 175 q 444 198 418 175 q 469 257 469 221 l 469 296 z "},"Ę":{"ha":1006,"x_min":117,"x_max":932,"o":"m 889 1042 l 889 796 l 415 796 l 415 636 l 846 636 l 846 411 l 415 411 l 415 246 l 913 246 l 913 0 q 847 -21 868 0 q 826 -78 826 -42 q 853 -137 826 -115 q 932 -158 881 -158 l 932 -368 q 780 -350 844 -368 q 673 -299 715 -332 q 610 -222 631 -267 q 590 -121 590 -176 q 628 0 590 -50 l 117 0 l 117 1042 l 889 1042 z "},"Å":{"ha":1147,"x_min":32,"x_max":1115,"o":"m 579 1426 q 687 1406 638 1426 q 772 1349 736 1385 q 827 1265 807 1314 q 847 1161 847 1217 q 826 1052 847 1103 q 764 965 804 1001 l 1115 0 l 796 0 l 744 178 l 406 178 l 353 0 l 32 0 l 394 964 q 333 1051 354 1000 q 311 1161 311 1101 q 331 1265 311 1217 q 387 1349 351 1314 q 472 1406 422 1385 q 579 1426 521 1426 m 475 411 l 678 411 l 579 758 l 475 411 m 579 1214 q 542 1199 556 1214 q 528 1161 528 1183 q 542 1124 528 1139 q 579 1108 556 1108 q 617 1124 603 1108 q 631 1161 631 1139 q 617 1199 631 1183 q 579 1214 603 1214 z "},"Ñ":{"ha":1168,"x_min":117,"x_max":1051,"o":"m 1051 1042 l 1051 0 l 754 0 l 407 575 l 407 0 l 117 0 l 117 1042 l 411 1042 l 761 461 l 761 1042 l 1051 1042 m 921 1449 q 906 1328 921 1382 q 860 1237 890 1275 q 785 1178 829 1199 q 685 1157 742 1157 q 617 1167 643 1157 q 572 1189 590 1176 q 536 1211 553 1201 q 496 1221 519 1221 q 466 1208 476 1221 q 456 1176 456 1194 l 246 1176 q 262 1297 246 1243 q 308 1388 278 1350 q 381 1447 338 1426 q 482 1468 425 1468 q 550 1458 524 1468 q 595 1437 576 1449 q 631 1415 614 1425 q 672 1406 649 1406 q 701 1418 692 1406 q 711 1449 711 1431 l 921 1449 z "},"ĩ":{"ha":440,"x_min":-46,"x_max":492,"o":"m 354 694 l 354 0 l 85 0 l 85 694 l 354 694 m 492 1040 q 446 863 492 929 q 313 797 400 797 q 253 806 274 797 q 219 824 232 814 q 195 844 206 835 q 167 853 185 853 q 136 815 136 853 l -46 815 q 0 993 -46 928 q 132 1058 46 1058 q 192 1050 171 1058 q 227 1031 214 1042 q 251 1013 240 1021 q 278 1004 261 1004 q 310 1040 310 1004 l 492 1040 z "},"Á":{"ha":1147,"x_min":32,"x_max":1115,"o":"m 736 1044 l 1115 0 l 796 0 l 744 178 l 406 178 l 353 0 l 32 0 l 425 1044 l 736 1044 m 475 411 l 678 411 l 579 758 l 475 411 m 811 1290 l 349 1138 l 349 1407 l 811 1560 l 811 1290 z "},"Ă":{"ha":1147,"x_min":32,"x_max":1115,"o":"m 736 1044 l 1115 0 l 796 0 l 744 178 l 406 178 l 353 0 l 32 0 l 425 1044 l 736 1044 m 475 411 l 678 411 l 579 758 l 475 411 m 504 1457 l 504 1428 q 524 1373 504 1392 q 578 1354 543 1354 q 633 1373 614 1354 q 653 1428 653 1392 l 653 1457 l 896 1457 l 896 1428 q 812 1215 896 1290 q 578 1140 728 1140 q 449 1160 507 1140 q 348 1216 390 1179 q 283 1306 306 1253 q 260 1428 260 1360 l 260 1457 l 504 1457 z "},"Â":{"ha":1147,"x_min":32,"x_max":1115,"o":"m 736 1044 l 1115 0 l 796 0 l 744 178 l 406 178 l 353 0 l 32 0 l 425 1044 l 736 1044 m 475 411 l 678 411 l 579 758 l 475 411 m 601 1519 l 850 1385 l 850 1136 l 819 1136 l 579 1267 l 338 1136 l 308 1136 l 308 1385 l 557 1519 l 601 1519 z "},"À":{"ha":1147,"x_min":32,"x_max":1115,"o":"m 736 1044 l 1115 0 l 796 0 l 744 178 l 406 178 l 353 0 l 32 0 l 425 1044 l 736 1044 m 475 411 l 678 411 l 579 758 l 475 411 m 347 1560 l 810 1407 l 810 1138 l 347 1290 l 347 1560 z "},"Ä":{"ha":1147,"x_min":32,"x_max":1115,"o":"m 736 1044 l 1115 0 l 796 0 l 744 178 l 406 178 l 353 0 l 32 0 l 425 1044 l 736 1044 m 475 411 l 678 411 l 579 758 l 475 411 m 363 1443 q 472 1402 431 1443 q 513 1299 513 1361 q 472 1196 513 1236 q 363 1156 431 1156 q 256 1196 296 1156 q 215 1299 215 1236 q 256 1402 215 1361 q 363 1443 296 1443 m 793 1443 q 902 1402 861 1443 q 943 1299 943 1361 q 902 1196 943 1236 q 793 1156 861 1156 q 686 1196 726 1156 q 646 1299 646 1236 q 686 1402 646 1361 q 793 1443 726 1443 z "},"Ā":{"ha":1147,"x_min":32,"x_max":1115,"o":"m 736 1044 l 1115 0 l 796 0 l 744 178 l 406 178 l 353 0 l 32 0 l 425 1044 l 736 1044 m 475 411 l 678 411 l 579 758 l 475 411 m 893 1442 l 893 1181 l 264 1181 l 264 1442 l 893 1442 z "},"Ą":{"ha":1147,"x_min":32,"x_max":1124,"o":"m 1124 -368 q 958 -350 1028 -368 q 842 -299 888 -332 q 774 -220 796 -267 q 753 -117 753 -174 q 792 13 753 -39 l 744 178 l 406 178 l 353 0 l 32 0 l 425 1044 l 736 1044 l 1115 0 q 1013 -72 1013 0 q 1040 -124 1013 -106 q 1124 -143 1067 -143 l 1124 -368 m 475 411 l 678 411 l 579 758 l 475 411 z "},"Ã":{"ha":1147,"x_min":32,"x_max":1115,"o":"m 736 1044 l 1115 0 l 796 0 l 744 178 l 406 178 l 353 0 l 32 0 l 425 1044 l 736 1044 m 475 411 l 678 411 l 579 758 l 475 411 m 915 1449 q 900 1328 915 1382 q 854 1237 885 1275 q 780 1178 824 1199 q 679 1157 736 1157 q 611 1167 638 1157 q 566 1189 585 1176 q 531 1211 547 1201 q 490 1221 514 1221 q 460 1208 471 1221 q 450 1176 450 1194 l 240 1176 q 256 1297 240 1243 q 302 1388 272 1350 q 376 1447 332 1426 q 476 1468 419 1468 q 544 1458 518 1468 q 590 1437 571 1449 q 626 1415 608 1425 q 667 1406 643 1406 q 696 1418 686 1406 q 706 1449 706 1431 l 915 1449 z "},"Ć":{"ha":1113,"x_min":68,"x_max":1042,"o":"m 726 638 q 678 756 719 713 q 563 800 636 800 q 426 732 475 800 q 376 521 376 664 q 427 308 376 376 q 563 240 478 240 q 679 285 636 240 q 729 414 722 331 l 1042 414 q 997 233 1033 313 q 899 97 960 153 q 753 12 838 42 q 567 -18 669 -18 q 354 19 447 -18 q 198 127 261 57 q 101 297 135 197 q 68 521 68 396 q 102 744 68 644 q 200 915 136 844 q 356 1022 264 985 q 567 1060 449 1060 q 751 1031 668 1060 q 896 947 835 1001 q 993 815 957 893 q 1038 638 1029 736 l 726 638 m 806 1290 l 343 1138 l 343 1407 l 806 1560 l 806 1290 z "},"Č":{"ha":1113,"x_min":68,"x_max":1042,"o":"m 726 638 q 678 756 719 713 q 563 800 636 800 q 426 732 475 800 q 376 521 376 664 q 427 308 376 376 q 563 240 478 240 q 679 285 636 240 q 729 414 722 331 l 1042 414 q 997 233 1033 313 q 899 97 960 153 q 753 12 838 42 q 567 -18 669 -18 q 354 19 447 -18 q 198 127 261 57 q 101 297 135 197 q 68 521 68 396 q 102 744 68 644 q 200 915 136 844 q 356 1022 264 985 q 567 1060 449 1060 q 751 1031 668 1060 q 896 947 835 1001 q 993 815 957 893 q 1038 638 1029 736 l 726 638 m 329 1506 l 571 1375 l 811 1506 l 842 1506 l 842 1257 l 593 1122 l 549 1122 l 300 1257 l 300 1506 l 329 1506 z "},"Ç":{"ha":1113,"x_min":68,"x_max":1042,"o":"m 726 638 q 678 756 719 713 q 563 800 636 800 q 426 732 475 800 q 376 521 376 664 q 427 308 376 376 q 563 240 478 240 q 679 285 636 240 q 729 414 722 331 l 1042 414 q 997 233 1033 313 q 899 97 960 153 q 753 12 838 42 q 567 -18 669 -18 q 354 19 447 -18 q 198 127 261 57 q 101 297 135 197 q 68 521 68 396 q 102 744 68 644 q 200 915 136 844 q 356 1022 264 985 q 567 1060 449 1060 q 751 1031 668 1060 q 896 947 835 1001 q 993 815 957 893 q 1038 638 1029 736 l 726 638 m 511 -67 q 686 -122 626 -67 q 746 -278 746 -178 q 668 -467 746 -390 q 421 -571 590 -544 l 393 -367 q 492 -338 465 -357 q 519 -294 519 -319 q 478 -260 519 -260 l 426 -260 l 426 -67 l 511 -67 z "},"Ĉ":{"ha":1113,"x_min":68,"x_max":1042,"o":"m 726 638 q 678 756 719 713 q 563 800 636 800 q 426 732 475 800 q 376 521 376 664 q 427 308 376 376 q 563 240 478 240 q 679 285 636 240 q 729 414 722 331 l 1042 414 q 997 233 1033 313 q 899 97 960 153 q 753 12 838 42 q 567 -18 669 -18 q 354 19 447 -18 q 198 127 261 57 q 101 297 135 197 q 68 521 68 396 q 102 744 68 644 q 200 915 136 844 q 356 1022 264 985 q 567 1060 449 1060 q 751 1031 668 1060 q 896 947 835 1001 q 993 815 957 893 q 1038 638 1029 736 l 726 638 m 593 1519 l 842 1385 l 842 1136 l 811 1136 l 571 1267 l 329 1136 l 300 1136 l 300 1385 l 549 1519 l 593 1519 z "},"Ċ":{"ha":1113,"x_min":68,"x_max":1042,"o":"m 726 638 q 678 756 719 713 q 563 800 636 800 q 426 732 475 800 q 376 521 376 664 q 427 308 376 376 q 563 240 478 240 q 679 285 636 240 q 729 414 722 331 l 1042 414 q 997 233 1033 313 q 899 97 960 153 q 753 12 838 42 q 567 -18 669 -18 q 354 19 447 -18 q 198 127 261 57 q 101 297 135 197 q 68 521 68 396 q 102 744 68 644 q 200 915 136 844 q 356 1022 264 985 q 567 1060 449 1060 q 751 1031 668 1060 q 896 947 835 1001 q 993 815 957 893 q 1038 638 1029 736 l 726 638 m 571 1454 q 692 1410 646 1454 q 738 1296 738 1367 q 692 1181 738 1225 q 571 1136 646 1136 q 449 1181 494 1136 q 404 1296 404 1225 q 449 1410 404 1367 q 571 1454 494 1454 z "},"Ď":{"ha":1106,"x_min":117,"x_max":1038,"o":"m 531 1042 q 748 1006 653 1042 q 907 903 843 971 q 1004 740 971 836 q 1038 521 1038 643 q 1002 303 1038 400 q 901 140 967 207 q 742 36 836 72 q 531 0 649 0 l 117 0 l 117 1042 l 531 1042 m 415 251 l 510 251 q 678 317 617 251 q 739 521 739 382 q 679 726 739 663 q 510 789 619 789 l 415 789 l 415 251 m 293 1506 l 535 1375 l 775 1506 l 806 1506 l 806 1257 l 557 1122 l 513 1122 l 264 1257 l 264 1506 l 293 1506 z "},"É":{"ha":1006,"x_min":117,"x_max":913,"o":"m 889 1042 l 889 796 l 415 796 l 415 636 l 846 636 l 846 411 l 415 411 l 415 246 l 913 246 l 913 0 l 117 0 l 117 1042 l 889 1042 m 740 1290 l 278 1138 l 278 1407 l 740 1560 l 740 1290 z "},"Ĕ":{"ha":1006,"x_min":117,"x_max":913,"o":"m 889 1042 l 889 796 l 415 796 l 415 636 l 846 636 l 846 411 l 415 411 l 415 246 l 913 246 l 913 0 l 117 0 l 117 1042 l 889 1042 m 442 1457 l 442 1428 q 461 1373 442 1392 q 515 1354 481 1354 q 571 1373 551 1354 q 590 1428 590 1392 l 590 1457 l 833 1457 l 833 1428 q 749 1215 833 1290 q 515 1140 665 1140 q 386 1160 444 1140 q 285 1216 328 1179 q 220 1306 243 1253 q 197 1428 197 1360 l 197 1457 l 442 1457 z "},"Ě":{"ha":1006,"x_min":117,"x_max":913,"o":"m 889 1042 l 889 796 l 415 796 l 415 636 l 846 636 l 846 411 l 415 411 l 415 246 l 913 246 l 913 0 l 117 0 l 117 1042 l 889 1042 m 274 1506 l 515 1375 l 756 1506 l 786 1506 l 786 1257 l 538 1122 l 493 1122 l 244 1257 l 244 1506 l 274 1506 z "},"Ê":{"ha":1006,"x_min":117,"x_max":913,"o":"m 889 1042 l 889 796 l 415 796 l 415 636 l 846 636 l 846 411 l 415 411 l 415 246 l 913 246 l 913 0 l 117 0 l 117 1042 l 889 1042 m 538 1519 l 786 1385 l 786 1136 l 756 1136 l 515 1267 l 274 1136 l 244 1136 l 244 1385 l 493 1519 l 538 1519 z "},"Ė":{"ha":1006,"x_min":117,"x_max":913,"o":"m 889 1042 l 889 796 l 415 796 l 415 636 l 846 636 l 846 411 l 415 411 l 415 246 l 913 246 l 913 0 l 117 0 l 117 1042 l 889 1042 m 515 1454 q 636 1410 590 1454 q 682 1296 682 1367 q 636 1181 682 1225 q 515 1136 590 1136 q 394 1181 439 1136 q 349 1296 349 1225 q 394 1410 349 1367 q 515 1454 439 1454 z "},"È":{"ha":1006,"x_min":117,"x_max":913,"o":"m 889 1042 l 889 796 l 415 796 l 415 636 l 846 636 l 846 411 l 415 411 l 415 246 l 913 246 l 913 0 l 117 0 l 117 1042 l 889 1042 m 271 1560 l 733 1407 l 733 1138 l 271 1290 l 271 1560 z "},"Ğ":{"ha":1136,"x_min":68,"x_max":1050,"o":"m 1050 586 l 1050 0 l 817 0 l 817 99 q 543 -18 729 -18 q 345 17 433 -18 q 196 122 257 53 q 101 291 135 190 q 68 521 68 392 q 102 741 68 642 q 200 911 136 840 q 357 1021 264 982 q 569 1060 450 1060 q 754 1033 672 1060 q 896 958 836 1007 q 992 839 956 908 q 1039 685 1028 769 l 726 685 q 674 769 713 738 q 565 800 635 800 q 427 732 478 800 q 376 521 376 664 q 431 308 376 376 q 569 240 486 240 q 690 279 646 240 q 733 368 733 318 l 733 392 l 578 392 l 578 586 l 1050 586 m 501 1457 l 501 1428 q 521 1373 501 1392 q 575 1354 540 1354 q 631 1373 611 1354 q 650 1428 650 1392 l 650 1457 l 893 1457 l 893 1428 q 809 1215 893 1290 q 575 1140 725 1140 q 446 1160 504 1140 q 345 1216 388 1179 q 280 1306 303 1253 q 257 1428 257 1360 l 257 1457 l 501 1457 z "},"Ĝ":{"ha":1136,"x_min":68,"x_max":1050,"o":"m 1050 586 l 1050 0 l 817 0 l 817 99 q 543 -18 729 -18 q 345 17 433 -18 q 196 122 257 53 q 101 291 135 190 q 68 521 68 392 q 102 741 68 642 q 200 911 136 840 q 357 1021 264 982 q 569 1060 450 1060 q 754 1033 672 1060 q 896 958 836 1007 q 992 839 956 908 q 1039 685 1028 769 l 726 685 q 674 769 713 738 q 565 800 635 800 q 427 732 478 800 q 376 521 376 664 q 431 308 376 376 q 569 240 486 240 q 690 279 646 240 q 733 368 733 318 l 733 392 l 578 392 l 578 586 l 1050 586 m 599 1519 l 847 1385 l 847 1136 l 817 1136 l 576 1267 l 335 1136 l 306 1136 l 306 1385 l 554 1519 l 599 1519 z "},"Ģ":{"ha":1136,"x_min":68,"x_max":1050,"o":"m 1050 586 l 1050 0 l 817 0 l 817 99 q 543 -18 729 -18 q 345 17 433 -18 q 196 122 257 53 q 101 291 135 190 q 68 521 68 392 q 102 741 68 642 q 200 911 136 840 q 357 1021 264 982 q 569 1060 450 1060 q 754 1033 672 1060 q 896 958 836 1007 q 992 839 956 908 q 1039 685 1028 769 l 726 685 q 674 769 713 738 q 565 800 635 800 q 427 732 478 800 q 376 521 376 664 q 431 308 376 376 q 569 240 486 240 q 690 279 646 240 q 733 368 733 318 l 733 392 l 578 392 l 578 586 l 1050 586 m 435 -406 q 499 -383 475 -400 q 525 -337 522 -365 q 459 -295 483 -328 q 435 -214 435 -262 q 470 -118 435 -157 q 567 -79 506 -79 q 667 -122 629 -79 q 704 -231 704 -164 q 688 -342 704 -290 q 639 -434 672 -394 q 555 -499 606 -474 q 435 -529 504 -524 l 435 -406 z "},"Ġ":{"ha":1136,"x_min":68,"x_max":1050,"o":"m 1050 586 l 1050 0 l 817 0 l 817 99 q 543 -18 729 -18 q 345 17 433 -18 q 196 122 257 53 q 101 291 135 190 q 68 521 68 392 q 102 741 68 642 q 200 911 136 840 q 357 1021 264 982 q 569 1060 450 1060 q 754 1033 672 1060 q 896 958 836 1007 q 992 839 956 908 q 1039 685 1028 769 l 726 685 q 674 769 713 738 q 565 800 635 800 q 427 732 478 800 q 376 521 376 664 q 431 308 376 376 q 569 240 486 240 q 690 279 646 240 q 733 368 733 318 l 733 392 l 578 392 l 578 586 l 1050 586 m 576 1454 q 697 1410 651 1454 q 743 1296 743 1367 q 697 1181 743 1225 q 576 1136 651 1136 q 455 1181 500 1136 q 410 1296 410 1225 q 455 1410 410 1367 q 576 1454 500 1454 z "},"Ĥ":{"ha":1164,"x_min":117,"x_max":1046,"o":"m 415 1042 l 415 650 l 749 650 l 749 1042 l 1046 1042 l 1046 0 l 749 0 l 749 393 l 415 393 l 415 0 l 117 0 l 117 1042 l 415 1042 m 603 1519 l 851 1385 l 851 1136 l 821 1136 l 581 1267 l 339 1136 l 310 1136 l 310 1385 l 558 1519 l 603 1519 z "},"Í":{"ha":532,"x_min":32,"x_max":494,"o":"m 415 1042 l 415 0 l 117 0 l 117 1042 l 415 1042 m 494 1290 l 32 1138 l 32 1407 l 494 1560 l 494 1290 z "},"Ĭ":{"ha":532,"x_min":-51,"x_max":585,"o":"m 415 1042 l 415 0 l 117 0 l 117 1042 l 415 1042 m 193 1457 l 193 1428 q 213 1373 193 1392 q 267 1354 232 1354 q 322 1373 303 1354 q 342 1428 342 1392 l 342 1457 l 585 1457 l 585 1428 q 501 1215 585 1290 q 267 1140 417 1140 q 138 1160 196 1140 q 37 1216 79 1179 q -28 1306 -6 1253 q -51 1428 -51 1360 l -51 1457 l 193 1457 z "},"Î":{"ha":532,"x_min":-3,"x_max":539,"o":"m 415 1042 l 415 0 l 117 0 l 117 1042 l 415 1042 m 290 1519 l 539 1385 l 539 1136 l 508 1136 l 268 1267 l 26 1136 l -3 1136 l -3 1385 l 246 1519 l 290 1519 z "},"Ï":{"ha":532,"x_min":-39,"x_max":575,"o":"m 415 1042 l 415 0 l 117 0 l 117 1042 l 415 1042 m 99 1443 q 200 1402 163 1443 q 238 1299 238 1361 q 200 1196 238 1236 q 99 1156 163 1156 q -1 1196 36 1156 q -39 1299 -39 1236 q -1 1402 -39 1361 q 99 1443 36 1443 m 436 1443 q 538 1402 500 1443 q 575 1299 575 1361 q 538 1196 575 1236 q 436 1156 500 1156 q 336 1196 374 1156 q 299 1299 299 1236 q 336 1402 299 1361 q 436 1443 374 1443 z "},"Ì":{"ha":532,"x_min":39,"x_max":501,"o":"m 415 1042 l 415 0 l 117 0 l 117 1042 l 415 1042 m 39 1560 l 501 1407 l 501 1138 l 39 1290 l 39 1560 z "},"Ī":{"ha":532,"x_min":4,"x_max":532,"o":"m 415 1042 l 415 0 l 117 0 l 117 1042 l 415 1042 m 532 1442 l 532 1181 l 4 1181 l 4 1442 l 532 1442 z "},"Į":{"ha":532,"x_min":65,"x_max":428,"o":"m 428 -368 q 158 -306 251 -368 q 65 -117 65 -243 q 117 26 65 -32 l 117 1042 l 415 1042 l 415 0 l 404 0 q 330 -24 354 -3 q 306 -79 306 -44 q 428 -158 306 -158 l 428 -368 z "},"Ĩ":{"ha":532,"x_min":-40,"x_max":579,"o":"m 415 1042 l 415 0 l 117 0 l 117 1042 l 415 1042 m 579 1449 q 531 1236 579 1315 q 372 1157 482 1157 q 306 1167 331 1157 q 265 1188 282 1176 q 234 1208 249 1199 q 196 1218 219 1218 q 168 1206 178 1218 q 158 1176 158 1194 l -40 1176 q 8 1389 -40 1310 q 165 1468 57 1468 q 232 1458 208 1468 q 272 1438 256 1449 q 303 1417 289 1426 q 342 1407 318 1407 q 371 1419 361 1407 q 381 1449 381 1431 l 579 1449 z "},"Ĵ":{"ha":714,"x_min":58,"x_max":725,"o":"m 604 1042 l 604 410 q 500 91 604 200 q 182 -18 396 -18 q 119 -16 150 -18 q 58 -11 88 -14 l 68 238 q 108 235 88 236 q 151 235 129 235 q 263 278 219 235 q 307 410 307 321 l 307 1042 l 604 1042 m 476 1519 l 725 1385 l 725 1136 l 694 1136 l 454 1267 l 213 1136 l 183 1136 l 183 1385 l 432 1519 l 476 1519 z "},"Ķ":{"ha":1144,"x_min":117,"x_max":1108,"o":"m 415 1042 l 415 626 l 717 1042 l 1075 1042 l 714 597 l 1108 0 l 749 0 l 521 388 l 415 286 l 415 0 l 117 0 l 117 1042 l 415 1042 m 458 -385 q 522 -362 499 -379 q 549 -317 546 -344 q 483 -274 507 -307 q 458 -193 458 -242 q 494 -97 458 -136 q 590 -58 529 -58 q 690 -101 653 -58 q 728 -210 728 -143 q 712 -322 728 -269 q 663 -413 696 -374 q 578 -478 629 -453 q 458 -508 528 -503 l 458 -385 z "},"Ĺ":{"ha":953,"x_min":117,"x_max":896,"o":"m 415 1042 l 415 258 l 896 258 l 896 0 l 117 0 l 117 1042 l 415 1042 m 579 1290 l 117 1138 l 117 1407 l 579 1560 l 579 1290 z "},"Ľ":{"ha":953,"x_min":117,"x_max":899,"o":"m 415 1042 l 415 258 l 896 258 l 896 0 l 117 0 l 117 1042 l 415 1042 m 629 733 q 693 756 669 739 q 719 801 717 774 q 653 844 678 811 q 629 925 629 876 q 665 1021 629 982 q 761 1060 700 1060 q 861 1017 824 1060 q 899 908 899 975 q 883 797 899 849 q 833 705 867 744 q 749 640 800 665 q 629 610 699 615 l 629 733 z "},"Ļ":{"ha":953,"x_min":117,"x_max":896,"o":"m 415 1042 l 415 258 l 896 258 l 896 0 l 117 0 l 117 1042 l 415 1042 m 383 -406 q 447 -383 424 -400 q 474 -337 471 -365 q 408 -295 432 -328 q 383 -214 383 -262 q 419 -118 383 -157 q 515 -79 454 -79 q 615 -122 578 -79 q 653 -231 653 -164 q 637 -342 653 -290 q 588 -434 621 -394 q 503 -499 554 -474 q 383 -529 453 -524 l 383 -406 z "},"Ŀ":{"ha":953,"x_min":117,"x_max":908,"o":"m 415 1042 l 415 258 l 896 258 l 896 0 l 117 0 l 117 1042 l 415 1042 m 742 799 q 863 755 817 799 q 908 640 908 711 q 863 525 908 569 q 742 481 817 481 q 620 525 665 481 q 575 640 575 569 q 620 755 575 711 q 742 799 665 799 z "},"Ń":{"ha":1168,"x_min":117,"x_max":1051,"o":"m 1051 1042 l 1051 0 l 754 0 l 407 575 l 407 0 l 117 0 l 117 1042 l 411 1042 l 761 461 l 761 1042 l 1051 1042 m 815 1290 l 353 1138 l 353 1407 l 815 1560 l 815 1290 z "},"Ň":{"ha":1168,"x_min":117,"x_max":1051,"o":"m 1051 1042 l 1051 0 l 754 0 l 407 575 l 407 0 l 117 0 l 117 1042 l 411 1042 l 761 461 l 761 1042 l 1051 1042 m 343 1506 l 585 1375 l 825 1506 l 856 1506 l 856 1257 l 607 1122 l 563 1122 l 314 1257 l 314 1506 l 343 1506 z "},"Ņ":{"ha":1168,"x_min":117,"x_max":1051,"o":"m 1051 1042 l 1051 0 l 754 0 l 407 575 l 407 0 l 117 0 l 117 1042 l 411 1042 l 761 461 l 761 1042 l 1051 1042 m 451 -385 q 515 -362 492 -379 q 542 -317 539 -344 q 476 -274 500 -307 q 451 -193 451 -242 q 487 -97 451 -136 q 583 -58 522 -58 q 683 -101 646 -58 q 721 -210 721 -143 q 705 -322 721 -269 q 656 -413 689 -374 q 572 -478 622 -453 q 451 -508 521 -503 l 451 -385 z "},"Ô":{"ha":1138,"x_min":68,"x_max":1069,"o":"m 568 1060 q 774 1022 682 1060 q 933 915 867 985 q 1034 745 999 844 q 1069 521 1069 646 q 1033 297 1069 396 q 932 127 997 197 q 774 19 867 57 q 568 -18 682 -18 q 362 19 454 -18 q 204 126 269 57 q 103 296 139 196 q 68 521 68 396 q 103 745 68 646 q 205 915 139 844 q 363 1022 271 985 q 568 1060 456 1060 m 568 801 q 422 732 478 801 q 367 521 367 663 q 424 309 367 378 q 568 240 481 240 q 715 309 660 240 q 771 521 771 378 q 756 644 771 592 q 715 732 742 697 q 650 784 688 767 q 568 801 613 801 m 590 1519 l 839 1385 l 839 1136 l 808 1136 l 568 1267 l 326 1136 l 297 1136 l 297 1385 l 546 1519 l 590 1519 z "},"Ò":{"ha":1138,"x_min":68,"x_max":1069,"o":"m 568 1060 q 774 1022 682 1060 q 933 915 867 985 q 1034 745 999 844 q 1069 521 1069 646 q 1033 297 1069 396 q 932 127 997 197 q 774 19 867 57 q 568 -18 682 -18 q 362 19 454 -18 q 204 126 269 57 q 103 296 139 196 q 68 521 68 396 q 103 745 68 646 q 205 915 139 844 q 363 1022 271 985 q 568 1060 456 1060 m 568 801 q 422 732 478 801 q 367 521 367 663 q 424 309 367 378 q 568 240 481 240 q 715 309 660 240 q 771 521 771 378 q 756 644 771 592 q 715 732 742 697 q 650 784 688 767 q 568 801 613 801 m 338 1560 l 800 1407 l 800 1138 l 338 1290 l 338 1560 z "},"Ō":{"ha":1138,"x_min":68,"x_max":1069,"o":"m 568 1060 q 774 1022 682 1060 q 933 915 867 985 q 1034 745 999 844 q 1069 521 1069 646 q 1033 297 1069 396 q 932 127 997 197 q 774 19 867 57 q 568 -18 682 -18 q 362 19 454 -18 q 204 126 269 57 q 103 296 139 196 q 68 521 68 396 q 103 745 68 646 q 205 915 139 844 q 363 1022 271 985 q 568 1060 456 1060 m 568 801 q 422 732 478 801 q 367 521 367 663 q 424 309 367 378 q 568 240 481 240 q 715 309 660 240 q 771 521 771 378 q 756 644 771 592 q 715 732 742 697 q 650 784 688 767 q 568 801 613 801 m 883 1442 l 883 1181 l 254 1181 l 254 1442 l 883 1442 z "},"Õ":{"ha":1138,"x_min":68,"x_max":1069,"o":"m 568 1060 q 774 1022 682 1060 q 933 915 867 985 q 1034 745 999 844 q 1069 521 1069 646 q 1033 297 1069 396 q 932 127 997 197 q 774 19 867 57 q 568 -18 682 -18 q 362 19 454 -18 q 204 126 269 57 q 103 296 139 196 q 68 521 68 396 q 103 745 68 646 q 205 915 139 844 q 363 1022 271 985 q 568 1060 456 1060 m 568 801 q 422 732 478 801 q 367 521 367 663 q 424 309 367 378 q 568 240 481 240 q 715 309 660 240 q 771 521 771 378 q 756 644 771 592 q 715 732 742 697 q 650 784 688 767 q 568 801 613 801 m 906 1449 q 890 1328 906 1382 q 844 1237 875 1275 q 770 1178 814 1199 q 669 1157 726 1157 q 601 1167 628 1157 q 556 1189 575 1176 q 521 1211 538 1201 q 481 1221 504 1221 q 451 1208 461 1221 q 440 1176 440 1194 l 231 1176 q 247 1297 231 1243 q 292 1388 263 1350 q 366 1447 322 1426 q 467 1468 410 1468 q 535 1458 508 1468 q 580 1437 561 1449 q 616 1415 599 1425 q 657 1406 633 1406 q 686 1418 676 1406 q 696 1449 696 1431 l 906 1449 z "},"Ŕ":{"ha":1085,"x_min":117,"x_max":1035,"o":"m 567 1042 q 877 941 774 1042 q 981 667 981 840 q 932 484 981 560 q 799 369 883 408 l 1035 0 l 689 0 l 529 300 l 415 300 l 415 0 l 117 0 l 117 1042 l 567 1042 m 415 542 l 539 542 q 683 667 683 542 q 539 789 683 789 l 415 789 l 415 542 m 761 1290 l 299 1138 l 299 1407 l 761 1560 l 761 1290 z "},"Ř":{"ha":1085,"x_min":117,"x_max":1035,"o":"m 567 1042 q 877 941 774 1042 q 981 667 981 840 q 932 484 981 560 q 799 369 883 408 l 1035 0 l 689 0 l 529 300 l 415 300 l 415 0 l 117 0 l 117 1042 l 567 1042 m 415 542 l 539 542 q 683 667 683 542 q 539 789 683 789 l 415 789 l 415 542 m 288 1506 l 529 1375 l 769 1506 l 800 1506 l 800 1257 l 551 1122 l 507 1122 l 258 1257 l 258 1506 l 288 1506 z "},"Ŗ":{"ha":1085,"x_min":117,"x_max":1035,"o":"m 567 1042 q 877 941 774 1042 q 981 667 981 840 q 932 484 981 560 q 799 369 883 408 l 1035 0 l 689 0 l 529 300 l 415 300 l 415 0 l 117 0 l 117 1042 l 567 1042 m 415 542 l 539 542 q 683 667 683 542 q 539 789 683 789 l 415 789 l 415 542 m 413 -385 q 476 -362 453 -379 q 503 -317 500 -344 q 437 -274 461 -307 q 413 -193 413 -242 q 448 -97 413 -136 q 544 -58 483 -58 q 644 -101 607 -58 q 682 -210 682 -143 q 666 -322 682 -269 q 617 -413 650 -374 q 533 -478 583 -453 q 413 -508 482 -503 l 413 -385 z "},"Ś":{"ha":1047,"x_min":79,"x_max":968,"o":"m 649 728 q 608 797 643 771 q 515 824 574 824 q 428 801 457 824 q 400 743 400 779 q 431 683 400 704 q 540 656 463 663 q 742 619 660 646 q 874 551 824 593 q 946 453 924 510 q 968 325 968 396 q 941 187 968 250 q 860 78 914 124 q 726 7 806 32 q 542 -18 646 -18 q 216 75 333 -18 q 79 332 99 168 l 386 332 q 437 249 393 279 q 550 218 481 218 q 688 307 688 218 q 652 367 688 344 q 525 397 617 389 q 341 433 418 406 q 214 504 264 461 q 140 605 164 547 q 117 732 117 663 q 144 866 117 806 q 222 969 171 926 q 347 1036 274 1013 q 514 1060 421 1060 q 813 970 703 1060 q 938 728 924 881 l 649 728 m 767 1290 l 304 1138 l 304 1407 l 767 1560 l 767 1290 z "},"Ť":{"ha":994,"x_min":51,"x_max":943,"o":"m 943 1042 l 943 788 l 646 788 l 646 0 l 347 0 l 347 788 l 51 788 l 51 1042 l 943 1042 m 254 1506 l 496 1375 l 736 1506 l 767 1506 l 767 1257 l 518 1122 l 474 1122 l 225 1257 l 225 1506 l 254 1506 z "},"Ţ":{"ha":994,"x_min":51,"x_max":943,"o":"m 943 1042 l 943 788 l 646 788 l 646 0 l 347 0 l 347 788 l 51 788 l 51 1042 l 943 1042 m 363 -406 q 426 -383 403 -400 q 453 -337 450 -365 q 387 -295 411 -328 q 363 -214 363 -262 q 398 -118 363 -157 q 494 -79 433 -79 q 594 -122 557 -79 q 632 -231 632 -164 q 616 -342 632 -290 q 567 -434 600 -394 q 483 -499 533 -474 q 363 -529 432 -524 l 363 -406 z "},"Ú":{"ha":1126,"x_min":110,"x_max":1015,"o":"m 408 1042 l 408 431 q 447 286 408 339 q 563 233 485 233 q 680 286 642 233 q 718 431 718 339 l 718 1042 l 1015 1042 l 1015 451 q 987 258 1015 344 q 902 110 958 171 q 760 15 846 49 q 563 -18 675 -18 q 365 15 450 -18 q 223 108 279 47 q 138 256 167 168 q 110 451 110 343 l 110 1042 l 408 1042 m 794 1290 l 332 1138 l 332 1407 l 794 1560 l 794 1290 z "},"Ŭ":{"ha":1126,"x_min":110,"x_max":1015,"o":"m 408 1042 l 408 431 q 447 286 408 339 q 563 233 485 233 q 680 286 642 233 q 718 431 718 339 l 718 1042 l 1015 1042 l 1015 451 q 987 258 1015 344 q 902 110 958 171 q 760 15 846 49 q 563 -18 675 -18 q 365 15 450 -18 q 223 108 279 47 q 138 256 167 168 q 110 451 110 343 l 110 1042 l 408 1042 m 488 1457 l 488 1428 q 507 1373 488 1392 q 561 1354 526 1354 q 617 1373 597 1354 q 636 1428 636 1392 l 636 1457 l 879 1457 l 879 1428 q 795 1215 879 1290 q 561 1140 711 1140 q 432 1160 490 1140 q 331 1216 374 1179 q 266 1306 289 1253 q 243 1428 243 1360 l 243 1457 l 488 1457 z "},"Û":{"ha":1126,"x_min":110,"x_max":1015,"o":"m 408 1042 l 408 431 q 447 286 408 339 q 563 233 485 233 q 680 286 642 233 q 718 431 718 339 l 718 1042 l 1015 1042 l 1015 451 q 987 258 1015 344 q 902 110 958 171 q 760 15 846 49 q 563 -18 675 -18 q 365 15 450 -18 q 223 108 279 47 q 138 256 167 168 q 110 451 110 343 l 110 1042 l 408 1042 m 585 1519 l 833 1385 l 833 1136 l 803 1136 l 563 1267 l 321 1136 l 292 1136 l 292 1385 l 540 1519 l 585 1519 z "},"Ü":{"ha":1126,"x_min":110,"x_max":1015,"o":"m 408 1042 l 408 431 q 447 286 408 339 q 563 233 485 233 q 680 286 642 233 q 718 431 718 339 l 718 1042 l 1015 1042 l 1015 451 q 987 258 1015 344 q 902 110 958 171 q 760 15 846 49 q 563 -18 675 -18 q 365 15 450 -18 q 223 108 279 47 q 138 256 167 168 q 110 451 110 343 l 110 1042 l 408 1042 m 347 1443 q 456 1402 415 1443 q 497 1299 497 1361 q 456 1196 497 1236 q 347 1156 415 1156 q 240 1196 281 1156 q 200 1299 200 1236 q 240 1402 200 1361 q 347 1443 281 1443 m 778 1443 q 887 1402 846 1443 q 928 1299 928 1361 q 887 1196 928 1236 q 778 1156 846 1156 q 671 1196 711 1156 q 631 1299 631 1236 q 671 1402 631 1361 q 778 1443 711 1443 z "},"Ù":{"ha":1126,"x_min":110,"x_max":1015,"o":"m 408 1042 l 408 431 q 447 286 408 339 q 563 233 485 233 q 680 286 642 233 q 718 431 718 339 l 718 1042 l 1015 1042 l 1015 451 q 987 258 1015 344 q 902 110 958 171 q 760 15 846 49 q 563 -18 675 -18 q 365 15 450 -18 q 223 108 279 47 q 138 256 167 168 q 110 451 110 343 l 110 1042 l 408 1042 m 332 1560 l 794 1407 l 794 1138 l 332 1290 l 332 1560 z "},"Ű":{"ha":1126,"x_min":110,"x_max":1015,"o":"m 408 1042 l 408 431 q 447 286 408 339 q 563 233 485 233 q 680 286 642 233 q 718 431 718 339 l 718 1042 l 1015 1042 l 1015 451 q 987 258 1015 344 q 902 110 958 171 q 760 15 846 49 q 563 -18 675 -18 q 365 15 450 -18 q 223 108 279 47 q 138 256 167 168 q 110 451 110 343 l 110 1042 l 408 1042 m 610 1468 l 518 1176 l 269 1176 l 361 1468 l 610 1468 m 943 1468 l 851 1176 l 603 1176 l 694 1468 l 943 1468 z "},"Ū":{"ha":1126,"x_min":110,"x_max":1015,"o":"m 408 1042 l 408 431 q 447 286 408 339 q 563 233 485 233 q 680 286 642 233 q 718 431 718 339 l 718 1042 l 1015 1042 l 1015 451 q 987 258 1015 344 q 902 110 958 171 q 760 15 846 49 q 563 -18 675 -18 q 365 15 450 -18 q 223 108 279 47 q 138 256 167 168 q 110 451 110 343 l 110 1042 l 408 1042 m 876 1442 l 876 1181 l 247 1181 l 247 1442 l 876 1442 z "},"Ų":{"ha":1126,"x_min":110,"x_max":1015,"o":"m 740 -357 q 501 -295 583 -357 q 419 -121 419 -233 q 427 -60 419 -87 q 450 -8 435 -32 q 194 141 279 21 q 110 451 110 261 l 110 1042 l 408 1042 l 408 431 q 447 286 408 339 q 563 233 485 233 q 680 286 642 233 q 718 431 718 339 l 718 1042 l 1015 1042 l 1015 451 q 936 153 1015 274 q 701 -3 857 33 q 660 -29 674 -10 q 646 -76 646 -49 q 672 -137 646 -115 q 740 -158 697 -158 l 740 -357 z "},"Ů":{"ha":1126,"x_min":110,"x_max":1015,"o":"m 408 1042 l 408 431 q 447 286 408 339 q 563 233 485 233 q 680 286 642 233 q 718 431 718 339 l 718 1042 l 1015 1042 l 1015 451 q 987 258 1015 344 q 902 110 958 171 q 760 15 846 49 q 563 -18 675 -18 q 365 15 450 -18 q 223 108 279 47 q 138 256 167 168 q 110 451 110 343 l 110 1042 l 408 1042 m 563 1626 q 670 1606 621 1626 q 755 1549 719 1585 q 810 1466 790 1514 q 831 1363 831 1418 q 810 1258 831 1307 q 755 1174 790 1210 q 670 1118 719 1139 q 563 1097 621 1097 q 455 1118 504 1097 q 369 1174 406 1139 q 313 1258 333 1210 q 293 1363 293 1307 q 313 1466 293 1418 q 369 1549 333 1514 q 455 1606 406 1585 q 563 1626 504 1626 m 563 1414 q 525 1399 539 1414 q 511 1363 511 1385 q 525 1324 511 1339 q 563 1310 539 1310 q 599 1324 585 1310 q 613 1363 613 1339 q 599 1399 613 1385 q 563 1414 586 1414 z "},"Ũ":{"ha":1126,"x_min":110,"x_max":1015,"o":"m 408 1042 l 408 431 q 447 286 408 339 q 563 233 485 233 q 680 286 642 233 q 718 431 718 339 l 718 1042 l 1015 1042 l 1015 451 q 987 258 1015 344 q 902 110 958 171 q 760 15 846 49 q 563 -18 675 -18 q 365 15 450 -18 q 223 108 279 47 q 138 256 167 168 q 110 451 110 343 l 110 1042 l 408 1042 m 900 1449 q 885 1328 900 1382 q 839 1237 869 1275 q 765 1178 808 1199 q 664 1157 721 1157 q 596 1167 622 1157 q 551 1189 569 1176 q 515 1211 532 1201 q 475 1221 499 1221 q 445 1208 456 1221 q 435 1176 435 1194 l 225 1176 q 241 1297 225 1243 q 287 1388 257 1350 q 360 1447 317 1426 q 461 1468 404 1468 q 529 1458 503 1468 q 574 1437 556 1449 q 610 1415 593 1425 q 651 1406 628 1406 q 681 1418 671 1406 q 690 1449 690 1431 l 900 1449 z "},"Ŵ":{"ha":1522,"x_min":32,"x_max":1490,"o":"m 347 1042 l 492 361 l 646 1042 l 890 1042 l 1047 361 l 1189 1042 l 1490 1042 l 1208 -3 l 888 -3 l 760 574 l 632 -3 l 310 -3 l 32 1042 l 347 1042 m 782 1519 l 1031 1385 l 1031 1136 l 1000 1136 l 760 1267 l 518 1136 l 489 1136 l 489 1385 l 738 1519 l 782 1519 z "},"Ý":{"ha":1094,"x_min":31,"x_max":1064,"o":"m 367 1042 l 550 592 l 738 1042 l 1064 1042 l 699 319 l 699 0 l 400 0 l 400 319 l 31 1042 l 367 1042 m 779 1290 l 317 1138 l 317 1407 l 779 1560 l 779 1290 z "},"Ŷ":{"ha":1094,"x_min":31,"x_max":1064,"o":"m 367 1042 l 550 592 l 738 1042 l 1064 1042 l 699 319 l 699 0 l 400 0 l 400 319 l 31 1042 l 367 1042 m 569 1519 l 818 1385 l 818 1136 l 788 1136 l 547 1267 l 306 1136 l 276 1136 l 276 1385 l 525 1519 l 569 1519 z "},"Ÿ":{"ha":1094,"x_min":31,"x_max":1064,"o":"m 367 1042 l 550 592 l 738 1042 l 1064 1042 l 699 319 l 699 0 l 400 0 l 400 319 l 31 1042 l 367 1042 m 331 1443 q 440 1402 399 1443 q 481 1299 481 1361 q 440 1196 481 1236 q 331 1156 399 1156 q 224 1196 264 1156 q 183 1299 183 1236 q 224 1402 183 1361 q 331 1443 264 1443 m 761 1443 q 870 1402 829 1443 q 911 1299 911 1361 q 870 1196 911 1236 q 761 1156 829 1156 q 654 1196 694 1156 q 614 1299 614 1236 q 654 1402 614 1361 q 761 1443 694 1443 z "},"Ź":{"ha":996,"x_min":79,"x_max":917,"o":"m 901 1042 l 901 828 l 440 251 l 917 251 l 917 0 l 79 0 l 79 213 l 539 789 l 96 789 l 96 1042 l 901 1042 m 729 1290 l 267 1138 l 267 1407 l 729 1560 l 729 1290 z "},"Ž":{"ha":996,"x_min":79,"x_max":917,"o":"m 901 1042 l 901 828 l 440 251 l 917 251 l 917 0 l 79 0 l 79 213 l 539 789 l 96 789 l 96 1042 l 901 1042 m 256 1506 l 497 1375 l 738 1506 l 768 1506 l 768 1257 l 519 1122 l 475 1122 l 226 1257 l 226 1506 l 256 1506 z "},"Ż":{"ha":996,"x_min":79,"x_max":917,"o":"m 901 1042 l 901 828 l 440 251 l 917 251 l 917 0 l 79 0 l 79 213 l 539 789 l 96 789 l 96 1042 l 901 1042 m 497 1454 q 618 1410 572 1454 q 664 1296 664 1367 q 618 1181 664 1225 q 497 1136 572 1136 q 376 1181 421 1136 q 331 1296 331 1225 q 376 1410 331 1367 q 497 1454 421 1454 z "},"ă":{"ha":838,"x_min":50,"x_max":810,"o":"m 78 456 q 179 643 90 578 q 406 708 268 708 q 642 635 564 708 q 721 424 721 563 l 721 256 q 769 201 721 201 l 804 201 l 810 0 q 758 -9 786 -6 q 703 -12 731 -12 q 595 11 639 -12 q 532 88 551 35 q 444 13 500 39 q 296 -14 388 -14 q 116 40 182 -14 q 50 190 50 93 q 121 346 50 288 q 358 414 192 404 q 446 428 419 418 q 472 460 472 439 q 455 494 472 481 q 401 507 438 507 q 349 492 369 507 q 321 453 328 478 l 78 456 m 469 296 q 382 275 442 279 q 322 258 340 272 q 304 224 304 244 q 374 175 304 175 q 444 198 418 175 q 469 257 469 221 l 469 296 m 360 1054 l 360 1033 q 374 994 360 1010 q 414 979 389 979 q 452 994 438 979 q 467 1033 467 1010 l 467 1054 l 678 1054 l 678 1031 q 659 926 678 974 q 606 846 640 879 q 522 794 571 813 q 414 776 474 776 q 307 795 356 776 q 224 847 258 814 q 169 927 189 881 q 150 1031 150 974 l 150 1054 l 360 1054 z "},"â":{"ha":838,"x_min":50,"x_max":810,"o":"m 78 456 q 179 643 90 578 q 406 708 268 708 q 642 635 564 708 q 721 424 721 563 l 721 256 q 769 201 721 201 l 804 201 l 810 0 q 758 -9 786 -6 q 703 -12 731 -12 q 595 11 639 -12 q 532 88 551 35 q 444 13 500 39 q 296 -14 388 -14 q 116 40 182 -14 q 50 190 50 93 q 121 346 50 288 q 358 414 192 404 q 446 428 419 418 q 472 460 472 439 q 455 494 472 481 q 401 507 438 507 q 349 492 369 507 q 321 453 328 478 l 78 456 m 469 296 q 382 275 442 279 q 322 258 340 272 q 304 224 304 244 q 374 175 304 175 q 444 198 418 175 q 469 257 469 221 l 469 296 m 442 1113 l 710 822 l 710 803 l 478 803 l 417 869 l 356 803 l 124 803 l 124 822 l 392 1113 l 442 1113 z "},"ä":{"ha":838,"x_min":50,"x_max":810,"o":"m 78 456 q 179 643 90 578 q 406 708 268 708 q 642 635 564 708 q 721 424 721 563 l 721 256 q 769 201 721 201 l 804 201 l 810 0 q 758 -9 786 -6 q 703 -12 731 -12 q 595 11 639 -12 q 532 88 551 35 q 444 13 500 39 q 296 -14 388 -14 q 116 40 182 -14 q 50 190 50 93 q 121 346 50 288 q 358 414 192 404 q 446 428 419 418 q 472 460 472 439 q 455 494 472 481 q 401 507 438 507 q 349 492 369 507 q 321 453 328 478 l 78 456 m 469 296 q 382 275 442 279 q 322 258 340 272 q 304 224 304 244 q 374 175 304 175 q 444 198 418 175 q 469 257 469 221 l 469 296 m 239 1054 q 338 1019 301 1054 q 375 925 375 983 q 338 832 375 868 q 239 796 301 796 q 140 832 178 796 q 103 925 103 868 q 140 1019 103 983 q 239 1054 178 1054 m 596 1054 q 696 1019 658 1054 q 733 925 733 983 q 696 832 733 868 q 596 796 658 796 q 497 832 535 796 q 460 925 460 868 q 497 1019 460 983 q 596 1054 535 1054 z "},"à":{"ha":838,"x_min":50,"x_max":810,"o":"m 78 456 q 179 643 90 578 q 406 708 268 708 q 642 635 564 708 q 721 424 721 563 l 721 256 q 769 201 721 201 l 804 201 l 810 0 q 758 -9 786 -6 q 703 -12 731 -12 q 595 11 639 -12 q 532 88 551 35 q 444 13 500 39 q 296 -14 388 -14 q 116 40 182 -14 q 50 190 50 93 q 121 346 50 288 q 358 414 192 404 q 446 428 419 418 q 472 460 472 439 q 455 494 472 481 q 401 507 438 507 q 349 492 369 507 q 321 453 328 478 l 78 456 m 469 296 q 382 275 442 279 q 322 258 340 272 q 304 224 304 244 q 374 175 304 175 q 444 198 418 175 q 469 257 469 221 l 469 296 m 447 1042 l 560 806 l 286 806 l 169 1042 l 447 1042 z "},"ā":{"ha":838,"x_min":50,"x_max":810,"o":"m 78 456 q 179 643 90 578 q 406 708 268 708 q 642 635 564 708 q 721 424 721 563 l 721 256 q 769 201 721 201 l 804 201 l 810 0 q 758 -9 786 -6 q 703 -12 731 -12 q 595 11 639 -12 q 532 88 551 35 q 444 13 500 39 q 296 -14 388 -14 q 116 40 182 -14 q 50 190 50 93 q 121 346 50 288 q 358 414 192 404 q 446 428 419 418 q 472 460 472 439 q 455 494 472 481 q 401 507 438 507 q 349 492 369 507 q 321 453 328 478 l 78 456 m 469 296 q 382 275 442 279 q 322 258 340 272 q 304 224 304 244 q 374 175 304 175 q 444 198 418 175 q 469 257 469 221 l 469 296 m 671 1029 l 671 819 l 157 819 l 157 1029 l 671 1029 z "},"ã":{"ha":838,"x_min":50,"x_max":810,"o":"m 78 456 q 179 643 90 578 q 406 708 268 708 q 642 635 564 708 q 721 424 721 563 l 721 256 q 769 201 721 201 l 804 201 l 810 0 q 758 -9 786 -6 q 703 -12 731 -12 q 595 11 639 -12 q 532 88 551 35 q 444 13 500 39 q 296 -14 388 -14 q 116 40 182 -14 q 50 190 50 93 q 121 346 50 288 q 358 414 192 404 q 446 428 419 418 q 472 460 472 439 q 455 494 472 481 q 401 507 438 507 q 349 492 369 507 q 321 453 328 478 l 78 456 m 469 296 q 382 275 442 279 q 322 258 340 272 q 304 224 304 244 q 374 175 304 175 q 444 198 418 175 q 469 257 469 221 l 469 296 m 707 1039 q 657 861 707 926 q 514 796 607 796 q 449 805 472 796 q 411 826 426 814 q 384 847 396 838 q 354 856 372 856 q 318 815 318 856 l 140 815 q 191 993 140 928 q 333 1058 242 1058 q 398 1049 375 1058 q 436 1029 421 1040 q 463 1009 451 1018 q 493 1000 474 1000 q 529 1039 529 1000 l 707 1039 z "},"ć":{"ha":790,"x_min":50,"x_max":744,"o":"m 488 401 q 465 454 485 433 q 408 475 444 475 q 339 442 363 475 q 315 347 315 408 q 341 250 315 282 q 407 218 367 218 q 465 237 443 218 q 489 292 486 256 l 744 292 q 649 68 736 150 q 403 -14 561 -14 q 253 11 318 -14 q 142 83 188 36 q 74 197 97 131 q 50 347 50 264 q 75 493 50 426 q 146 608 100 560 q 257 682 192 656 q 404 708 322 708 q 542 685 481 708 q 645 622 603 663 q 713 524 688 581 q 742 401 738 468 l 488 401 m 664 1042 l 547 806 l 274 806 l 386 1042 l 664 1042 z "},"č":{"ha":790,"x_min":50,"x_max":744,"o":"m 488 401 q 465 454 485 433 q 408 475 444 475 q 339 442 363 475 q 315 347 315 408 q 341 250 315 282 q 407 218 367 218 q 465 237 443 218 q 489 292 486 256 l 744 292 q 649 68 736 150 q 403 -14 561 -14 q 253 11 318 -14 q 142 83 188 36 q 74 197 97 131 q 50 347 50 264 q 75 493 50 426 q 146 608 100 560 q 257 682 192 656 q 404 708 322 708 q 542 685 481 708 q 645 622 603 663 q 713 524 688 581 q 742 401 738 468 l 488 401 m 349 1072 l 410 1007 l 471 1072 l 703 1072 l 703 1053 l 435 764 l 385 764 l 117 1053 l 117 1072 l 349 1072 z "},"ĉ":{"ha":790,"x_min":50,"x_max":744,"o":"m 488 401 q 465 454 485 433 q 408 475 444 475 q 339 442 363 475 q 315 347 315 408 q 341 250 315 282 q 407 218 367 218 q 465 237 443 218 q 489 292 486 256 l 744 292 q 649 68 736 150 q 403 -14 561 -14 q 253 11 318 -14 q 142 83 188 36 q 74 197 97 131 q 50 347 50 264 q 75 493 50 426 q 146 608 100 560 q 257 682 192 656 q 404 708 322 708 q 542 685 481 708 q 645 622 603 663 q 713 524 688 581 q 742 401 738 468 l 488 401 m 432 1113 l 700 822 l 700 803 l 468 803 l 407 869 l 346 803 l 114 803 l 114 822 l 382 1113 l 432 1113 z "},"ċ":{"ha":790,"x_min":50,"x_max":744,"o":"m 488 401 q 465 454 485 433 q 408 475 444 475 q 339 442 363 475 q 315 347 315 408 q 341 250 315 282 q 407 218 367 218 q 465 237 443 218 q 489 292 486 256 l 744 292 q 649 68 736 150 q 403 -14 561 -14 q 253 11 318 -14 q 142 83 188 36 q 74 197 97 131 q 50 347 50 264 q 75 493 50 426 q 146 608 100 560 q 257 682 192 656 q 404 708 322 708 q 542 685 481 708 q 645 622 603 663 q 713 524 688 581 q 742 401 738 468 l 488 401 m 411 1075 q 522 1035 481 1075 q 564 933 564 996 q 522 831 564 871 q 411 792 481 792 q 299 831 340 792 q 257 933 257 871 q 299 1035 257 996 q 411 1075 340 1075 z "},"ď":{"ha":1078,"x_min":50,"x_max":1124,"o":"m 535 0 l 535 93 q 338 -14 474 -14 q 224 7 276 -14 q 133 72 171 28 q 72 185 94 117 q 50 347 50 253 q 72 505 50 438 q 134 617 94 572 q 228 685 174 663 q 347 708 282 708 q 510 639 450 708 l 510 1042 l 781 1042 l 781 0 l 535 0 m 515 347 q 488 444 515 413 q 415 476 460 476 q 343 445 371 476 q 315 347 315 414 q 341 251 315 285 q 414 218 367 218 q 487 251 458 218 q 515 347 515 285 m 868 750 q 953 813 946 758 q 890 855 913 824 q 867 931 867 886 q 900 1023 867 986 q 992 1060 933 1060 q 1088 1019 1053 1060 q 1124 914 1124 978 q 1108 808 1124 857 q 1061 721 1093 758 q 981 659 1029 683 q 868 629 933 635 l 868 750 z "},"é":{"ha":821,"x_min":50,"x_max":760,"o":"m 318 281 q 345 211 319 236 q 413 186 371 186 q 466 199 446 186 q 494 233 486 213 l 754 210 q 632 40 722 94 q 407 -14 542 -14 q 145 81 240 -14 q 50 347 50 175 q 75 494 50 428 q 147 608 100 560 q 261 682 194 656 q 410 708 328 708 q 558 683 493 708 q 669 610 624 657 q 737 499 714 564 q 760 354 760 433 l 760 281 l 318 281 m 492 424 q 469 483 490 460 q 410 507 449 507 q 347 483 369 507 q 321 424 324 460 l 492 424 m 674 1042 l 557 806 l 283 806 l 396 1042 l 674 1042 z "},"ĕ":{"ha":821,"x_min":50,"x_max":760,"o":"m 318 281 q 345 211 319 236 q 413 186 371 186 q 466 199 446 186 q 494 233 486 213 l 754 210 q 632 40 722 94 q 407 -14 542 -14 q 145 81 240 -14 q 50 347 50 175 q 75 494 50 428 q 147 608 100 560 q 261 682 194 656 q 410 708 328 708 q 558 683 493 708 q 669 610 624 657 q 737 499 714 564 q 760 354 760 433 l 760 281 l 318 281 m 492 424 q 469 483 490 460 q 410 507 449 507 q 347 483 369 507 q 321 424 324 460 l 492 424 m 364 1054 l 364 1033 q 378 994 364 1010 q 418 979 393 979 q 456 994 442 979 q 471 1033 471 1010 l 471 1054 l 682 1054 l 682 1031 q 663 926 682 974 q 610 846 644 879 q 526 794 575 813 q 418 776 478 776 q 311 795 360 776 q 228 847 263 814 q 174 927 193 881 q 154 1031 154 974 l 154 1054 l 364 1054 z "},"ê":{"ha":821,"x_min":50,"x_max":760,"o":"m 318 281 q 345 211 319 236 q 413 186 371 186 q 466 199 446 186 q 494 233 486 213 l 754 210 q 632 40 722 94 q 407 -14 542 -14 q 145 81 240 -14 q 50 347 50 175 q 75 494 50 428 q 147 608 100 560 q 261 682 194 656 q 410 708 328 708 q 558 683 493 708 q 669 610 624 657 q 737 499 714 564 q 760 354 760 433 l 760 281 l 318 281 m 492 424 q 469 483 490 460 q 410 507 449 507 q 347 483 369 507 q 321 424 324 460 l 492 424 m 443 1113 l 711 822 l 711 803 l 479 803 l 418 869 l 357 803 l 125 803 l 125 822 l 393 1113 l 443 1113 z "},"ė":{"ha":821,"x_min":50,"x_max":760,"o":"m 318 281 q 345 211 319 236 q 413 186 371 186 q 466 199 446 186 q 494 233 486 213 l 754 210 q 632 40 722 94 q 407 -14 542 -14 q 145 81 240 -14 q 50 347 50 175 q 75 494 50 428 q 147 608 100 560 q 261 682 194 656 q 410 708 328 708 q 558 683 493 708 q 669 610 624 657 q 737 499 714 564 q 760 354 760 433 l 760 281 l 318 281 m 492 424 q 469 483 490 460 q 410 507 449 507 q 347 483 369 507 q 321 424 324 460 l 492 424 m 418 1075 q 529 1035 488 1075 q 571 933 571 996 q 529 831 571 871 q 418 792 488 792 q 306 831 347 792 q 264 933 264 871 q 306 1035 264 996 q 418 1075 347 1075 z "},"ē":{"ha":821,"x_min":50,"x_max":760,"o":"m 318 281 q 345 211 319 236 q 413 186 371 186 q 466 199 446 186 q 494 233 486 213 l 754 210 q 632 40 722 94 q 407 -14 542 -14 q 145 81 240 -14 q 50 347 50 175 q 75 494 50 428 q 147 608 100 560 q 261 682 194 656 q 410 708 328 708 q 558 683 493 708 q 669 610 624 657 q 737 499 714 564 q 760 354 760 433 l 760 281 l 318 281 m 492 424 q 469 483 490 460 q 410 507 449 507 q 347 483 369 507 q 321 424 324 460 l 492 424 m 678 1029 l 678 819 l 164 819 l 164 1029 l 678 1029 z "},"ğ":{"ha":890,"x_min":47,"x_max":831,"o":"m 831 503 l 718 503 q 734 465 729 488 q 739 417 739 442 q 717 328 739 371 q 654 251 696 285 q 553 198 613 218 q 417 178 493 178 q 396 178 406 178 q 376 179 386 178 q 368 150 368 167 q 417 111 368 111 l 531 111 q 733 50 661 111 q 804 -119 804 -11 q 779 -227 804 -176 q 703 -316 754 -278 q 575 -377 651 -354 q 397 -400 499 -400 q 134 -333 221 -400 q 47 -150 47 -265 q 79 -40 47 -89 q 168 38 111 10 q 141 83 149 57 q 133 136 133 108 q 188 244 133 204 q 118 331 142 281 q 94 442 94 381 q 114 546 94 497 q 173 631 133 594 q 272 688 213 667 q 410 708 331 708 l 831 708 l 831 503 m 364 -75 q 319 -90 335 -75 q 303 -131 303 -106 q 329 -176 303 -160 q 411 -193 356 -193 q 517 -174 485 -193 q 550 -121 550 -154 q 535 -87 550 -100 q 493 -75 521 -75 l 364 -75 m 417 513 q 365 493 383 513 q 347 442 347 474 q 365 390 347 410 q 417 371 383 371 q 467 390 449 371 q 486 442 486 408 q 469 492 486 472 q 417 513 453 513 m 378 1058 l 378 1038 q 392 999 378 1014 q 432 983 407 983 q 470 999 456 983 q 485 1038 485 1014 l 485 1058 l 696 1058 l 696 1035 q 677 931 696 978 q 624 850 658 883 q 540 799 589 817 q 432 781 492 781 q 325 799 374 781 q 242 851 276 818 q 188 931 207 885 q 168 1035 168 978 l 168 1058 l 378 1058 z "},"ĝ":{"ha":890,"x_min":47,"x_max":831,"o":"m 831 503 l 718 503 q 734 465 729 488 q 739 417 739 442 q 717 328 739 371 q 654 251 696 285 q 553 198 613 218 q 417 178 493 178 q 396 178 406 178 q 376 179 386 178 q 368 150 368 167 q 417 111 368 111 l 531 111 q 733 50 661 111 q 804 -119 804 -11 q 779 -227 804 -176 q 703 -316 754 -278 q 575 -377 651 -354 q 397 -400 499 -400 q 134 -333 221 -400 q 47 -150 47 -265 q 79 -40 47 -89 q 168 38 111 10 q 141 83 149 57 q 133 136 133 108 q 188 244 133 204 q 118 331 142 281 q 94 442 94 381 q 114 546 94 497 q 173 631 133 594 q 272 688 213 667 q 410 708 331 708 l 831 708 l 831 503 m 364 -75 q 319 -90 335 -75 q 303 -131 303 -106 q 329 -176 303 -160 q 411 -193 356 -193 q 517 -174 485 -193 q 550 -121 550 -154 q 535 -87 550 -100 q 493 -75 521 -75 l 364 -75 m 417 513 q 365 493 383 513 q 347 442 347 474 q 365 390 347 410 q 417 371 383 371 q 467 390 449 371 q 486 442 486 408 q 469 492 486 472 q 417 513 453 513 m 461 1113 l 729 822 l 729 803 l 497 803 l 436 869 l 375 803 l 143 803 l 143 822 l 411 1113 l 461 1113 z "},"ģ":{"ha":890,"x_min":47,"x_max":831,"o":"m 831 503 l 718 503 q 734 465 729 488 q 739 417 739 442 q 717 328 739 371 q 654 251 696 285 q 553 198 613 218 q 417 178 493 178 q 396 178 406 178 q 376 179 386 178 q 368 150 368 167 q 417 111 368 111 l 531 111 q 733 50 661 111 q 804 -119 804 -11 q 779 -227 804 -176 q 703 -316 754 -278 q 575 -377 651 -354 q 397 -400 499 -400 q 134 -333 221 -400 q 47 -150 47 -265 q 79 -40 47 -89 q 168 38 111 10 q 141 83 149 57 q 133 136 133 108 q 188 244 133 204 q 118 331 142 281 q 94 442 94 381 q 114 546 94 497 q 173 631 133 594 q 272 688 213 667 q 410 708 331 708 l 831 708 l 831 503 m 364 -75 q 319 -90 335 -75 q 303 -131 303 -106 q 329 -176 303 -160 q 411 -193 356 -193 q 517 -174 485 -193 q 550 -121 550 -154 q 535 -87 550 -100 q 493 -75 521 -75 l 364 -75 m 417 513 q 365 493 383 513 q 347 442 347 474 q 365 390 347 410 q 417 371 383 371 q 467 390 449 371 q 486 442 486 408 q 469 492 486 472 q 417 513 453 513 m 561 1101 q 476 1039 483 1093 q 540 997 517 1028 q 563 921 563 965 q 529 828 563 865 q 438 792 496 792 q 341 833 376 792 q 306 937 306 874 q 321 1044 306 994 q 368 1131 336 1093 q 448 1192 400 1168 q 561 1222 496 1217 l 561 1101 z "},"ġ":{"ha":890,"x_min":47,"x_max":831,"o":"m 831 503 l 718 503 q 734 465 729 488 q 739 417 739 442 q 717 328 739 371 q 654 251 696 285 q 553 198 613 218 q 417 178 493 178 q 396 178 406 178 q 376 179 386 178 q 368 150 368 167 q 417 111 368 111 l 531 111 q 733 50 661 111 q 804 -119 804 -11 q 779 -227 804 -176 q 703 -316 754 -278 q 575 -377 651 -354 q 397 -400 499 -400 q 134 -333 221 -400 q 47 -150 47 -265 q 79 -40 47 -89 q 168 38 111 10 q 141 83 149 57 q 133 136 133 108 q 188 244 133 204 q 118 331 142 281 q 94 442 94 381 q 114 546 94 497 q 173 631 133 594 q 272 688 213 667 q 410 708 331 708 l 831 708 l 831 503 m 364 -75 q 319 -90 335 -75 q 303 -131 303 -106 q 329 -176 303 -160 q 411 -193 356 -193 q 517 -174 485 -193 q 550 -121 550 -154 q 535 -87 550 -100 q 493 -75 521 -75 l 364 -75 m 417 513 q 365 493 383 513 q 347 442 347 474 q 365 390 347 410 q 417 371 383 371 q 467 390 449 371 q 486 442 486 408 q 469 492 486 472 q 417 513 453 513 m 426 1075 q 538 1035 496 1075 q 579 933 579 996 q 538 831 579 871 q 426 792 496 792 q 314 831 356 792 q 272 933 272 871 q 314 1035 272 996 q 426 1075 356 1075 z "},"ĥ":{"ha":881,"x_min":-71,"x_max":800,"o":"m 354 1042 l 354 621 q 536 708 418 708 q 733 631 667 708 q 800 410 800 554 l 800 0 l 531 0 l 531 368 q 447 465 531 465 q 380 436 406 465 q 354 360 354 407 l 354 0 l 85 0 l 85 1042 l 354 1042 m 247 1424 l 515 1133 l 515 1114 l 283 1114 l 222 1181 l 161 1114 l -71 1114 l -71 1133 l 197 1424 l 247 1424 z "},"í":{"ha":440,"x_min":85,"x_max":475,"o":"m 354 694 l 354 0 l 85 0 l 85 694 l 354 694 m 475 1042 l 358 806 l 85 806 l 197 1042 l 475 1042 z "},"ĭ":{"ha":440,"x_min":-42,"x_max":486,"o":"m 354 694 l 354 0 l 85 0 l 85 694 l 354 694 m 168 1054 l 168 1033 q 183 994 168 1010 q 222 979 197 979 q 260 994 246 979 q 275 1033 275 1010 l 275 1054 l 486 1054 l 486 1031 q 467 926 486 974 q 414 846 449 879 q 331 794 379 813 q 222 776 282 776 q 115 795 164 776 q 32 847 67 814 q -22 927 -3 881 q -42 1031 -42 974 l -42 1054 l 168 1054 z "},"î":{"ha":440,"x_min":-72,"x_max":514,"o":"m 354 694 l 354 0 l 85 0 l 85 694 l 354 694 m 246 1113 l 514 822 l 514 803 l 282 803 l 221 869 l 160 803 l -72 803 l -72 822 l 196 1113 l 246 1113 z "},"ï":{"ha":440,"x_min":-61,"x_max":503,"o":"m 354 694 l 354 0 l 85 0 l 85 694 l 354 694 m 64 1053 q 156 1017 122 1053 q 190 924 190 981 q 156 830 190 865 q 64 794 121 794 q -27 830 7 794 q -61 924 -61 865 q -27 1017 -61 981 q 64 1053 7 1053 m 376 1053 q 469 1017 435 1053 q 503 924 503 981 q 469 830 503 865 q 376 794 435 794 q 285 830 319 794 q 251 924 251 865 q 285 1017 251 981 q 376 1053 319 1053 z "},"ì":{"ha":440,"x_min":-35,"x_max":356,"o":"m 354 694 l 354 0 l 85 0 l 85 694 l 354 694 m 243 1042 l 356 806 l 82 806 l -35 1042 l 243 1042 z "},"ī":{"ha":440,"x_min":3,"x_max":443,"o":"m 354 694 l 354 0 l 85 0 l 85 694 l 354 694 m 443 1029 l 443 819 l 3 819 l 3 1029 l 443 1029 z "},"į":{"ha":440,"x_min":46,"x_max":374,"o":"m 354 694 l 354 0 q 290 -22 308 -4 q 271 -65 271 -40 q 293 -116 271 -97 q 360 -135 315 -135 l 360 -340 q 124 -280 201 -340 q 46 -107 46 -219 q 85 11 46 -39 l 85 694 l 354 694 m 219 1075 q 332 1035 290 1075 q 374 933 374 996 q 332 831 374 871 q 219 792 290 792 q 108 831 150 792 q 65 933 65 871 q 108 1035 65 996 q 219 1075 150 1075 z "},"ĵ":{"ha":440,"x_min":-72,"x_max":514,"o":"m 354 694 l 354 -36 q 272 -276 354 -199 q 40 -354 190 -354 l -42 -354 l -42 -117 l -1 -117 q 61 -93 38 -117 q 85 -26 85 -69 l 85 694 l 354 694 m 246 1113 l 514 822 l 514 803 l 282 803 l 221 869 l 160 803 l -72 803 l -72 822 l 196 1113 l 246 1113 z "},"ķ":{"ha":874,"x_min":85,"x_max":858,"o":"m 354 1042 l 354 451 l 517 694 l 829 694 l 583 397 l 858 0 l 557 0 l 415 224 l 354 168 l 354 0 l 85 0 l 85 1042 l 354 1042 m 315 -393 q 400 -331 393 -385 q 337 -288 360 -319 q 314 -212 314 -257 q 347 -120 314 -157 q 439 -83 381 -83 q 535 -124 500 -83 q 571 -229 571 -165 q 556 -335 571 -286 q 508 -422 540 -385 q 428 -484 476 -460 q 315 -514 381 -508 l 315 -393 z "},"ĺ":{"ha":440,"x_min":85,"x_max":475,"o":"m 354 1042 l 354 0 l 85 0 l 85 1042 l 354 1042 m 475 1381 l 358 1144 l 85 1144 l 197 1381 l 475 1381 z "},"ľ":{"ha":651,"x_min":85,"x_max":697,"o":"m 354 1042 l 354 0 l 85 0 l 85 1042 l 354 1042 m 442 750 q 526 813 519 758 q 463 855 486 824 q 440 931 440 886 q 474 1023 440 986 q 565 1060 507 1060 q 662 1019 626 1060 q 697 914 697 978 q 682 808 697 857 q 635 721 667 758 q 555 659 603 683 q 442 629 507 635 l 442 750 z "},"ļ":{"ha":440,"x_min":85,"x_max":354,"o":"m 354 1042 l 354 0 l 85 0 l 85 1042 l 354 1042 m 93 -393 q 178 -331 171 -385 q 115 -288 138 -319 q 92 -212 92 -257 q 125 -120 92 -157 q 217 -83 158 -83 q 313 -124 278 -83 q 349 -229 349 -165 q 333 -335 349 -286 q 286 -422 318 -385 q 206 -484 254 -460 q 93 -514 158 -508 l 93 -393 z "},"ŀ":{"ha":711,"x_min":85,"x_max":747,"o":"m 354 1042 l 354 0 l 85 0 l 85 1042 l 354 1042 m 594 650 q 706 610 664 650 q 747 508 747 571 q 706 406 747 446 q 594 367 664 367 q 482 406 524 367 q 440 508 440 446 q 482 610 440 571 q 594 650 524 650 z "},"ń":{"ha":889,"x_min":85,"x_max":811,"o":"m 332 694 l 332 581 q 415 676 360 643 q 540 708 471 708 q 742 632 672 708 q 811 410 811 556 l 811 0 l 540 0 l 540 368 q 453 465 540 465 q 382 435 410 465 q 354 357 354 406 l 354 0 l 85 0 l 85 694 l 332 694 m 713 1042 l 596 806 l 322 806 l 435 1042 l 713 1042 z "},"ŉ":{"ha":1083,"x_min":-12,"x_max":1004,"o":"m 525 694 l 525 581 q 608 676 553 643 q 733 708 664 708 q 935 632 865 708 q 1004 410 1004 556 l 1004 0 l 733 0 l 733 368 q 646 465 733 465 q 575 435 603 465 q 547 357 547 406 l 547 0 l 278 0 l 278 694 l 525 694 m -11 750 q 74 813 67 758 q 10 855 33 824 q -12 931 -12 886 q 21 1023 -12 986 q 113 1060 54 1060 q 209 1019 174 1060 q 244 914 244 978 q 229 808 244 857 q 182 721 214 758 q 102 659 150 683 q -11 629 54 635 l -11 750 z "},"ň":{"ha":889,"x_min":85,"x_max":811,"o":"m 332 694 l 332 581 q 415 676 360 643 q 540 708 471 708 q 742 632 672 708 q 811 410 811 556 l 811 0 l 540 0 l 540 368 q 453 465 540 465 q 382 435 410 465 q 354 357 354 406 l 354 0 l 85 0 l 85 694 l 332 694 m 397 1072 l 458 1007 l 519 1072 l 751 1072 l 751 1053 l 483 764 l 433 764 l 165 1053 l 165 1072 l 397 1072 z "},"ņ":{"ha":889,"x_min":85,"x_max":811,"o":"m 332 694 l 332 581 q 415 676 360 643 q 540 708 471 708 q 742 632 672 708 q 811 410 811 556 l 811 0 l 540 0 l 540 368 q 453 465 540 465 q 382 435 410 465 q 354 357 354 406 l 354 0 l 85 0 l 85 694 l 332 694 m 319 -381 q 404 -318 397 -372 q 341 -276 364 -307 q 318 -200 318 -244 q 351 -108 318 -144 q 443 -71 385 -71 q 540 -112 504 -71 q 575 -217 575 -153 q 560 -323 575 -274 q 513 -410 544 -372 q 433 -472 481 -447 q 319 -501 385 -496 l 319 -381 z "},"ó":{"ha":825,"x_min":50,"x_max":775,"o":"m 413 708 q 558 684 492 708 q 673 614 625 660 q 748 501 721 568 q 775 347 775 433 q 748 195 775 263 q 673 81 721 128 q 558 10 625 35 q 413 -14 492 -14 q 267 10 333 -14 q 152 81 200 35 q 77 194 104 126 q 50 347 50 261 q 77 499 50 432 q 152 612 104 565 q 267 683 200 658 q 413 708 333 708 m 413 476 q 315 347 315 476 q 340 251 315 285 q 413 218 364 218 q 510 347 510 218 q 485 443 510 410 q 413 476 460 476 m 671 1042 l 554 806 l 281 806 l 393 1042 l 671 1042 z "},"ŏ":{"ha":825,"x_min":50,"x_max":775,"o":"m 413 708 q 558 684 492 708 q 673 614 625 660 q 748 501 721 568 q 775 347 775 433 q 748 195 775 263 q 673 81 721 128 q 558 10 625 35 q 413 -14 492 -14 q 267 10 333 -14 q 152 81 200 35 q 77 194 104 126 q 50 347 50 261 q 77 499 50 432 q 152 612 104 565 q 267 683 200 658 q 413 708 333 708 m 413 476 q 315 347 315 476 q 340 251 315 285 q 413 218 364 218 q 510 347 510 218 q 485 443 510 410 q 413 476 460 476 m 358 1054 l 358 1033 q 373 994 358 1010 q 413 979 388 979 q 451 994 436 979 q 465 1033 465 1010 l 465 1054 l 676 1054 l 676 1031 q 658 926 676 974 q 604 846 639 879 q 521 794 569 813 q 413 776 472 776 q 306 795 354 776 q 222 847 257 814 q 168 927 188 881 q 149 1031 149 974 l 149 1054 l 358 1054 z "},"ô":{"ha":825,"x_min":50,"x_max":775,"o":"m 413 708 q 558 684 492 708 q 673 614 625 660 q 748 501 721 568 q 775 347 775 433 q 748 195 775 263 q 673 81 721 128 q 558 10 625 35 q 413 -14 492 -14 q 267 10 333 -14 q 152 81 200 35 q 77 194 104 126 q 50 347 50 261 q 77 499 50 432 q 152 612 104 565 q 267 683 200 658 q 413 708 333 708 m 413 476 q 315 347 315 476 q 340 251 315 285 q 413 218 364 218 q 510 347 510 218 q 485 443 510 410 q 413 476 460 476 m 436 1113 l 704 822 l 704 803 l 472 803 l 411 869 l 350 803 l 118 803 l 118 822 l 386 1113 l 436 1113 z "},"ö":{"ha":825,"x_min":50,"x_max":775,"o":"m 413 708 q 558 684 492 708 q 673 614 625 660 q 748 501 721 568 q 775 347 775 433 q 748 195 775 263 q 673 81 721 128 q 558 10 625 35 q 413 -14 492 -14 q 267 10 333 -14 q 152 81 200 35 q 77 194 104 126 q 50 347 50 261 q 77 499 50 432 q 152 612 104 565 q 267 683 200 658 q 413 708 333 708 m 413 476 q 315 347 315 476 q 340 251 315 285 q 413 218 364 218 q 510 347 510 218 q 485 443 510 410 q 413 476 460 476 m 233 1054 q 333 1019 296 1054 q 369 925 369 983 q 333 832 369 868 q 233 796 296 796 q 135 832 172 796 q 97 925 97 868 q 135 1019 97 983 q 233 1054 172 1054 m 590 1054 q 690 1019 653 1054 q 728 925 728 983 q 690 832 728 868 q 590 796 653 796 q 492 832 529 796 q 454 925 454 868 q 492 1019 454 983 q 590 1054 529 1054 z "},"ò":{"ha":825,"x_min":50,"x_max":775,"o":"m 413 708 q 558 684 492 708 q 673 614 625 660 q 748 501 721 568 q 775 347 775 433 q 748 195 775 263 q 673 81 721 128 q 558 10 625 35 q 413 -14 492 -14 q 267 10 333 -14 q 152 81 200 35 q 77 194 104 126 q 50 347 50 261 q 77 499 50 432 q 152 612 104 565 q 267 683 200 658 q 413 708 333 708 m 413 476 q 315 347 315 476 q 340 251 315 285 q 413 218 364 218 q 510 347 510 218 q 485 443 510 410 q 413 476 460 476 m 464 1042 l 576 806 l 303 806 l 186 1042 l 464 1042 z "},"õ":{"ha":825,"x_min":50,"x_max":775,"o":"m 413 708 q 558 684 492 708 q 673 614 625 660 q 748 501 721 568 q 775 347 775 433 q 748 195 775 263 q 673 81 721 128 q 558 10 625 35 q 413 -14 492 -14 q 267 10 333 -14 q 152 81 200 35 q 77 194 104 126 q 50 347 50 261 q 77 499 50 432 q 152 612 104 565 q 267 683 200 658 q 413 708 333 708 m 413 476 q 315 347 315 476 q 340 251 315 285 q 413 218 364 218 q 510 347 510 218 q 485 443 510 410 q 413 476 460 476 m 696 1039 q 646 861 696 926 q 503 796 596 796 q 438 805 461 796 q 400 826 415 814 q 373 847 385 838 q 343 856 361 856 q 307 815 307 856 l 129 815 q 180 993 129 928 q 322 1058 231 1058 q 387 1049 364 1058 q 425 1029 410 1040 q 451 1009 440 1018 q 482 1000 463 1000 q 518 1039 518 1000 l 696 1039 z "},"ŕ":{"ha":597,"x_min":85,"x_max":581,"o":"m 328 694 l 328 581 q 406 675 356 643 q 521 707 456 707 l 556 707 l 556 463 l 476 463 q 389 427 422 463 q 356 336 356 392 l 356 0 l 85 0 l 85 694 l 328 694 m 581 1042 l 464 806 l 190 806 l 303 1042 l 581 1042 z "},"ř":{"ha":597,"x_min":39,"x_max":625,"o":"m 328 694 l 328 581 q 406 675 356 643 q 521 707 456 707 l 556 707 l 556 463 l 476 463 q 389 427 422 463 q 356 336 356 392 l 356 0 l 85 0 l 85 694 l 328 694 m 271 1072 l 332 1007 l 393 1072 l 625 1072 l 625 1053 l 357 764 l 307 764 l 39 1053 l 39 1072 l 271 1072 z "},"ŗ":{"ha":597,"x_min":85,"x_max":556,"o":"m 328 694 l 328 581 q 406 675 356 643 q 521 707 456 707 l 556 707 l 556 463 l 476 463 q 389 427 422 463 q 356 336 356 392 l 356 0 l 85 0 l 85 694 l 328 694 m 93 -393 q 178 -331 171 -385 q 115 -288 138 -319 q 92 -212 92 -257 q 125 -120 92 -157 q 217 -83 158 -83 q 313 -124 278 -83 q 349 -229 349 -165 q 333 -335 349 -286 q 286 -422 318 -385 q 206 -484 254 -460 q 93 -514 158 -508 l 93 -393 z "},"ś":{"ha":771,"x_min":51,"x_max":721,"o":"m 446 481 q 382 525 435 525 q 328 488 328 525 q 342 458 328 468 q 400 444 357 447 q 553 423 492 439 q 652 379 615 407 q 705 312 689 351 q 721 218 721 272 q 640 48 721 110 q 403 -14 558 -14 q 153 44 236 -14 q 51 214 71 103 l 325 214 q 400 168 343 168 q 463 211 463 168 q 447 242 463 231 q 385 257 431 254 q 240 277 299 261 q 144 322 181 293 q 90 392 107 351 q 74 485 74 432 q 92 573 74 532 q 149 644 111 614 q 245 692 188 675 q 381 708 303 708 q 617 647 536 708 q 708 481 697 586 l 446 481 m 642 1042 l 525 806 l 251 806 l 364 1042 l 642 1042 z "},"š":{"ha":771,"x_min":51,"x_max":721,"o":"m 446 481 q 382 525 435 525 q 328 488 328 525 q 342 458 328 468 q 400 444 357 447 q 553 423 492 439 q 652 379 615 407 q 705 312 689 351 q 721 218 721 272 q 640 48 721 110 q 403 -14 558 -14 q 153 44 236 -14 q 51 214 71 103 l 325 214 q 400 168 343 168 q 463 211 463 168 q 447 242 463 231 q 385 257 431 254 q 240 277 299 261 q 144 322 181 293 q 90 392 107 351 q 74 485 74 432 q 92 573 74 532 q 149 644 111 614 q 245 692 188 675 q 381 708 303 708 q 617 647 536 708 q 708 481 697 586 l 446 481 m 328 1072 l 389 1007 l 450 1072 l 682 1072 l 682 1053 l 414 764 l 364 764 l 96 1053 l 96 1072 l 328 1072 z "},"ť":{"ha":844,"x_min":43,"x_max":890,"o":"m 72 694 q 178 803 178 694 l 178 878 l 424 878 l 424 694 l 568 694 l 568 481 l 424 481 l 424 307 q 444 240 424 261 q 506 219 464 219 q 537 220 521 219 q 568 222 553 221 l 576 0 q 515 -10 549 -7 q 449 -14 481 -14 q 224 60 294 -14 q 154 275 154 135 l 154 481 l 43 481 l 43 694 l 72 694 m 635 750 q 719 813 713 758 q 656 855 679 824 q 633 931 633 886 q 667 1023 633 986 q 758 1060 700 1060 q 855 1019 819 1060 q 890 914 890 978 q 875 808 890 857 q 828 721 860 758 q 748 659 796 683 q 635 629 700 635 l 635 750 z "},"ţ":{"ha":619,"x_min":43,"x_max":576,"o":"m 72 694 q 178 803 178 694 l 178 878 l 424 878 l 424 694 l 568 694 l 568 481 l 424 481 l 424 307 q 444 240 424 261 q 506 219 464 219 q 537 220 521 219 q 568 222 553 221 l 576 0 q 515 -10 549 -7 q 449 -14 481 -14 q 224 60 294 -14 q 154 275 154 135 l 154 481 l 43 481 l 43 694 l 72 694 m 250 -393 q 335 -331 328 -385 q 272 -288 294 -319 q 249 -212 249 -257 q 282 -120 249 -157 q 374 -83 315 -83 q 470 -124 435 -83 q 506 -229 506 -165 q 490 -335 506 -286 q 443 -422 475 -385 q 363 -484 411 -460 q 250 -514 315 -508 l 250 -393 z "},"ú":{"ha":875,"x_min":78,"x_max":790,"o":"m 347 694 l 347 325 q 369 252 347 276 q 428 228 390 228 q 494 258 468 228 q 519 335 519 288 l 519 694 l 790 694 l 790 0 l 543 0 l 543 111 q 463 17 515 49 q 340 -14 411 -14 q 145 62 213 -14 q 78 285 78 138 l 78 694 l 347 694 m 675 1042 l 558 806 l 285 806 l 397 1042 l 675 1042 z "},"û":{"ha":875,"x_min":78,"x_max":790,"o":"m 347 694 l 347 325 q 369 252 347 276 q 428 228 390 228 q 494 258 468 228 q 519 335 519 288 l 519 694 l 790 694 l 790 0 l 543 0 l 543 111 q 463 17 515 49 q 340 -14 411 -14 q 145 62 213 -14 q 78 285 78 138 l 78 694 l 347 694 m 461 1113 l 729 822 l 729 803 l 497 803 l 436 869 l 375 803 l 143 803 l 143 822 l 411 1113 l 461 1113 z "},"ü":{"ha":875,"x_min":78,"x_max":790,"o":"m 347 694 l 347 325 q 369 252 347 276 q 428 228 390 228 q 494 258 468 228 q 519 335 519 288 l 519 694 l 790 694 l 790 0 l 543 0 l 543 111 q 463 17 515 49 q 340 -14 411 -14 q 145 62 213 -14 q 78 285 78 138 l 78 694 l 347 694 m 258 1054 q 358 1019 321 1054 q 394 925 394 983 q 358 832 394 868 q 258 796 321 796 q 160 832 197 796 q 122 925 122 868 q 160 1019 122 983 q 258 1054 197 1054 m 615 1054 q 715 1019 678 1054 q 753 925 753 983 q 715 832 753 868 q 615 796 678 796 q 517 832 554 796 q 479 925 479 868 q 517 1019 479 983 q 615 1054 554 1054 z "},"ű":{"ha":875,"x_min":78,"x_max":803,"o":"m 347 694 l 347 325 q 369 252 347 276 q 428 228 390 228 q 494 258 468 228 q 519 335 519 288 l 519 694 l 790 694 l 790 0 l 543 0 l 543 111 q 463 17 515 49 q 340 -14 411 -14 q 145 62 213 -14 q 78 285 78 138 l 78 694 l 347 694 m 499 1042 l 389 806 l 172 806 l 264 1042 l 499 1042 m 803 1042 l 676 806 l 460 806 l 572 1042 l 803 1042 z "},"ù":{"ha":875,"x_min":78,"x_max":790,"o":"m 347 694 l 347 325 q 369 252 347 276 q 428 228 390 228 q 494 258 468 228 q 519 335 519 288 l 519 694 l 790 694 l 790 0 l 543 0 l 543 111 q 463 17 515 49 q 340 -14 411 -14 q 145 62 213 -14 q 78 285 78 138 l 78 694 l 347 694 m 464 1042 l 576 806 l 303 806 l 186 1042 l 464 1042 z "},"ū":{"ha":875,"x_min":78,"x_max":790,"o":"m 347 694 l 347 325 q 369 252 347 276 q 428 228 390 228 q 494 258 468 228 q 519 335 519 288 l 519 694 l 790 694 l 790 0 l 543 0 l 543 111 q 463 17 515 49 q 340 -14 411 -14 q 145 62 213 -14 q 78 285 78 138 l 78 694 l 347 694 m 694 1029 l 694 819 l 181 819 l 181 1029 l 694 1029 z "},"ų":{"ha":875,"x_min":78,"x_max":793,"o":"m 347 694 l 347 325 q 369 252 347 276 q 428 228 390 228 q 494 258 468 228 q 519 335 519 288 l 519 694 l 790 694 l 790 0 q 708 -68 708 -8 q 731 -117 708 -99 q 793 -135 753 -135 l 793 -340 q 658 -324 714 -340 q 565 -277 601 -307 q 511 -205 528 -247 q 494 -111 494 -162 q 543 13 494 -39 l 543 111 q 463 17 515 49 q 340 -14 411 -14 q 145 62 213 -14 q 78 285 78 138 l 78 694 l 347 694 z "},"ů":{"ha":875,"x_min":78,"x_max":790,"o":"m 347 694 l 347 325 q 369 252 347 276 q 428 228 390 228 q 494 258 468 228 q 519 335 519 288 l 519 694 l 790 694 l 790 0 l 543 0 l 543 111 q 463 17 515 49 q 340 -14 411 -14 q 145 62 213 -14 q 78 285 78 138 l 78 694 l 347 694 m 436 1172 q 520 1157 482 1172 q 586 1115 558 1142 q 630 1051 614 1088 q 646 972 646 1015 q 630 892 646 929 q 586 828 614 856 q 520 786 558 801 q 436 771 482 771 q 352 786 390 771 q 286 828 314 801 q 243 892 258 856 q 228 972 228 929 q 243 1051 228 1015 q 286 1115 258 1088 q 352 1157 314 1142 q 436 1172 390 1172 m 436 1013 q 408 1001 418 1013 q 397 972 397 989 q 408 942 397 953 q 436 931 418 931 q 465 942 454 931 q 475 972 475 953 q 465 1001 475 990 q 436 1013 454 1013 z "},"ũ":{"ha":875,"x_min":78,"x_max":790,"o":"m 347 694 l 347 325 q 369 252 347 276 q 428 228 390 228 q 494 258 468 228 q 519 335 519 288 l 519 694 l 790 694 l 790 0 l 543 0 l 543 111 q 463 17 515 49 q 340 -14 411 -14 q 145 62 213 -14 q 78 285 78 138 l 78 694 l 347 694 m 721 1039 q 671 861 721 926 q 528 796 621 796 q 463 805 486 796 q 425 826 440 814 q 398 847 410 838 q 368 856 386 856 q 332 815 332 856 l 154 815 q 205 993 154 928 q 347 1058 256 1058 q 412 1049 389 1058 q 450 1029 435 1040 q 476 1009 465 1018 q 507 1000 488 1000 q 543 1039 543 1000 l 721 1039 z "},"ŵ":{"ha":1150,"x_min":26,"x_max":1124,"o":"m 300 694 l 388 264 l 486 694 l 668 694 l 778 264 l 851 694 l 1124 694 l 936 -1 l 661 -1 l 575 342 l 494 -1 l 221 -1 l 26 694 l 300 694 m 603 1113 l 871 822 l 871 803 l 639 803 l 578 869 l 517 803 l 285 803 l 285 822 l 553 1113 l 603 1113 z "},"ý":{"ha":858,"x_min":26,"x_max":832,"o":"m 326 694 l 451 258 l 542 694 l 832 694 l 567 -93 q 517 -204 546 -157 q 450 -282 489 -251 q 360 -328 411 -312 q 243 -343 310 -343 q 199 -342 222 -343 q 151 -337 175 -340 l 164 -122 q 200 -124 182 -124 q 233 -125 218 -125 q 278 -111 258 -125 q 308 -69 299 -97 l 321 -31 l 26 694 l 326 694 m 696 1042 l 579 806 l 306 806 l 418 1042 l 696 1042 z "},"ŷ":{"ha":858,"x_min":26,"x_max":832,"o":"m 326 694 l 451 258 l 542 694 l 832 694 l 567 -93 q 517 -204 546 -157 q 450 -282 489 -251 q 360 -328 411 -312 q 243 -343 310 -343 q 199 -342 222 -343 q 151 -337 175 -340 l 164 -122 q 200 -124 182 -124 q 233 -125 218 -125 q 278 -111 258 -125 q 308 -69 299 -97 l 321 -31 l 26 694 l 326 694 m 467 1113 l 735 822 l 735 803 l 503 803 l 442 869 l 381 803 l 149 803 l 149 822 l 417 1113 l 467 1113 z "},"ÿ":{"ha":858,"x_min":26,"x_max":832,"o":"m 326 694 l 451 258 l 542 694 l 832 694 l 567 -93 q 517 -204 546 -157 q 450 -282 489 -251 q 360 -328 411 -312 q 243 -343 310 -343 q 199 -342 222 -343 q 151 -337 175 -340 l 164 -122 q 200 -124 182 -124 q 233 -125 218 -125 q 278 -111 258 -125 q 308 -69 299 -97 l 321 -31 l 26 694 l 326 694 m 261 1054 q 360 1019 324 1054 q 397 925 397 983 q 360 832 397 868 q 261 796 324 796 q 163 832 200 796 q 125 925 125 868 q 163 1019 125 983 q 261 1054 200 1054 m 618 1054 q 718 1019 681 1054 q 756 925 756 983 q 718 832 756 868 q 618 796 681 796 q 519 832 557 796 q 482 925 482 868 q 519 1019 482 983 q 618 1054 557 1054 z "},"ź":{"ha":772,"x_min":71,"x_max":701,"o":"m 697 694 l 697 508 l 404 213 l 701 213 l 701 0 l 71 0 l 71 188 l 365 481 l 90 481 l 90 694 l 697 694 m 646 1042 l 529 806 l 256 806 l 368 1042 l 646 1042 z "},"ž":{"ha":772,"x_min":71,"x_max":701,"o":"m 697 694 l 697 508 l 404 213 l 701 213 l 701 0 l 71 0 l 71 188 l 365 481 l 90 481 l 90 694 l 697 694 m 339 1072 l 400 1007 l 461 1072 l 693 1072 l 693 1053 l 425 764 l 375 764 l 107 1053 l 107 1072 l 339 1072 z "},"ż":{"ha":772,"x_min":71,"x_max":701,"o":"m 697 694 l 697 508 l 404 213 l 701 213 l 701 0 l 71 0 l 71 188 l 365 481 l 90 481 l 90 694 l 697 694 m 400 1075 q 511 1035 469 1075 q 553 933 553 996 q 511 831 553 871 q 400 792 469 792 q 288 831 329 792 q 246 933 246 871 q 288 1035 246 996 q 400 1075 329 1075 z "},"Ȁ":{"ha":1147,"x_min":32,"x_max":1115,"o":"m 736 1044 l 1115 0 l 796 0 l 744 178 l 406 178 l 353 0 l 32 0 l 425 1044 l 736 1044 m 475 411 l 678 411 l 579 758 l 475 411 m 763 1468 l 854 1176 l 606 1176 l 514 1468 l 763 1468 m 429 1468 l 522 1176 l 274 1176 l 181 1468 l 429 1468 z "},"Ȅ":{"ha":1006,"x_min":117,"x_max":913,"o":"m 889 1042 l 889 796 l 415 796 l 415 636 l 846 636 l 846 411 l 415 411 l 415 246 l 913 246 l 913 0 l 117 0 l 117 1042 l 889 1042 m 717 1468 l 808 1176 l 560 1176 l 468 1468 l 717 1468 m 383 1468 l 476 1176 l 228 1176 l 135 1468 l 383 1468 z "},"ȅ":{"ha":821,"x_min":50,"x_max":760,"o":"m 318 281 q 345 211 319 236 q 413 186 371 186 q 466 199 446 186 q 494 233 486 213 l 754 210 q 632 40 722 94 q 407 -14 542 -14 q 145 81 240 -14 q 50 347 50 175 q 75 494 50 428 q 147 608 100 560 q 261 682 194 656 q 410 708 328 708 q 558 683 493 708 q 669 610 624 657 q 737 499 714 564 q 760 354 760 433 l 760 281 l 318 281 m 492 424 q 469 483 490 460 q 410 507 449 507 q 347 483 369 507 q 321 424 324 460 l 492 424 m 589 1042 l 681 806 l 464 806 l 354 1042 l 589 1042 m 281 1042 l 393 806 l 176 806 l 50 1042 l 281 1042 z "},"Ȉ":{"ha":532,"x_min":-107,"x_max":567,"o":"m 415 1042 l 415 0 l 117 0 l 117 1042 l 415 1042 m 475 1468 l 567 1176 l 318 1176 l 226 1468 l 475 1468 m 142 1468 l 235 1176 l -14 1176 l -107 1468 l 142 1468 z "},"ȉ":{"ha":440,"x_min":-142,"x_max":489,"o":"m 354 694 l 354 0 l 85 0 l 85 694 l 354 694 m 397 1042 l 489 806 l 272 806 l 163 1042 l 397 1042 m 89 1042 l 201 806 l -15 806 l -142 1042 l 89 1042 z "},"Ȍ":{"ha":1138,"x_min":68,"x_max":1069,"o":"m 568 1060 q 774 1022 682 1060 q 933 915 867 985 q 1034 745 999 844 q 1069 521 1069 646 q 1033 297 1069 396 q 932 127 997 197 q 774 19 867 57 q 568 -18 682 -18 q 362 19 454 -18 q 204 126 269 57 q 103 296 139 196 q 68 521 68 396 q 103 745 68 646 q 205 915 139 844 q 363 1022 271 985 q 568 1060 456 1060 m 568 801 q 422 732 478 801 q 367 521 367 663 q 424 309 367 378 q 568 240 481 240 q 715 309 660 240 q 771 521 771 378 q 756 644 771 592 q 715 732 742 697 q 650 784 688 767 q 568 801 613 801 m 772 1468 l 864 1176 l 615 1176 l 524 1468 l 772 1468 m 439 1468 l 532 1176 l 283 1176 l 190 1468 l 439 1468 z "},"ȍ":{"ha":825,"x_min":49,"x_max":775,"o":"m 413 708 q 558 684 492 708 q 673 614 625 660 q 748 501 721 568 q 775 347 775 433 q 748 195 775 263 q 673 81 721 128 q 558 10 625 35 q 413 -14 492 -14 q 267 10 333 -14 q 152 81 200 35 q 77 194 104 126 q 50 347 50 261 q 77 499 50 432 q 152 612 104 565 q 267 683 200 658 q 413 708 333 708 m 413 476 q 315 347 315 476 q 340 251 315 285 q 413 218 364 218 q 510 347 510 218 q 485 443 510 410 q 413 476 460 476 m 588 1042 l 679 806 l 463 806 l 353 1042 l 588 1042 m 279 1042 l 392 806 l 175 806 l 49 1042 l 279 1042 z "},"ȑ":{"ha":597,"x_min":-64,"x_max":567,"o":"m 328 694 l 328 581 q 406 675 356 643 q 521 707 456 707 l 556 707 l 556 463 l 476 463 q 389 427 422 463 q 356 336 356 392 l 356 0 l 85 0 l 85 694 l 328 694 m 475 1042 l 567 806 l 350 806 l 240 1042 l 475 1042 m 167 1042 l 279 806 l 63 806 l -64 1042 l 167 1042 z "},"Ȕ":{"ha":1126,"x_min":110,"x_max":1015,"o":"m 408 1042 l 408 431 q 447 286 408 339 q 563 233 485 233 q 680 286 642 233 q 718 431 718 339 l 718 1042 l 1015 1042 l 1015 451 q 987 258 1015 344 q 902 110 958 171 q 760 15 846 49 q 563 -18 675 -18 q 365 15 450 -18 q 223 108 279 47 q 138 256 167 168 q 110 451 110 343 l 110 1042 l 408 1042 m 776 1468 l 868 1176 l 619 1176 l 528 1468 l 776 1468 m 443 1468 l 536 1176 l 288 1176 l 194 1468 l 443 1468 z "},"ȕ":{"ha":875,"x_min":74,"x_max":790,"o":"m 347 694 l 347 325 q 369 252 347 276 q 428 228 390 228 q 494 258 468 228 q 519 335 519 288 l 519 694 l 790 694 l 790 0 l 543 0 l 543 111 q 463 17 515 49 q 340 -14 411 -14 q 145 62 213 -14 q 78 285 78 138 l 78 694 l 347 694 m 613 1042 l 704 806 l 488 806 l 378 1042 l 613 1042 m 304 1042 l 417 806 l 200 806 l 74 1042 l 304 1042 z "},"Ȃ":{"ha":1147,"x_min":32,"x_max":1115,"o":"m 736 1044 l 1115 0 l 796 0 l 744 178 l 406 178 l 353 0 l 32 0 l 425 1044 l 736 1044 m 475 411 l 678 411 l 579 758 l 475 411 m 647 1168 l 647 1197 q 628 1252 647 1233 q 574 1271 608 1271 q 518 1252 538 1271 q 499 1197 499 1233 l 499 1168 l 256 1168 l 256 1197 q 340 1410 256 1335 q 574 1485 424 1485 q 703 1465 644 1485 q 803 1409 761 1446 q 869 1319 846 1372 q 892 1197 892 1265 l 892 1168 l 647 1168 z "},"ȃ":{"ha":838,"x_min":50,"x_max":810,"o":"m 78 456 q 179 643 90 578 q 406 708 268 708 q 642 635 564 708 q 721 424 721 563 l 721 256 q 769 201 721 201 l 804 201 l 810 0 q 758 -9 786 -6 q 703 -12 731 -12 q 595 11 639 -12 q 532 88 551 35 q 444 13 500 39 q 296 -14 388 -14 q 116 40 182 -14 q 50 190 50 93 q 121 346 50 288 q 358 414 192 404 q 446 428 419 418 q 472 460 472 439 q 455 494 472 481 q 401 507 438 507 q 349 492 369 507 q 321 453 328 478 l 78 456 m 469 296 q 382 275 442 279 q 322 258 340 272 q 304 224 304 244 q 374 175 304 175 q 444 198 418 175 q 469 257 469 221 l 469 296 m 474 803 l 474 824 q 459 863 474 847 q 419 878 444 878 q 381 863 396 878 q 367 824 367 847 l 367 803 l 156 803 l 156 826 q 174 931 156 883 q 228 1011 193 978 q 311 1063 263 1044 q 419 1081 360 1081 q 526 1062 478 1081 q 610 1010 575 1043 q 664 930 644 976 q 683 826 683 883 l 683 803 l 474 803 z "},"Ȇ":{"ha":1006,"x_min":117,"x_max":913,"o":"m 889 1042 l 889 796 l 415 796 l 415 636 l 846 636 l 846 411 l 415 411 l 415 246 l 913 246 l 913 0 l 117 0 l 117 1042 l 889 1042 m 590 1168 l 590 1197 q 571 1252 590 1233 q 517 1271 551 1271 q 461 1252 481 1271 q 442 1197 442 1233 l 442 1168 l 199 1168 l 199 1197 q 283 1410 199 1335 q 517 1485 367 1485 q 646 1465 588 1485 q 747 1409 704 1446 q 812 1319 789 1372 q 835 1197 835 1265 l 835 1168 l 590 1168 z "},"ȇ":{"ha":821,"x_min":50,"x_max":760,"o":"m 318 281 q 345 211 319 236 q 413 186 371 186 q 466 199 446 186 q 494 233 486 213 l 754 210 q 632 40 722 94 q 407 -14 542 -14 q 145 81 240 -14 q 50 347 50 175 q 75 494 50 428 q 147 608 100 560 q 261 682 194 656 q 410 708 328 708 q 558 683 493 708 q 669 610 624 657 q 737 499 714 564 q 760 354 760 433 l 760 281 l 318 281 m 492 424 q 469 483 490 460 q 410 507 449 507 q 347 483 369 507 q 321 424 324 460 l 492 424 m 469 803 l 469 824 q 455 863 469 847 q 415 878 440 878 q 377 863 392 878 q 363 824 363 847 l 363 803 l 151 803 l 151 826 q 170 931 151 883 q 224 1011 189 978 q 307 1063 258 1044 q 415 1081 356 1081 q 522 1062 474 1081 q 606 1010 571 1043 q 660 930 640 976 q 679 826 679 883 l 679 803 l 469 803 z "},"Ȋ":{"ha":532,"x_min":-51,"x_max":585,"o":"m 415 1042 l 415 0 l 117 0 l 117 1042 l 415 1042 m 340 1168 l 340 1197 q 321 1252 340 1233 q 267 1271 301 1271 q 211 1252 231 1271 q 192 1197 192 1233 l 192 1168 l -51 1168 l -51 1197 q 33 1410 -51 1335 q 267 1485 117 1485 q 396 1465 338 1485 q 497 1409 454 1446 q 562 1319 539 1372 q 585 1197 585 1265 l 585 1168 l 340 1168 z "},"ȋ":{"ha":440,"x_min":-43,"x_max":485,"o":"m 354 694 l 354 0 l 85 0 l 85 694 l 354 694 m 275 803 l 275 824 q 260 863 275 847 q 221 878 246 878 q 183 863 197 878 q 168 824 168 847 l 168 803 l -43 803 l -43 826 q -24 931 -43 883 q 29 1011 -6 978 q 113 1063 64 1044 q 221 1081 161 1081 q 328 1062 279 1081 q 411 1010 376 1043 q 465 930 446 976 q 485 826 485 883 l 485 803 l 275 803 z "},"Ȏ":{"ha":1138,"x_min":68,"x_max":1069,"o":"m 568 1060 q 774 1022 682 1060 q 933 915 867 985 q 1034 745 999 844 q 1069 521 1069 646 q 1033 297 1069 396 q 932 127 997 197 q 774 19 867 57 q 568 -18 682 -18 q 362 19 454 -18 q 204 126 269 57 q 103 296 139 196 q 68 521 68 396 q 103 745 68 646 q 205 915 139 844 q 363 1022 271 985 q 568 1060 456 1060 m 568 801 q 422 732 478 801 q 367 521 367 663 q 424 309 367 378 q 568 240 481 240 q 715 309 660 240 q 771 521 771 378 q 756 644 771 592 q 715 732 742 697 q 650 784 688 767 q 568 801 613 801 m 642 1168 l 642 1197 q 622 1252 642 1233 q 568 1271 603 1271 q 513 1252 532 1271 q 493 1197 493 1233 l 493 1168 l 250 1168 l 250 1197 q 334 1410 250 1335 q 568 1485 418 1485 q 697 1465 639 1485 q 798 1409 756 1446 q 863 1319 840 1372 q 886 1197 886 1265 l 886 1168 l 642 1168 z "},"ȏ":{"ha":825,"x_min":50,"x_max":775,"o":"m 413 708 q 558 684 492 708 q 673 614 625 660 q 748 501 721 568 q 775 347 775 433 q 748 195 775 263 q 673 81 721 128 q 558 10 625 35 q 413 -14 492 -14 q 267 10 333 -14 q 152 81 200 35 q 77 194 104 126 q 50 347 50 261 q 77 499 50 432 q 152 612 104 565 q 267 683 200 658 q 413 708 333 708 m 413 476 q 315 347 315 476 q 340 251 315 285 q 413 218 364 218 q 510 347 510 218 q 485 443 510 410 q 413 476 460 476 m 468 803 l 468 824 q 453 863 468 847 q 414 878 439 878 q 376 863 390 878 q 361 824 361 847 l 361 803 l 150 803 l 150 826 q 169 931 150 883 q 222 1011 188 978 q 306 1063 257 1044 q 414 1081 354 1081 q 521 1062 472 1081 q 604 1010 569 1043 q 658 930 639 976 q 678 826 678 883 l 678 803 l 468 803 z "},"Ȓ":{"ha":1085,"x_min":117,"x_max":1035,"o":"m 567 1042 q 877 941 774 1042 q 981 667 981 840 q 932 484 981 560 q 799 369 883 408 l 1035 0 l 689 0 l 529 300 l 415 300 l 415 0 l 117 0 l 117 1042 l 567 1042 m 415 542 l 539 542 q 683 667 683 542 q 539 789 683 789 l 415 789 l 415 542 m 601 1168 l 601 1197 q 582 1252 601 1233 q 528 1271 563 1271 q 472 1252 492 1271 q 453 1197 453 1233 l 453 1168 l 210 1168 l 210 1197 q 294 1410 210 1335 q 528 1485 378 1485 q 657 1465 599 1485 q 758 1409 715 1446 q 823 1319 800 1372 q 846 1197 846 1265 l 846 1168 l 601 1168 z "},"ȓ":{"ha":597,"x_min":71,"x_max":599,"o":"m 328 694 l 328 581 q 406 675 356 643 q 521 707 456 707 l 556 707 l 556 463 l 476 463 q 389 427 422 463 q 356 336 356 392 l 356 0 l 85 0 l 85 694 l 328 694 m 389 803 l 389 824 q 374 863 389 847 q 335 878 360 878 q 297 863 311 878 q 282 824 282 847 l 282 803 l 71 803 l 71 826 q 90 931 71 883 q 143 1011 108 978 q 226 1063 178 1044 q 335 1081 275 1081 q 442 1062 393 1081 q 525 1010 490 1043 q 579 930 560 976 q 599 826 599 883 l 599 803 l 389 803 z "},"Ȗ":{"ha":1126,"x_min":110,"x_max":1015,"o":"m 408 1042 l 408 431 q 447 286 408 339 q 563 233 485 233 q 680 286 642 233 q 718 431 718 339 l 718 1042 l 1015 1042 l 1015 451 q 987 258 1015 344 q 902 110 958 171 q 760 15 846 49 q 563 -18 675 -18 q 365 15 450 -18 q 223 108 279 47 q 138 256 167 168 q 110 451 110 343 l 110 1042 l 408 1042 m 636 1168 l 636 1197 q 617 1252 636 1233 q 563 1271 597 1271 q 507 1252 526 1271 q 488 1197 488 1233 l 488 1168 l 244 1168 l 244 1197 q 328 1410 244 1335 q 563 1485 413 1485 q 692 1465 633 1485 q 792 1409 750 1446 q 858 1319 835 1372 q 881 1197 881 1265 l 881 1168 l 636 1168 z "},"ȗ":{"ha":875,"x_min":78,"x_max":790,"o":"m 347 694 l 347 325 q 369 252 347 276 q 428 228 390 228 q 494 258 468 228 q 519 335 519 288 l 519 694 l 790 694 l 790 0 l 543 0 l 543 111 q 463 17 515 49 q 340 -14 411 -14 q 145 62 213 -14 q 78 285 78 138 l 78 694 l 347 694 m 492 803 l 492 824 q 477 863 492 847 q 438 878 463 878 q 399 863 414 878 q 385 824 385 847 l 385 803 l 174 803 l 174 826 q 192 931 174 883 q 246 1011 211 978 q 329 1063 281 1044 q 438 1081 378 1081 q 544 1062 496 1081 q 628 1010 593 1043 q 682 930 663 976 q 701 826 701 883 l 701 803 l 492 803 z "},"Ț":{"ha":994,"x_min":51,"x_max":943,"o":"m 943 1042 l 943 788 l 646 788 l 646 0 l 347 0 l 347 788 l 51 788 l 51 1042 l 943 1042 m 428 -67 q 603 -122 543 -67 q 663 -278 663 -178 q 585 -467 663 -390 q 338 -571 507 -544 l 310 -367 q 409 -338 382 -357 q 436 -294 436 -319 q 394 -260 436 -260 l 343 -260 l 343 -67 l 428 -67 z "},"ț":{"ha":619,"x_min":43,"x_max":576,"o":"m 72 694 q 178 803 178 694 l 178 878 l 424 878 l 424 694 l 568 694 l 568 481 l 424 481 l 424 307 q 444 240 424 261 q 506 219 464 219 q 537 220 521 219 q 568 222 553 221 l 576 0 q 515 -10 549 -7 q 449 -14 481 -14 q 224 60 294 -14 q 154 275 154 135 l 154 481 l 43 481 l 43 694 l 72 694 m 314 -61 q 463 -108 411 -61 q 515 -243 515 -156 q 453 -399 515 -331 q 272 -496 390 -467 l 222 -322 q 299 -293 275 -310 q 322 -257 322 -276 q 289 -228 322 -228 l 254 -228 l 254 -61 l 314 -61 z "},"µ":{"ha":899,"x_min":90,"x_max":803,"o":"m 361 694 l 361 331 q 440 228 361 228 q 508 258 482 228 q 533 339 533 288 l 533 694 l 803 694 l 803 0 l 578 0 l 578 86 q 511 10 550 35 q 425 -14 472 -14 q 361 1 385 -14 l 361 -339 l 90 -339 l 90 694 l 361 694 z "},"¼":{"ha":1189,"x_min":57,"x_max":1147,"o":"m 378 1043 l 378 515 l 179 515 l 179 749 l 57 749 l 57 904 l 78 904 q 168 935 138 904 q 199 1022 199 965 l 199 1043 l 378 1043 m 1078 529 l 1078 238 l 1147 238 l 1147 79 l 1078 79 l 1078 1 l 886 1 l 886 79 l 635 79 l 635 215 l 892 529 l 1078 529 m 886 238 l 886 331 l 814 238 l 886 238 m 1010 986 l 271 -79 l 132 17 l 869 1082 l 1010 986 z "},"½":{"ha":1235,"x_min":57,"x_max":1182,"o":"m 378 1043 l 378 515 l 179 515 l 179 749 l 57 749 l 57 904 l 78 904 q 168 935 138 904 q 199 1022 199 965 l 199 1043 l 378 1043 m 1182 1 l 721 1 l 721 151 l 940 268 q 992 336 992 294 q 947 376 992 376 q 913 363 925 376 q 900 325 901 349 l 719 325 q 788 484 722 428 q 963 540 854 540 q 1122 492 1065 540 q 1179 360 1179 443 q 1151 267 1179 306 q 1076 204 1124 229 l 1000 164 l 1182 164 l 1182 1 m 1010 986 l 271 -79 l 132 17 l 869 1082 l 1010 986 z "},"¾":{"ha":1299,"x_min":47,"x_max":1257,"o":"m 1188 529 l 1188 238 l 1257 238 l 1257 79 l 1188 79 l 1188 1 l 996 1 l 996 79 l 744 79 l 744 215 l 1001 529 l 1188 529 m 996 238 l 996 331 l 924 238 l 996 238 m 1119 986 l 381 -79 l 242 17 l 979 1082 l 1119 986 m 226 707 q 278 665 233 665 q 310 678 300 665 q 321 710 321 690 q 269 749 321 749 q 237 747 253 749 q 206 742 221 744 l 179 824 l 247 881 l 78 881 l 78 1043 l 485 1043 l 485 911 l 382 851 q 474 793 443 836 q 504 688 504 750 q 447 554 504 604 q 282 504 389 504 q 118 556 178 504 q 47 707 58 608 l 226 707 z "},"‰":{"ha":1851,"x_min":61,"x_max":1796,"o":"m 1178 997 l 368 0 l 81 0 l 889 997 l 1178 997 m 975 500 q 1079 481 1032 500 q 1161 426 1126 461 q 1215 344 1196 392 q 1233 240 1233 296 q 1215 138 1233 185 q 1161 56 1196 90 q 1079 1 1126 21 q 975 -18 1032 -18 q 871 1 918 -18 q 789 56 824 21 q 735 138 754 90 q 717 240 717 185 q 735 344 717 296 q 789 426 754 392 q 871 481 824 461 q 975 500 918 500 m 975 307 q 934 290 951 307 q 917 240 917 272 q 934 191 917 208 q 975 174 951 174 q 1017 191 999 174 q 1035 240 1035 208 q 1017 290 1035 272 q 975 307 999 307 m 319 1060 q 424 1040 376 1060 q 506 986 472 1021 q 560 903 540 951 q 579 800 579 856 q 560 697 579 744 q 506 615 540 650 q 424 561 472 581 q 319 542 376 542 q 215 561 263 542 q 134 615 168 581 q 81 697 100 650 q 61 800 61 744 q 81 903 61 856 q 134 986 100 951 q 215 1040 168 1021 q 319 1060 263 1060 m 319 867 q 278 849 296 867 q 261 800 261 832 q 278 751 261 768 q 319 733 296 733 q 361 751 343 733 q 379 800 379 768 q 361 849 379 832 q 319 867 343 867 m 1536 500 q 1641 481 1593 500 q 1723 426 1689 461 q 1776 344 1757 392 q 1796 240 1796 296 q 1776 138 1796 185 q 1723 56 1757 90 q 1641 1 1689 21 q 1536 -18 1593 -18 q 1432 1 1479 -18 q 1351 56 1385 21 q 1297 138 1317 90 q 1278 240 1278 185 q 1297 344 1278 296 q 1351 426 1317 392 q 1432 481 1385 461 q 1536 500 1479 500 m 1536 307 q 1495 290 1513 307 q 1478 240 1478 272 q 1495 191 1478 208 q 1536 174 1513 174 q 1578 191 1560 174 q 1596 240 1596 208 q 1578 290 1596 272 q 1536 307 1560 307 z "},"Ẃ":{"ha":1522,"x_min":32,"x_max":1490,"o":"m 347 1042 l 492 361 l 646 1042 l 890 1042 l 1047 361 l 1189 1042 l 1490 1042 l 1208 -3 l 888 -3 l 760 574 l 632 -3 l 310 -3 l 32 1042 l 347 1042 m 992 1290 l 529 1138 l 529 1407 l 992 1560 l 992 1290 z "},"Ǿ":{"ha":1138,"x_min":68,"x_max":1069,"o":"m 1057 1136 l 936 910 q 1035 742 1000 839 q 1069 521 1069 644 q 1033 297 1069 396 q 932 127 997 197 q 774 19 867 57 q 568 -18 682 -18 q 507 -15 536 -18 q 450 -7 478 -12 l 404 -94 l 82 -94 l 200 129 q 102 298 136 200 q 68 521 68 396 q 103 745 68 646 q 205 915 139 844 q 363 1022 271 985 q 568 1060 456 1060 q 688 1047 631 1060 l 735 1136 l 1057 1136 m 568 801 q 422 732 478 801 q 367 521 367 663 q 424 309 367 378 q 568 240 481 240 q 715 309 660 240 q 771 521 771 378 q 756 644 771 592 q 715 732 742 697 q 650 784 688 767 q 568 801 613 801 m 800 1290 l 338 1138 l 338 1407 l 800 1560 l 800 1290 z "},"Ǽ":{"ha":1603,"x_min":26,"x_max":1510,"o":"m 1486 1042 l 1486 796 l 1039 796 l 1039 636 l 1443 636 l 1443 411 l 1039 411 l 1039 246 l 1510 246 l 1510 0 l 742 0 l 742 174 l 454 174 l 371 0 l 26 0 l 633 1042 l 1486 1042 m 568 410 l 742 410 l 742 769 l 568 410 m 1194 1290 l 732 1138 l 732 1407 l 1194 1560 l 1194 1290 z "},"Ŧ":{"ha":994,"x_min":51,"x_max":943,"o":"m 943 1042 l 943 788 l 646 788 l 646 583 l 825 583 l 825 354 l 646 354 l 646 0 l 347 0 l 347 354 l 168 354 l 168 583 l 347 583 l 347 788 l 51 788 l 51 1042 l 943 1042 z "},"Ẅ":{"ha":1522,"x_min":32,"x_max":1490,"o":"m 347 1042 l 492 361 l 646 1042 l 890 1042 l 1047 361 l 1189 1042 l 1490 1042 l 1208 -3 l 888 -3 l 760 574 l 632 -3 l 310 -3 l 32 1042 l 347 1042 m 544 1443 q 653 1402 613 1443 q 694 1299 694 1361 q 653 1196 694 1236 q 544 1156 613 1156 q 438 1196 478 1156 q 397 1299 397 1236 q 438 1402 397 1361 q 544 1443 478 1443 m 975 1443 q 1084 1402 1043 1443 q 1125 1299 1125 1361 q 1084 1196 1125 1236 q 975 1156 1043 1156 q 868 1196 908 1156 q 828 1299 828 1236 q 868 1402 828 1361 q 975 1443 908 1443 z "},"Ẁ":{"ha":1522,"x_min":32,"x_max":1490,"o":"m 347 1042 l 492 361 l 646 1042 l 890 1042 l 1047 361 l 1189 1042 l 1490 1042 l 1208 -3 l 888 -3 l 760 574 l 632 -3 l 310 -3 l 32 1042 l 347 1042 m 529 1560 l 992 1407 l 992 1138 l 529 1290 l 529 1560 z "},"Ỳ":{"ha":1094,"x_min":31,"x_max":1064,"o":"m 367 1042 l 550 592 l 738 1042 l 1064 1042 l 699 319 l 699 0 l 400 0 l 400 319 l 31 1042 l 367 1042 m 317 1560 l 779 1407 l 779 1138 l 317 1290 l 317 1560 z "},"ẞ":{"ha":1190,"x_min":110,"x_max":1128,"o":"m 544 563 l 711 778 q 661 810 692 797 q 586 824 631 824 q 455 772 501 824 q 408 622 408 719 l 408 0 l 110 0 l 110 622 q 142 803 110 722 q 235 942 174 885 q 384 1029 296 999 q 583 1060 472 1060 q 844 1008 736 1060 q 1018 869 953 957 l 1018 783 l 872 646 q 980 608 932 636 q 1060 537 1028 579 q 1110 440 1093 494 q 1128 324 1128 386 q 1101 183 1128 246 q 1028 76 1075 121 q 917 6 982 31 q 774 -18 851 -18 q 551 59 632 -18 q 464 282 469 136 l 681 288 q 701 227 683 249 q 753 206 718 206 q 833 329 833 206 q 715 450 833 450 q 622 429 661 450 l 544 563 z "},"ǽ":{"ha":1224,"x_min":50,"x_max":1163,"o":"m 724 281 q 748 211 722 236 q 817 186 774 186 q 869 199 849 186 q 897 233 889 213 l 1157 210 q 1035 40 1125 94 q 811 -14 946 -14 q 554 78 646 -14 q 441 9 506 32 q 299 -14 376 -14 q 115 39 181 -14 q 50 189 50 92 q 121 345 50 286 q 358 414 192 404 q 446 429 419 418 q 472 460 472 440 q 455 494 472 481 q 401 507 438 507 q 348 492 368 507 q 321 453 328 476 l 78 456 q 110 564 83 517 q 179 643 136 611 q 279 692 222 675 q 406 708 336 708 q 611 642 540 708 q 829 708 699 708 q 974 683 911 708 q 1078 613 1036 658 q 1141 504 1119 568 q 1163 364 1163 440 l 1163 281 l 724 281 m 469 296 q 382 275 442 279 q 323 258 342 272 q 304 222 304 244 q 375 175 304 175 q 444 197 418 175 q 469 257 469 219 l 469 296 m 894 424 q 873 483 893 460 q 813 507 853 507 q 752 483 774 507 q 726 424 731 460 l 894 424 m 885 1042 l 768 806 l 494 806 l 607 1042 l 885 1042 z "},"ǿ":{"ha":825,"x_min":43,"x_max":782,"o":"m 782 775 l 683 601 q 751 492 726 556 q 775 347 775 428 q 748 195 775 263 q 673 81 721 128 q 558 10 625 35 q 413 -14 492 -14 q 376 -12 393 -14 q 343 -8 360 -11 l 303 -81 l 43 -81 l 139 93 q 73 203 96 139 q 50 347 50 267 q 77 499 50 432 q 152 612 104 565 q 267 683 200 658 q 413 708 333 708 q 447 707 431 708 q 481 703 464 706 l 521 775 l 782 775 m 413 476 q 315 347 315 476 q 340 251 315 285 q 413 218 364 218 q 510 347 510 218 q 485 443 510 410 q 413 476 460 476 m 710 1072 l 593 836 l 319 836 l 432 1072 l 710 1072 z "},"ŧ":{"ha":619,"x_min":43,"x_max":576,"o":"m 72 694 q 178 803 178 694 l 178 878 l 424 878 l 424 694 l 568 694 l 568 501 l 424 501 l 424 426 l 560 426 l 560 286 l 424 286 q 443 223 424 242 q 506 204 463 204 q 537 205 521 204 q 568 207 553 206 l 576 0 q 511 -10 546 -7 q 449 -14 476 -14 q 224 60 294 -14 q 154 275 154 135 l 154 286 l 67 286 l 67 426 l 154 426 l 154 501 l 43 501 l 43 694 l 72 694 z "},"ẃ":{"ha":1150,"x_min":26,"x_max":1124,"o":"m 300 694 l 388 264 l 486 694 l 668 694 l 778 264 l 851 694 l 1124 694 l 936 -1 l 661 -1 l 575 342 l 494 -1 l 221 -1 l 26 694 l 300 694 m 844 1042 l 728 806 l 454 806 l 567 1042 l 844 1042 z "},"ẅ":{"ha":1150,"x_min":26,"x_max":1124,"o":"m 300 694 l 388 264 l 486 694 l 668 694 l 778 264 l 851 694 l 1124 694 l 936 -1 l 661 -1 l 575 342 l 494 -1 l 221 -1 l 26 694 l 300 694 m 394 1054 q 494 1019 457 1054 q 531 925 531 983 q 494 832 531 868 q 394 796 457 796 q 296 832 333 796 q 258 925 258 868 q 296 1019 258 983 q 394 1054 333 1054 m 751 1054 q 851 1019 814 1054 q 889 925 889 983 q 851 832 889 868 q 751 796 814 796 q 653 832 690 796 q 615 925 615 868 q 653 1019 615 983 q 751 1054 690 1054 z "},"ẁ":{"ha":1150,"x_min":26,"x_max":1124,"o":"m 300 694 l 388 264 l 486 694 l 668 694 l 778 264 l 851 694 l 1124 694 l 936 -1 l 661 -1 l 575 342 l 494 -1 l 221 -1 l 26 694 l 300 694 m 594 1042 l 707 806 l 433 806 l 317 1042 l 594 1042 z "},"ỳ":{"ha":858,"x_min":26,"x_max":832,"o":"m 326 694 l 451 258 l 542 694 l 832 694 l 567 -93 q 517 -204 546 -157 q 450 -282 489 -251 q 360 -328 411 -312 q 243 -343 310 -343 q 199 -342 222 -343 q 151 -337 175 -340 l 164 -122 q 200 -124 182 -124 q 233 -125 218 -125 q 278 -111 258 -125 q 308 -69 299 -97 l 321 -31 l 26 694 l 326 694 m 468 1042 l 581 806 l 307 806 l 190 1042 l 468 1042 z "},"₽":{"ha":1076,"x_min":49,"x_max":1018,"o":"m 49 579 l 158 579 l 158 1042 l 597 1042 q 908 950 797 1042 q 1018 685 1018 858 q 906 435 1018 521 q 597 349 793 349 l 457 349 l 457 281 l 674 281 l 674 90 l 457 90 l 457 0 l 158 0 l 158 90 l 49 90 l 49 281 l 158 281 l 158 349 l 49 349 l 49 579 m 457 579 l 590 579 q 682 606 644 579 q 719 685 719 632 q 590 789 719 789 l 457 789 l 457 579 z "},"←":{"ha":1290,"x_min":107,"x_max":1156,"o":"m 1156 226 l 565 226 l 565 54 l 540 40 l 107 333 l 107 361 l 540 653 l 565 639 l 565 467 l 1156 467 l 1156 226 z "},"↑":{"ha":771,"x_min":79,"x_max":692,"o":"m 265 -178 l 265 413 l 93 413 l 79 438 l 371 871 l 399 871 l 692 438 l 678 413 l 506 413 l 506 -178 l 265 -178 z "},"→":{"ha":1290,"x_min":135,"x_max":1183,"o":"m 135 467 l 725 467 l 725 639 l 750 653 l 1183 361 l 1183 333 l 750 40 l 725 54 l 725 226 l 135 226 l 135 467 z "},"↓":{"ha":771,"x_min":79,"x_max":692,"o":"m 506 861 l 506 271 l 678 271 l 692 246 l 399 -187 l 371 -187 l 79 246 l 93 271 l 265 271 l 265 861 l 506 861 z "},"↖":{"ha":994,"x_min":79,"x_max":915,"o":"m 744 -110 l 328 307 l 206 186 l 178 193 l 79 707 l 99 726 l 611 626 l 618 599 l 497 476 l 915 60 l 744 -110 z "},"↗":{"ha":994,"x_min":79,"x_max":915,"o":"m 79 60 l 496 476 l 375 599 l 382 626 l 896 726 l 915 707 l 815 193 l 788 186 l 665 307 l 249 -110 l 79 60 z "},"↘":{"ha":994,"x_min":79,"x_max":915,"o":"m 249 764 l 665 346 l 788 467 l 815 460 l 915 -53 l 896 -72 l 382 26 l 375 54 l 496 176 l 79 593 l 249 764 z "},"↙":{"ha":994,"x_min":79,"x_max":915,"o":"m 915 593 l 497 176 l 618 54 l 611 26 l 99 -72 l 79 -53 l 178 460 l 206 467 l 328 346 l 744 764 l 915 593 z "},"":{"ha":1026,"x_min":32,"x_max":994,"o":"m 672 863 l 994 0 l 700 0 l 661 135 l 369 135 l 328 0 l 32 0 l 368 863 l 672 863 m 435 350 l 599 350 l 519 622 l 435 350 z "},"":{"ha":1026,"x_min":32,"x_max":994,"o":"m 672 863 l 994 0 l 700 0 l 661 135 l 369 135 l 328 0 l 32 0 l 368 863 l 672 863 m 435 350 l 599 350 l 519 622 l 435 350 m 750 1082 l 288 929 l 288 1199 l 750 1351 l 750 1082 z "},"":{"ha":1026,"x_min":32,"x_max":994,"o":"m 672 863 l 994 0 l 700 0 l 661 135 l 369 135 l 328 0 l 32 0 l 368 863 l 672 863 m 435 350 l 599 350 l 519 622 l 435 350 m 540 1311 l 789 1176 l 789 928 l 758 928 l 518 1058 l 276 928 l 247 928 l 247 1176 l 496 1311 l 540 1311 z "},"":{"ha":1026,"x_min":32,"x_max":994,"o":"m 672 863 l 994 0 l 700 0 l 661 135 l 369 135 l 328 0 l 32 0 l 368 863 l 672 863 m 435 350 l 599 350 l 519 622 l 435 350 m 303 1235 q 412 1194 371 1235 q 453 1090 453 1153 q 412 988 453 1028 q 303 947 371 947 q 196 988 236 947 q 156 1090 156 1028 q 196 1194 156 1153 q 303 1235 236 1235 m 733 1235 q 842 1194 801 1235 q 883 1090 883 1153 q 842 988 883 1028 q 733 947 801 947 q 626 988 667 947 q 586 1090 586 1028 q 626 1194 586 1153 q 733 1235 667 1235 z "},"":{"ha":1026,"x_min":32,"x_max":994,"o":"m 672 863 l 994 0 l 700 0 l 661 135 l 369 135 l 328 0 l 32 0 l 368 863 l 672 863 m 435 350 l 599 350 l 519 622 l 435 350 m 288 1351 l 750 1199 l 750 929 l 288 1082 l 288 1351 z "},"":{"ha":1026,"x_min":32,"x_max":994,"o":"m 519 1243 q 627 1222 578 1243 q 712 1165 676 1201 q 767 1081 747 1129 q 788 978 788 1033 q 765 867 788 918 q 703 781 743 817 l 994 0 l 700 0 l 661 135 l 369 135 l 328 0 l 32 0 l 336 781 q 273 867 296 817 q 250 978 250 918 q 270 1081 250 1033 q 326 1165 290 1129 q 412 1222 363 1201 q 519 1243 461 1243 m 435 350 l 599 350 l 519 622 l 435 350 m 519 1031 q 482 1015 496 1031 q 468 978 468 1000 q 482 940 468 954 q 519 925 496 925 q 556 940 542 925 q 569 978 569 954 q 556 1015 569 1000 q 519 1031 543 1031 z "}}}
